<svg xmlns="http://www.w3.org/2000/svg" viewBox="0 0 62 59"><defs><style>.cls-1{fill:#f2bfb6;}.cls-2{fill:#fff;}</style></defs><g id="Capa_2" data-name="Capa 2"><g id="Capa_1-2" data-name="Capa 1"><ellipse class="cls-1" cx="31" cy="29.5" rx="31" ry="29.5"/><path class="cls-2" d="M33.15,46.27,31.7,48a12.08,12.08,0,0,0-4-3.69c-3-1.91-9-5.29-10.75-7s-6-5.92-5.74-9.94A10.94,10.94,0,0,1,13.74,21c1.92-2.24,4.73-2.87,7.85-3A12.09,12.09,0,0,1,31.7,23c-.25-.35,2.44-2.56,2.79-2.85a12,12,0,0,1,5.21-2.72A10.83,10.83,0,0,1,48.92,20c5.81,5.42,2.7,13.86-3.48,18-4.72,3.16-9.93,6.13-13.95,9.92"/></g></g></svg>