<svg xmlns="http://www.w3.org/2000/svg" viewBox="0 0 62 59"><defs><style>.cls-1{fill:#884393;}.cls-2{fill:#fff;}</style></defs><g id="Capa_2" data-name="Capa 2"><g id="Capa_1-2" data-name="Capa 1"><ellipse class="cls-1" cx="31" cy="29.5" rx="31" ry="29.5"/><path class="cls-2" d="M18,21.71l4.79.05,10.27.11,9.64.1c.94,0,1.89.06,2.82.05a4.55,4.55,0,0,1,2.81.62A2.54,2.54,0,0,1,49,25c-.38,3.55-2.71,11.52-2.71,11.52s-.38,2.07-3.09,2.07c-3.06,0-6.12-.07-9.18-.12l-5.75-.1c-1,0-2.59-.11-3.37.51a.9.9,0,0,0-.36.87,1.14,1.14,0,0,0,.7.74,3.45,3.45,0,0,0,.86.17,25,25,0,0,0,2.74,0H44c.93,0,2.53-.21,3,.5s.31,1.14-.59,1.42H29c-.76,0-1.51,0-2.26,0s-1.4,0-2.11,0a7.42,7.42,0,0,1-.82,0A3.06,3.06,0,0,1,22,41.77c-.94-.85-1.09-2.22-1.43-3.28s-.77-2.34-1.16-3.51Q18,30.74,16.59,26.49l-1.47-4.34-1.55-4.72H8.63a3.75,3.75,0,0,1-1.9-.19,1.77,1.77,0,0,1-.64-.7A.8.8,0,0,1,6,15.9a1.15,1.15,0,0,1,.72-.57c1.54-.52,3.61-.27,5.26-.27h3.36s.52,0,.91,1.48S18,21.71,18,21.71Z"/><ellipse class="cls-2" cx="27.91" cy="47.78" rx="3.09" ry="2.22"/><ellipse class="cls-2" cx="39.9" cy="47.78" rx="3.09" ry="2.22"/></g></g></svg>
