<svg xmlns="http://www.w3.org/2000/svg" viewBox="0 0 62 61"><defs><style>.cls-1{fill:#d1d451;}.cls-2{fill:#fff;stroke:#fff;stroke-miterlimit:6.63;stroke-width:0.08px;}</style></defs><g id="Capa_2" data-name="Capa 2"><g id="Capa_1-2" data-name="Capa 1"><ellipse class="cls-1" cx="31" cy="29.5" rx="31" ry="29.5"/><g id="SVGRepo_iconCarrier" data-name="SVGRepo iconCarrier"><path class="cls-2" d="M18.22,35.35A42.05,42.05,0,0,0,32.34,45.78a22.79,22.79,0,0,0,7.9,2.2l.56,0a6.73,6.73,0,0,0,5.08-2.06l0,0a21.58,21.58,0,0,1,1.6-1.56c.39-.35.79-.72,1.17-1.09a3.65,3.65,0,0,0,0-5.63l-5-4.7a4.14,4.14,0,0,0-2.92-1.26,4.28,4.28,0,0,0-2.95,1.25l-3,2.8-.82-.4c-.33-.16-.64-.31-.91-.47a30.72,30.72,0,0,1-7.51-6.45,16.79,16.79,0,0,1-2.53-3.81c.78-.67,1.51-1.36,2.21-2l.76-.73A3.91,3.91,0,0,0,27.42,19,3.85,3.85,0,0,0,26,16.18l-2.47-2.33L22.73,13C22.18,12.5,21.61,12,21,11.46a4.22,4.22,0,0,0-2.91-1.2,4.38,4.38,0,0,0-3,1.21l-3.1,2.93a5.92,5.92,0,0,0-1.9,3.84,13.8,13.8,0,0,0,1.16,6.26A36.16,36.16,0,0,0,18.22,35.35Zm-6-16.94a4,4,0,0,1,1.32-2.66l3.08-2.91a2.29,2.29,0,0,1,1.53-.67,2.19,2.19,0,0,1,1.49.68c.55.49,1.08,1,1.64,1.54.28.27.57.54.86.83l2.47,2.33A2,2,0,0,1,25.37,19a2.05,2.05,0,0,1-.78,1.46l-.77.74c-.77.73-1.49,1.43-2.29,2.09l0,0a1.46,1.46,0,0,0-.41,1.74s0,0,0,.06A18.53,18.53,0,0,0,24,29.61a32.77,32.77,0,0,0,8,6.86c.36.22.74.39,1.1.57a9.62,9.62,0,0,1,.91.46l.09,0a1.89,1.89,0,0,0,.81.2,1.8,1.8,0,0,0,1.23-.53l3.1-2.93a2.28,2.28,0,0,1,1.52-.7,2.14,2.14,0,0,1,1.47.7l5,4.71a1.83,1.83,0,0,1,0,3c-.35.35-.71.69-1.1,1a22.9,22.9,0,0,0-1.73,1.69,4.7,4.7,0,0,1-3.56,1.43l-.43,0a20.62,20.62,0,0,1-7.15-2,40,40,0,0,1-13.44-9.93,34.63,34.63,0,0,1-6.55-10.28A12.06,12.06,0,0,1,12.2,18.41Z"/></g></g></g></svg>