<?xml version="1.0" encoding="iso-8859-1"?>
<!-- Generator: Adobe Illustrator 25.4.1, SVG Export Plug-In . SVG Version: 6.00 Build 0)  -->
<svg version="1.1" id="Capa_1" xmlns="http://www.w3.org/2000/svg" xmlns:xlink="http://www.w3.org/1999/xlink" x="0px" y="0px"
	 viewBox="0 0 1944 203" style="enable-background:new 0 0 1944 203;" xml:space="preserve">
<g style="display:none;">
	<rect x="-3.036" y="1.75" style="display:inline;fill:#926CAD;" width="1920" height="199"/>
	<rect x="-3.036" y="1.75" style="display:inline;fill:#D1D451;" width="1920" height="199"/>
</g>
<g>
	<g>
		<path style="fill:none;stroke:#BB94C4;stroke-width:3.4033;stroke-miterlimit:10;" d="M582.762,8.911
			c-0.439,0.23-0.775,0.47-0.925,0.704c-0.596,0.933,0.616,3.573,0.796,4.712c0.405,2.563,2.409,7.239-0.287,9.456
			c-2.293,1.886-8.291,1.272-11.443,1.269c-3.45-0.004-6.89-0.284-10.335-0.383c-6.328-0.183-14.339-0.078-18.075,4.064
			c-4.981,5.523-7.692,11.418-10.682,17.524c-2.088,4.265-4.177,8.53-6.265,12.795c-1.987,4.058-3.201,8.269-5.023,12.386
			c-0.108,0.244-0.313,0.539-0.688,0.533c-0.31-0.005-2.304-1.282-2.391-1.206c0,0-10.46,9.071-10.46,9.071l4.416,2.71
			c0,0-15.897,9.334-7.507,13.549c8.39,4.215,18.988-6.022,18.988-6.022c1.795,0.653,3.659,1.441,5.291,2.278
			c0.061,0.031,0.13,0.065,0.206,0.06c0.081-0.005,0.143-0.051,0.195-0.093c0.279-0.226,0.557-0.37,0.877-0.561
			c1.745-1.042,3.335-2.203,4.766-3.447c0.751-0.652,1.498-1.326,2.132-2.034c0.323-0.361,1.209-0.957,1.176-1.381
			c-0.016-0.208-0.226-0.381-0.426-0.538c-0.655-0.515-1.33-1.02-1.967-1.545c-0.687-0.565-0.827-0.79,0.124-1.213
			c1.485-0.66,3.309-1.006,4.907-1.52c1.933-0.621,3.866-1.243,5.799-1.864c12.408-3.988,24.816-7.977,37.224-11.965
			c4.47-1.437,8.981-3.031,12.342-5.581c2.097-1.591,3.651-3.559,4.083-5.677c0.199-0.974,0.16-1.963,0.121-2.946
			c-0.142-3.588-0.358-6.665-1.777-10.148c-0.526-1.793-1.052-3.587-1.578-5.38c-0.25-0.853-1.248-2.509-0.976-3.351
			c1.273-3.941,8.332-3.118,12.572-3.259c3.417-0.113,6.668,0.1,10.072,0.101c0.396,0,0.807-0.002,1.167-0.116
			c0.754-0.241,1.014-0.872,1.171-1.429c0.86-3.049,1.269-6.25,0.915-9.352c-0.248-2.168,1.124-2.4,3.595-3.711L605.902,1.852
			c0,0-5.741,4.818-5.741,4.818c-2.349,0.153-4.697,0.305-7.046,0.458c-1.93,0.125-4.004,0.119-5.903,0.383
			C586.216,7.649,584.046,8.239,582.762,8.911z"/>
		<polyline style="fill:#BB94C4;" points="581.307,24.434 595.304,32.865 600.5,30.155 584.595,21.988 580.532,24.534 		"/>
		<polygon style="fill:#BB94C4;" points="599.002,7.535 586.13,22.777 588.722,24.108 606.288,3.922 		"/>
		<polygon style="fill:#BB94C4;" points="620.861,14.649 595.186,27.427 597.929,28.835 623.385,16.2 		"/>
		<path style="fill:#BB94C4;" d="M583.593,25.815c-0.215,0.161-0.417,0.346-0.613,0.485c-0.347,0.246-0.697,0.491-1.053,0.73
			c-1.462,0.984-3.015,1.802-4.774,2.521c-1.02,0.417-1.991,0.89-3.038,1.276c-1.07,0.394-2.227,0.651-3.323,1.017
			c-0.445,0.149-0.819,0.337-0.682,0.711c0.03,0.081,0.089,0.156,0.148,0.23c0.21,0.262,0.605,1.068,1.074,1.082
			c0.57,0.017,1.257-0.387,1.755-0.542c0.673-0.21,1.346-0.421,2.018-0.632c0.662-0.208,1.344-0.364,1.968-0.615
			c0.721-0.29,1.43-0.593,2.132-0.903c1.388-0.615,2.783-1.211,3.958-2.009c0.826-0.561,1.625-1.142,2.394-1.74
			c0.296-0.23,0.779-0.498,0.886-0.802c0.109-0.31,0.049-0.681-0.241-0.936c-0.445-0.389-1.622-0.389-2.192-0.131
			C583.864,25.624,583.726,25.715,583.593,25.815z"/>
		<path style="fill:#BB94C4;" d="M591.338,29.694c-0.07-0.047-0.135-0.073-0.192-0.07c-0.079,0.004-0.144,0.042-0.203,0.078
			c-2.525,1.579-5.805,3.472-6.238,5.948c-0.339,1.942-0.14,3.853,0.004,5.8c0.008,0.104,0.024,0.22,0.141,0.286
			c0.235,0.134,0.862-0.056,1.125-0.093c0.372-0.053,1.511-0.072,1.778-0.258c0.253-0.175,0.12-0.867,0.114-1.104
			c-0.011-0.382-0.053-0.763-0.098-1.144c-0.086-0.739-0.191-1.481-0.121-2.223c0.122-1.298,0.859-2.541,2.029-3.567
			c0.535-0.469,1.216-0.832,1.769-1.286c0.079-0.065,1.117-0.814,1.068-0.875C592.355,30.985,591.754,29.972,591.338,29.694z"/>
		<polygon style="fill:#BB94C4;" points="598.836,52.813 533.26,46.038 531.438,49.426 598.836,55.975 		"/>
		<polygon style="fill:#BB94C4;" points="520.592,70.992 537.648,82.17 534.253,83.751 517.859,72.121 		"/>
		<polygon style="fill:#BB94C4;" points="513.471,82.114 523.904,89.171 521.089,90.865 508.006,82.114 510.739,80.589 		"/>
		
			<line style="fill:none;stroke:#BB94C4;stroke-width:1.7017;stroke-miterlimit:10;" x1="521.028" y1="74.369" x2="511.866" y2="81.218"/>
		
			<line style="fill:none;stroke:#BB94C4;stroke-width:1.7017;stroke-miterlimit:10;" x1="524.595" y1="76.899" x2="514.879" y2="84.316"/>
		
			<line style="fill:none;stroke:#BB94C4;stroke-width:1.7017;stroke-miterlimit:10;" x1="528.762" y1="79.143" x2="519.046" y2="86.56"/>
		
			<line style="fill:none;stroke:#BB94C4;stroke-width:1.7017;stroke-miterlimit:10;" x1="532.612" y1="82.019" x2="522.896" y2="89.435"/>
	</g>
	<g>
		<path style="fill:none;stroke:#BB94C4;stroke-width:1.7017;stroke-miterlimit:10;" d="M306.917,118.239
			c0.104,0.24,0.305,0.452,0.633,0.626c1.247,0.659,4.078,0.891,5.603,1.242c1.742,0.401,3.484,0.805,5.249,1.159
			c5.422,1.087,10.845,2.173,16.267,3.26c13.967,2.799,27.933,5.598,41.9,8.398c14.04,2.814,28.081,5.628,42.121,8.442
			c9.208,1.845,18.415,3.691,27.623,5.536c1.262,0.253,2.525,0.507,3.787,0.759c0.32,0.064,2.148-2.695,2.276-2.885
			c1.587-2.365,2.718-4.889,3.21-7.471c1.049-5.494-1.03-12.465-8.05-15.845c-4.265-2.053-10.165-2.825-15.08-3.911
			c-13.911-3.075-27.823-6.15-41.734-9.226c-11.769-2.602-23.537-5.203-35.306-7.805c-7.456-1.645-15.332-3.1-23.25-2.479
			c-3.204,0.251-6.435,0.755-9.382,1.665c-3.405,1.051-5.161,2.347-7.024,4.509c-2.701,3.136-4.998,6.434-6.856,9.843
			C308.299,115.168,306.4,117.044,306.917,118.239z"/>
		<path style="fill:none;stroke:#BB94C4;stroke-width:1.7017;stroke-miterlimit:10;" d="M305.001,119.408
			c-0.536,0.344-0.794,0.915-1.045,1.485c-0.404,0.92-1.099,1.76-1.408,2.704c-0.359,1.099,0.037,1.451,1.628,1.85
			c3.374,0.848,6.948,1.347,10.43,2.022c7.019,1.361,14.038,2.722,21.057,4.084c8.836,1.714,17.672,3.427,26.508,5.141
			c9.388,1.821,18.776,3.641,28.164,5.462c8.675,1.682,17.349,3.365,26.024,5.047c6.696,1.299,13.393,2.597,20.089,3.896
			c2.389,0.463,4.767,0.94,7.086,1.544c1.201,0.313,3.759,1.007,4.458-0.163c0.519-0.868,0.664-1.787,1.084-2.668
			c0.341-0.717,0.682-1.433,1.022-2.15c-2.283-0.458-4.567-0.915-6.85-1.373c-5.972-1.197-11.944-2.394-17.916-3.591
			c-8.351-1.674-16.703-3.348-25.054-5.021c-9.421-1.888-18.843-3.777-28.264-5.665c-9.183-1.84-18.365-3.681-27.548-5.521
			c-7.634-1.53-15.269-3.06-22.903-4.59c-3.85-0.772-7.579-1.57-11.479-2.195c-1.269-0.203-2.277-0.555-3.631-0.616
			C305.808,119.06,305.347,119.187,305.001,119.408z"/>
		<path style="fill:none;stroke:#BB94C4;stroke-width:1.7017;stroke-miterlimit:10;" d="M320.313,130.272
			c-0.355,1.006-0.503,2.387-0.679,2.952c-0.866,2.773-1.61,5.563-2.468,8.337c-1.648,5.331-3.823,10.736-7.589,15.475
			c-2.657,3.345-6.004,6.477-10.239,8.975c-4.117,2.429-12.385,3.526-14.193,7.455c-1.865,4.053,3.471,7.362,8.191,8.971
			c0.641,0.219,1.299,0.414,1.961,0.603c6.819,1.947,14.008,3.358,21.072,4.822c10.391,2.153,20.838,4.178,31.298,6.168
			c10.603,2.017,21.224,3.988,31.856,5.931c8.322,1.521,16.697,2.937,24.939,4.636c4.599,0.948,10.547,0.552,15.228-0.088
			c3.72-0.509,8.941-1.642,9.436-4.682c0.231-1.419,0.141-3.361-2.394-3.826c-16.791-3.079-33.582-6.158-50.374-9.237
			c-5.723-1.049-11.445-2.099-17.168-3.148c-5.203-0.954-10.502-1.627-15.454-3.079c-8.285-2.43-11.303-10.031-9.297-15.661
			c2.212-6.208,4.478-12.414,7.204-18.529c1.865-4.182,3.699-8.371,5.486-12.57c-0.038-0.007-0.075-0.015-0.113-0.022
			c-7.84-1.52-15.802-3.581-23.802-4.616c-1.149-0.149-1.397-0.444-2.229,0.081C320.697,129.401,320.482,129.794,320.313,130.272z"
			/>
		
			<line style="fill:none;stroke:#BB94C4;stroke-width:1.7017;stroke-miterlimit:10;" x1="340.44" y1="179.346" x2="289.984" y2="169.95"/>
		
			<line style="fill:none;stroke:#BB94C4;stroke-width:1.7017;stroke-miterlimit:10;" x1="330.76" y1="139.08" x2="317.273" y2="174.648"/>
		<path style="fill:none;stroke:#BB94C4;stroke-width:1.7017;stroke-miterlimit:10;" d="M350.963,150.146l87.766,17.614
			c0,0-15.56,27.588-53.221,20.681C347.847,181.535,348.645,154.662,350.963,150.146z"/>
		
			<line style="fill:none;stroke:#BB94C4;stroke-width:1.7017;stroke-miterlimit:10;" x1="436.08" y1="171.508" x2="350.046" y2="154.662"/>
		<polyline style="fill:none;stroke:#BB94C4;stroke-width:1.7017;stroke-miterlimit:10;" points="390.361,142.16 390.361,148.264 
			407.045,150.146 407.045,145.396 		"/>
		<path style="fill:none;stroke:#BB94C4;stroke-width:1.2762;stroke-miterlimit:10;" d="M383.675,156.692
			c-0.334-0.354-0.357-0.801-0.344-1.222c0.057-1.86,1.295-3.466,2.836-4.966c0.978-0.951,2.369-2.114,4.195-2.241
			c1.516-0.106,3.096,0.107,4.574,0.317c2.713,0.385,5.411,0.862,8.124,1.273c0.78,0.118,1.599,0.218,2.324,0.439
			c1.736,0.53,2.675,2.015,3.09,3.223c0.284,0.826,0.469,1.67,0.527,2.518c0.049,0.727-0.009,1.512-0.272,2.219
			c-0.477,1.285-1.756,2.358-3.617,2.785"/>
		<path style="fill:none;stroke:#BB94C4;stroke-width:1.2762;stroke-miterlimit:10;" d="M394.471,148.883
			c-0.573-0.012-1.131,0.113-1.675,0.237c-0.186,0.042-0.374,0.085-0.55,0.144c-0.907,0.304-1.692,0.706-2.459,1.158
			c-2.749,1.618-3.787,4.334-2.958,6.723"/>
		<path style="fill:none;stroke:#BB94C4;stroke-width:1.2762;stroke-miterlimit:10;" d="M403.05,149.888
			c1.16,1.115,1.678,2.473,2.174,3.798c0.324,0.865,0.595,1.67,0.486,2.562c-0.11,0.91-0.38,1.812-0.802,2.678
			c-0.413,0.847-0.994,1.438-2.16,1.853"/>
		<path style="fill:none;stroke:#BB94C4;stroke-width:1.2762;stroke-miterlimit:10;" d="M400.417,149.405
			c0.682,1.058,1.21,2.163,1.575,3.292c0.428,1.325,0.674,2.689,0.382,4.048c-0.258,1.204-1.055,3.037-3.019,3.423"/>
		<path style="fill:none;stroke:#BB94C4;stroke-width:1.2762;stroke-miterlimit:10;" d="M395.672,149.014
			c-0.356,0.153-0.655,0.342-0.986,0.515c-2.005,1.045-3.802,2.391-4.781,3.995c-0.667,1.093-0.945,2.307-0.679,3.477
			c0.068,0.299,0.179,0.605,0.457,0.84"/>
		<path style="fill:none;stroke:#BB94C4;stroke-width:1.2762;stroke-miterlimit:10;" d="M398.154,149.537
			c-0.917,0.539-1.824,1.086-2.721,1.64c-0.928,0.573-1.802,1.091-2.485,1.82c-0.896,0.955-1.307,2.01-1.337,3.144
			c-0.012,0.447,0.068,0.902,0.299,1.323c0.219,0.398,0.35,0.807,0.584,1.206"/>
	</g>
	<g>
		<path style="fill:none;stroke:#BB94C4;stroke-width:5.105;stroke-miterlimit:10;" d="M122.505,34.832
			c0.845-0.358,2.01-0.505,3.666-0.344c8.876,0.865,17.664,2.096,26.423,3.388c5.377,0.793,10.737,1.682,15.915,2.962
			c2.285,0.565,4.51,0.745,5.171,2.4c0.672,1.682-0.328,3.684-0.617,5.362c-0.5,2.909-0.876,5.828-1.114,8.752
			c-0.571,7.014-0.451,14.143,1.375,21.073c2.012,7.637,6.437,15.899,17.241,19.583c0,0,14.573,4.968,14.573,4.968l-21.196,80.394
			c0,0,0,13.098-39.081,9.033c-39.081-4.065-93.397-12.195-93.397-12.195s-22.521-0.903-17.884-19.873s23.184-77.684,23.184-77.684
			s35.107,2.71,46.367-11.743c5.382-6.908,9.217-14.38,12.571-21.842c1.371-3.049,2.641-6.118,3.823-9.203
			C120.282,37.889,120.416,35.717,122.505,34.832z"/>
		<path style="fill:none;stroke:#BB94C4;stroke-width:5.105;stroke-miterlimit:10;" d="M170.083,40.476
			c0,0,15.184-23.764-10.649-29.183s-30.47,22.582-30.47,22.582"/>
		<path style="fill:none;stroke:#BB94C4;stroke-width:3.4033;stroke-miterlimit:10;" d="M56.763,82.653
			c-4.279-0.742-8.608-1.366-12.953-1.895c-7.213-0.879-15.697-2.223-22.591,0.034c-4.032,1.32-5.74,4.609-5.489,7.599
			c0.272,3.235,4.959,4.53,9.018,5.102c4.845,0.683,9.453,1.38,12.946,3.84c1.047,0.737,2.049,1.537,2.593,2.494
			c3.332,5.858-7.545,8.455-13.942,7.31c-2.35-0.421-4.551-1.247-6.897-1.63c-1.735-0.284-3.438-0.476-5.244-0.43
			c-6.846,0.172-11.063,5.659-11.957,9.683c-0.943,4.248,1.393,8.455,6.604,10.951"/>
		<path style="fill:none;stroke:#BB94C4;stroke-width:3.4033;stroke-miterlimit:10;" d="M205.138,102.977
			c4.857,0.748,9.715,1.496,14.572,2.244c3.777,0.582,7.554,1.163,11.332,1.745c8.353,1.286,22.559,6.673,14.411,13.831
			c-0.722,0.634-1.643,1.184-2.748,1.461c-1.347,0.338-2.839,0.244-4.251,0.068c-3.069-0.384-6.014-1.138-9.063-1.591
			c-2.876-0.428-6.897-0.844-9.797-0.471c-4.996,0.644-8.562,4.221-7.269,7.506c0.369,0.938,0.933,1.868,1.921,2.568
			c2.775,1.967,9.698,1.385,13.428,1.829c4.829,0.575,9.321,2.007,11.245,5.286c4.416,7.527,6.182,15.657-17.222,18.969"/>
		<path style="fill:#BB94C4;" d="M148.847,159.474c1.89-3.313,3.312-6.757,4.593-10.2c1.295-3.481,3.435-7.186-1.91-9.545
			c-0.838-0.37-1.761-0.639-2.68-0.904c-4.803-1.381-9.558-1.849-14.683-2.515c-10.984-1.432-21.968-2.865-32.952-4.297
			c-2.735-0.357-6.771-1.458-9.568-1.026c-2.715,0.42-3.053,2.376-3.774,3.968c-2.163,4.779-4.005,9.624-5.515,14.518
			c-1.123,3.637-2.02,7.57,0.236,10.954c5.098,7.648,20.817,10.474,31.735,11.854c5.609,0.709,12.237,1.31,17.895,0.608
			C140.837,171.82,146.001,164.464,148.847,159.474z"/>
		
			<ellipse style="fill:none;stroke:#BB94C4;stroke-width:1.7017;stroke-miterlimit:10;" cx="130.84" cy="102.199" rx="26.164" ry="17.84"/>
		
			<ellipse transform="matrix(0.9942 -0.1074 0.1074 0.9942 -10.2215 14.7494)" style="fill:none;" cx="131.762" cy="102.229" rx="16.879" ry="11.571"/>
		
			<text transform="matrix(-0.5722 -0.6455 0.9785 -0.4106 118.7708 110.6525)" style="fill:#874392;stroke:#874392;stroke-width:0.4254;stroke-miterlimit:10; font-family:'Comfortaa-Regular'; font-size:6.4863px;">H</text>
		
			<text transform="matrix(-0.2607 -0.7317 1.1235 -0.1708 115.9191 107.3443)" style="fill:#874392;stroke:#874392;stroke-width:0.4254;stroke-miterlimit:10; font-family:'Comfortaa-Regular'; font-size:6.4863px;">e</text>
		
			<text transform="matrix(0.0145 -0.7476 1.1583 0.0387 114.9027 104.6788)" style="fill:#874392;stroke:#874392;stroke-width:0.4254;stroke-miterlimit:10; font-family:'Comfortaa-Regular'; font-size:6.4863px;">a</text>
		
			<text transform="matrix(0.2059 -0.7291 1.1367 0.1834 115.0656 101.5759)" style="fill:#874392;stroke:#874392;stroke-width:0.4254;stroke-miterlimit:10; font-family:'Comfortaa-Regular'; font-size:6.4863px;">l</text>
		
			<text transform="matrix(0.3332 -0.7028 1.1007 0.2791 115.378 100.3438)" style="fill:#874392;stroke:#874392;stroke-width:0.4254;stroke-miterlimit:10; font-family:'Comfortaa-Regular'; font-size:6.4863px;">t</text>
		
			<text transform="matrix(0.5156 -0.6429 1.0147 0.4154 116.0667 98.6465)" style="fill:#874392;stroke:#874392;stroke-width:0.4254;stroke-miterlimit:10; font-family:'Comfortaa-Regular'; font-size:6.4863px;">h</text>
		
			<text transform="matrix(0.6955 -0.5514 0.8797 0.5486 118.231 95.9816)" style="fill:#874392;stroke:#874392;stroke-width:0.4254;stroke-miterlimit:10; font-family:'Comfortaa-Regular'; font-size:6.4863px;">y</text>
		
			<text transform="matrix(0.7985 -0.4781 0.7701 0.6241 120.612 94.1453)" style="fill:#874392;stroke:#874392;stroke-width:0.4254;stroke-miterlimit:10; font-family:'Comfortaa-Regular'; font-size:6.4863px;"> </text>
		
			<text transform="matrix(0.8951 -0.3874 0.6331 0.6941 121.908 93.2717)" style="fill:#874392;stroke:#874392;stroke-width:0.4254;stroke-miterlimit:10; font-family:'Comfortaa-Regular'; font-size:6.4863px;">F</text>
		
			<text transform="matrix(1.0007 -0.2389 0.4071 0.7688 125.2639 91.7743)" style="fill:#874392;stroke:#874392;stroke-width:0.4254;stroke-miterlimit:10; font-family:'Comfortaa-Regular'; font-size:6.4863px;">o</text>
		
			<text transform="matrix(1.0614 -0.0626 0.1364 0.8083 129.37 90.7632)" style="fill:#874392;stroke:#874392;stroke-width:0.4254;stroke-miterlimit:10; font-family:'Comfortaa-Regular'; font-size:6.4863px;">o</text>
		
			<text transform="matrix(1.0574 0.1347 -0.1694 0.7979 133.6952 90.4608)" style="fill:#874392;stroke:#874392;stroke-width:0.4254;stroke-miterlimit:10; font-family:'Comfortaa-Regular'; font-size:6.4863px;">d</text>
		
			<text transform="matrix(1.0024 0.2837 -0.4021 0.7507 138.2558 91.1249)" style="fill:#874392;stroke:#874392;stroke-width:0.4254;stroke-miterlimit:10; font-family:'Comfortaa-Regular'; font-size:6.4863px;"> </text>
		
			<text transform="matrix(0.9002 0.4249 -0.6246 0.6678 139.9614 91.471)" style="fill:#874392;stroke:#874392;stroke-width:0.4254;stroke-miterlimit:10; font-family:'Comfortaa-Regular'; font-size:6.4863px;">B</text>
		
			<text transform="matrix(0.7082 0.5773 -0.8677 0.5163 143.7053 93.2571)" style="fill:#874392;stroke:#874392;stroke-width:0.4254;stroke-miterlimit:10; font-family:'Comfortaa-Regular'; font-size:6.4863px;">y</text>
		
			<text transform="matrix(0.5468 0.6559 -0.9954 0.3909 146.0031 95.1915)" style="fill:#874392;stroke:#874392;stroke-width:0.4254;stroke-miterlimit:10; font-family:'Comfortaa-Regular'; font-size:6.4863px;"> </text>
		
			<text transform="matrix(0.3348 0.7184 -1.1001 0.2276 147.0665 96.223)" style="fill:#874392;stroke:#874392;stroke-width:0.4254;stroke-miterlimit:10; font-family:'Comfortaa-Regular'; font-size:6.4863px;">B</text>
		
			<text transform="matrix(0.0538 0.7484 -1.157 0.0131 148.4605 99.202)" style="fill:#874392;stroke:#874392;stroke-width:0.4254;stroke-miterlimit:10; font-family:'Comfortaa-Regular'; font-size:6.4863px;">e</text>
		
			<text transform="matrix(-0.1319 0.7392 -1.1496 -0.1276 148.5792 102.0383)" style="fill:#874392;stroke:#874392;stroke-width:0.4254;stroke-miterlimit:10; font-family:'Comfortaa-Regular'; font-size:6.4863px;">l</text>
		
			<text transform="matrix(-0.2939 0.7122 -1.1138 -0.2496 148.4565 103.2482)" style="fill:#874392;stroke:#874392;stroke-width:0.4254;stroke-miterlimit:10; font-family:'Comfortaa-Regular'; font-size:6.4863px;">k</text>
		
			<text transform="matrix(-0.4459 0.6691 -1.0528 -0.3635 147.3612 105.749)" style="fill:#874392;stroke:#874392;stroke-width:0.4254;stroke-miterlimit:10; font-family:'Comfortaa-Regular'; font-size:6.4863px;">i</text>
		
			<text transform="matrix(-0.5775 0.6156 -0.9748 -0.4614 146.6701 106.9099)" style="fill:#874392;stroke:#874392;stroke-width:0.4254;stroke-miterlimit:10; font-family:'Comfortaa-Regular'; font-size:6.4863px;">s</text>
		
			<text transform="matrix(-0.6955 0.5514 -0.8797 -0.5486 144.7143 108.9344)" style="fill:#874392;stroke:#874392;stroke-width:0.4254;stroke-miterlimit:10; font-family:'Comfortaa-Regular'; font-size:6.4863px;"> </text>
	</g>
	<g>
		
			<ellipse style="fill:none;stroke:#BB94C4;stroke-width:3.4033;stroke-miterlimit:10;" cx="588.061" cy="162.245" rx="51.335" ry="35.003"/>
		
			<ellipse style="fill:none;stroke:#BB94C4;stroke-width:3.4033;stroke-miterlimit:10;" cx="585.558" cy="161.04" rx="15.566" ry="10.614"/>
		<path style="fill:none;stroke:#BB94C4;stroke-width:1.7017;stroke-miterlimit:10;" d="M624.109,185.896
			c-1.41-1.16-2.565-2.333-4.464-3.19c-1.417-0.64-3.02-1.056-4.609-1.467c-0.761-0.197-1.537-0.396-2.35-0.432
			c-4.354-0.191-7.627,2.125-9.32,4.633c-0.538,0.798-0.92,1.656-1.681,2.365c-1.174,1.093-3.157,1.698-5.138,1.798
			c-0.83,0.042-1.679,0.002-2.463-0.188c-4.68-1.132-3.349-5.145-6.657-7.005c-1.034-0.581-2.398-0.835-3.737-0.864
			c-2.315-0.05-4.646,0.553-6.329,1.637c-3.221,2.075-4.606,6.468-9.875,4.379c-3.304-1.31-4.423-3.493-6.157-5.728
			c-0.806-1.039-1.635-2.099-2.891-2.905c-1.96-1.258-4.83-1.753-7.494-1.49c-2.029,0.2-10.347,2.664-5.56,4.261"/>
		
			<line style="fill:none;stroke:#BB94C4;stroke-width:1.7017;stroke-miterlimit:10;" x1="579.082" y1="142.297" x2="582.237" y2="147.265"/>
		
			<line style="fill:none;stroke:#BB94C4;stroke-width:1.7017;stroke-miterlimit:10;" x1="590.674" y1="139.587" x2="590.011" y2="133.038"/>
		
			<line style="fill:none;stroke:#BB94C4;stroke-width:1.7017;stroke-miterlimit:10;" x1="593.985" y1="144.781" x2="601.125" y2="141.62"/>
		
			<line style="fill:none;stroke:#BB94C4;stroke-width:1.7017;stroke-miterlimit:10;" x1="609.22" y1="136.313" x2="612.532" y2="143.2"/>
		
			<line style="fill:none;stroke:#BB94C4;stroke-width:1.7017;stroke-miterlimit:10;" x1="610.876" y1="148.846" x2="610.876" y2="154.266"/>
		
			<line style="fill:none;stroke:#BB94C4;stroke-width:1.7017;stroke-miterlimit:10;" x1="622.137" y1="166.234" x2="627.436" y2="170.073"/>
		
			<line style="fill:none;stroke:#BB94C4;stroke-width:1.7017;stroke-miterlimit:10;" x1="624.786" y1="148.846" x2="624.786" y2="156.524"/>
		
			<line style="fill:none;stroke:#BB94C4;stroke-width:1.7017;stroke-miterlimit:10;" x1="616.175" y1="162.245" x2="607.896" y2="162.245"/>
		
			<line style="fill:none;stroke:#BB94C4;stroke-width:1.7017;stroke-miterlimit:10;" x1="616.175" y1="171.654" x2="605.246" y2="171.654"/>
		
			<line style="fill:none;stroke:#BB94C4;stroke-width:1.7017;stroke-miterlimit:10;" x1="597.555" y1="174.59" x2="597.555" y2="180.687"/>
		
			<line style="fill:none;stroke:#BB94C4;stroke-width:1.7017;stroke-miterlimit:10;" x1="561.86" y1="169.17" x2="551.261" y2="169.17"/>
		
			<line style="fill:none;stroke:#BB94C4;stroke-width:1.7017;stroke-miterlimit:10;" x1="551.261" y1="162.245" x2="542.319" y2="166.009"/>
		
			<line style="fill:none;stroke:#BB94C4;stroke-width:1.7017;stroke-miterlimit:10;" x1="551.261" y1="156.524" x2="546.79" y2="152.685"/>
		
			<line style="fill:none;stroke:#BB94C4;stroke-width:1.7017;stroke-miterlimit:10;" x1="561.86" y1="147.943" x2="561.86" y2="154.604"/>
		
			<line style="fill:none;stroke:#BB94C4;stroke-width:1.7017;stroke-miterlimit:10;" x1="561.86" y1="141.62" x2="551.261" y2="141.62"/>
		
			<line style="fill:none;stroke:#BB94C4;stroke-width:1.7017;stroke-miterlimit:10;" x1="569.992" y1="138.684" x2="576.432" y2="133.716"/>
		
			<line style="fill:none;stroke:#BB94C4;stroke-width:1.7017;stroke-miterlimit:10;" x1="568.484" y1="173.461" x2="568.484" y2="178.655"/>
	</g>
	<g>
		<path style="fill:none;stroke:#BB94C4;stroke-width:1.7017;stroke-miterlimit:10;" d="M351.786,27.574l16.531,22.808
			c0,0,3.12,4.304,3.12,4.304c-16.933,10.982-43.139,18.643-64.812,9.614c-6.463-2.693-16.926-8.103-14.462-14.107
			c2.06-5.019,10.495-6.929,16.731-8.996c6.816-2.259,13.939-4.052,20.758-6.306C337.03,32.452,344.408,30.013,351.786,27.574z"/>
		<path style="fill:none;stroke:#BB94C4;stroke-width:1.7017;stroke-miterlimit:10;" d="M379.082,41.949
			c4.906-1.772,10.193-3.196,15.241-4.762c9.158-2.841,18.317-5.681,27.475-8.522c3.087-0.968,6.186-1.919,9.279-2.878
			c4.557-1.413,8.802-3.376,8.973-7.101c0.107-2.337-2.415-4.218-5.482-5.029c-3.485-0.921-6.552-0.883-9.873,0.408
			c-12.761,4.96-25.512,9.977-38.338,14.881c-3.293,1.259-6.586,2.518-9.879,3.777c-1.09,0.417-2.179,0.833-3.269,1.25
			c-1.306,0.5-2.281,0.531-1.56,1.569c0.561,0.808,1.23,1.587,1.831,2.382c1.205,1.594,2.369,3.203,3.421,4.847
			C377.618,42.489,378.346,42.215,379.082,41.949z"/>
		<path style="fill:none;stroke:#BB94C4;stroke-width:1.7017;stroke-miterlimit:10;" d="M356.217,37.653
			c-1.81,0.434-3.661,1.209-5.309,1.747c-3.961,1.292-7.848,2.684-11.741,4.068c-0.9,0.32-1.802,0.641-2.647,1.025
			c-4.098,1.863-8.023,5.394-5.271,8.827c2.65,3.307,8.404,2.344,12.69,1.204c1.784-0.474,22.215-7.13,22.328-6.974
			c-2.069-2.855-4.139-5.71-6.208-8.565c-0.801-1.105-0.872-1.842-2.786-1.544C356.923,37.497,356.571,37.569,356.217,37.653z"/>
		<path style="fill:none;stroke:#BB94C4;stroke-width:1.7017;stroke-miterlimit:10;" d="M367.137,49.483
			c2.076,0.141,4.287,0.162,6.108-0.532c8.497-3.239-0.008-11.033-3.472-14.481c-1.982-1.973-3.7-3.68-7.576-2.941
			c-2.095,0.399-3.943,1.369-5.044,2.648"/>
		
			<line style="fill:none;stroke:#BB94C4;stroke-width:1.7017;stroke-miterlimit:10;" x1="367.287" y1="32.953" x2="358.501" y2="35.702"/>
		
			<line style="fill:none;stroke:#BB94C4;stroke-width:1.7017;stroke-miterlimit:10;" x1="369.654" y1="35.111" x2="360.545" y2="38.362"/>
		
			<line style="fill:none;stroke:#BB94C4;stroke-width:1.7017;stroke-miterlimit:10;" x1="371.501" y1="37.291" x2="361.9" y2="40.766"/>
		
			<line style="fill:none;stroke:#BB94C4;stroke-width:1.7017;stroke-miterlimit:10;" x1="373.427" y1="39.371" x2="363.426" y2="42.955"/>
		
			<line style="fill:none;stroke:#BB94C4;stroke-width:1.7017;stroke-miterlimit:10;" x1="374.807" y1="41.507" x2="365.378" y2="45.003"/>
		
			<line style="fill:none;stroke:#BB94C4;stroke-width:1.7017;stroke-miterlimit:10;" x1="376.204" y1="43.937" x2="367.12" y2="47.315"/>
	</g>
</g>
<g>
	<g>
		<path style="fill:none;stroke:#BB94C4;stroke-width:3.4033;stroke-miterlimit:10;" d="M1234.408,8.911
			c-0.439,0.23-0.775,0.47-0.925,0.704c-0.596,0.933,0.616,3.573,0.796,4.712c0.405,2.563,2.409,7.239-0.287,9.456
			c-2.293,1.886-8.291,1.272-11.443,1.269c-3.45-0.004-6.89-0.284-10.335-0.383c-6.328-0.183-14.339-0.078-18.075,4.064
			c-4.981,5.523-7.692,11.418-10.682,17.524c-2.089,4.265-4.177,8.53-6.265,12.795c-1.987,4.058-3.201,8.269-5.022,12.386
			c-0.108,0.244-0.313,0.539-0.688,0.533c-0.31-0.005-2.304-1.282-2.391-1.206c0,0-10.46,9.071-10.46,9.071l4.416,2.71
			c0,0-15.897,9.334-7.507,13.549c8.39,4.215,18.988-6.022,18.988-6.022c1.795,0.653,3.659,1.441,5.291,2.278
			c0.061,0.031,0.13,0.065,0.206,0.06c0.081-0.005,0.143-0.051,0.195-0.093c0.279-0.226,0.557-0.37,0.877-0.561
			c1.745-1.042,3.335-2.203,4.766-3.447c0.751-0.652,1.498-1.326,2.132-2.034c0.323-0.361,1.209-0.957,1.176-1.381
			c-0.016-0.208-0.226-0.381-0.426-0.538c-0.655-0.515-1.33-1.02-1.967-1.545c-0.687-0.565-0.827-0.79,0.124-1.213
			c1.485-0.66,3.309-1.006,4.907-1.52c1.933-0.621,3.866-1.243,5.799-1.864c12.408-3.988,24.816-7.977,37.224-11.965
			c4.47-1.437,8.981-3.031,12.342-5.581c2.097-1.591,3.651-3.559,4.083-5.677c0.198-0.974,0.16-1.963,0.121-2.946
			c-0.142-3.588-0.358-6.665-1.777-10.148c-0.526-1.793-1.052-3.587-1.578-5.38c-0.25-0.853-1.248-2.509-0.976-3.351
			c1.273-3.941,8.332-3.118,12.572-3.259c3.417-0.113,6.668,0.1,10.072,0.101c0.396,0,0.807-0.002,1.166-0.116
			c0.754-0.241,1.014-0.872,1.171-1.429c0.86-3.049,1.269-6.25,0.915-9.352c-0.248-2.168,1.124-2.4,3.595-3.711l-18.988-13.549
			c0,0-5.741,4.818-5.741,4.818c-2.349,0.153-4.697,0.305-7.046,0.458c-1.93,0.125-4.004,0.119-5.903,0.383
			C1237.862,7.649,1235.693,8.239,1234.408,8.911z"/>
		<polyline style="fill:#BB94C4;" points="1232.953,24.434 1246.95,32.865 1252.146,30.155 1236.241,21.988 1232.178,24.534 		"/>
		<polygon style="fill:#BB94C4;" points="1250.648,7.535 1237.776,22.777 1240.369,24.108 1257.934,3.922 		"/>
		<polygon style="fill:#BB94C4;" points="1272.507,14.649 1246.832,27.427 1249.575,28.835 1275.031,16.2 		"/>
		<path style="fill:#BB94C4;" d="M1235.239,25.815c-0.215,0.161-0.417,0.346-0.613,0.485c-0.347,0.246-0.697,0.491-1.053,0.73
			c-1.462,0.984-3.015,1.802-4.774,2.521c-1.02,0.417-1.99,0.89-3.038,1.276c-1.07,0.394-2.227,0.651-3.323,1.017
			c-0.445,0.149-0.819,0.337-0.682,0.711c0.03,0.081,0.089,0.156,0.148,0.23c0.21,0.262,0.605,1.068,1.074,1.082
			c0.57,0.017,1.257-0.387,1.755-0.542c0.673-0.21,1.346-0.421,2.018-0.632c0.662-0.208,1.344-0.364,1.968-0.615
			c0.721-0.29,1.43-0.593,2.132-0.903c1.388-0.615,2.783-1.211,3.958-2.009c0.827-0.561,1.625-1.142,2.394-1.74
			c0.296-0.23,0.779-0.498,0.886-0.802c0.109-0.31,0.049-0.681-0.241-0.936c-0.445-0.389-1.621-0.389-2.192-0.131
			C1235.51,25.624,1235.372,25.715,1235.239,25.815z"/>
		<path style="fill:#BB94C4;" d="M1242.984,29.694c-0.07-0.047-0.135-0.073-0.192-0.07c-0.079,0.004-0.144,0.042-0.203,0.078
			c-2.525,1.579-5.806,3.472-6.238,5.948c-0.339,1.942-0.14,3.853,0.004,5.8c0.008,0.104,0.024,0.22,0.141,0.286
			c0.235,0.134,0.862-0.056,1.125-0.093c0.372-0.053,1.511-0.072,1.778-0.258c0.253-0.175,0.12-0.867,0.114-1.104
			c-0.01-0.382-0.053-0.763-0.098-1.144c-0.086-0.739-0.191-1.481-0.121-2.223c0.123-1.298,0.859-2.541,2.029-3.567
			c0.535-0.469,1.216-0.832,1.769-1.286c0.079-0.065,1.117-0.814,1.068-0.875C1244.001,30.985,1243.4,29.972,1242.984,29.694z"/>
		<polygon style="fill:#BB94C4;" points="1250.482,52.813 1184.906,46.038 1183.084,49.426 1250.482,55.975 		"/>
		<polygon style="fill:#BB94C4;" points="1172.238,70.992 1189.294,82.17 1185.9,83.751 1169.505,72.121 		"/>
		<polygon style="fill:#BB94C4;" points="1165.117,82.114 1175.55,89.171 1172.735,90.865 1159.652,82.114 1162.385,80.589 		"/>
		
			<line style="fill:none;stroke:#BB94C4;stroke-width:1.7017;stroke-miterlimit:10;" x1="1172.674" y1="74.369" x2="1163.512" y2="81.218"/>
		
			<line style="fill:none;stroke:#BB94C4;stroke-width:1.7017;stroke-miterlimit:10;" x1="1176.241" y1="76.899" x2="1166.525" y2="84.316"/>
		
			<line style="fill:none;stroke:#BB94C4;stroke-width:1.7017;stroke-miterlimit:10;" x1="1180.408" y1="79.143" x2="1170.692" y2="86.56"/>
		
			<line style="fill:none;stroke:#BB94C4;stroke-width:1.7017;stroke-miterlimit:10;" x1="1184.258" y1="82.019" x2="1174.542" y2="89.435"/>
	</g>
	<g>
		<path style="fill:none;stroke:#BB94C4;stroke-width:1.7017;stroke-miterlimit:10;" d="M958.564,118.239
			c0.104,0.24,0.305,0.452,0.633,0.626c1.247,0.659,4.078,0.891,5.603,1.242c1.742,0.401,3.484,0.805,5.249,1.159
			c5.422,1.087,10.845,2.173,16.267,3.26c13.967,2.799,27.933,5.598,41.9,8.398c14.04,2.814,28.081,5.628,42.121,8.442
			c9.208,1.845,18.415,3.691,27.623,5.536c1.262,0.253,2.525,0.507,3.787,0.759c0.32,0.064,2.148-2.695,2.276-2.885
			c1.587-2.365,2.718-4.889,3.21-7.471c1.049-5.494-1.03-12.465-8.05-15.845c-4.265-2.053-10.165-2.825-15.08-3.911
			c-13.911-3.075-27.823-6.15-41.734-9.226c-11.769-2.602-23.537-5.203-35.306-7.805c-7.456-1.645-15.332-3.1-23.25-2.479
			c-3.204,0.251-6.435,0.755-9.382,1.665c-3.405,1.051-5.161,2.347-7.024,4.509c-2.701,3.136-4.998,6.434-6.856,9.843
			C959.945,115.168,958.046,117.044,958.564,118.239z"/>
		<path style="fill:none;stroke:#BB94C4;stroke-width:1.7017;stroke-miterlimit:10;" d="M956.647,119.408
			c-0.536,0.344-0.794,0.915-1.045,1.485c-0.404,0.92-1.099,1.76-1.408,2.704c-0.359,1.099,0.037,1.451,1.628,1.85
			c3.374,0.848,6.948,1.347,10.43,2.022c7.019,1.361,14.038,2.722,21.057,4.084c8.836,1.714,17.672,3.427,26.508,5.141
			c9.388,1.821,18.776,3.641,28.164,5.462c8.675,1.682,17.349,3.365,26.024,5.047c6.696,1.299,13.393,2.597,20.089,3.896
			c2.389,0.463,4.767,0.94,7.086,1.544c1.201,0.313,3.759,1.007,4.458-0.163c0.519-0.868,0.664-1.787,1.084-2.668
			c0.341-0.717,0.682-1.433,1.022-2.15c-2.283-0.458-4.567-0.915-6.85-1.373c-5.972-1.197-11.944-2.394-17.916-3.591
			c-8.351-1.674-16.703-3.348-25.054-5.021c-9.422-1.888-18.843-3.777-28.264-5.665c-9.182-1.84-18.365-3.681-27.547-5.521
			c-7.634-1.53-15.269-3.06-22.903-4.59c-3.85-0.772-7.579-1.57-11.479-2.195c-1.269-0.203-2.277-0.555-3.631-0.616
			C957.454,119.06,956.993,119.187,956.647,119.408z"/>
		<path style="fill:none;stroke:#BB94C4;stroke-width:1.7017;stroke-miterlimit:10;" d="M971.959,130.272
			c-0.355,1.006-0.503,2.387-0.679,2.952c-0.866,2.773-1.61,5.563-2.468,8.337c-1.648,5.331-3.823,10.736-7.589,15.475
			c-2.657,3.345-6.004,6.477-10.239,8.975c-4.117,2.429-12.385,3.526-14.193,7.455c-1.865,4.053,3.471,7.362,8.191,8.971
			c0.641,0.219,1.299,0.414,1.961,0.603c6.819,1.947,14.008,3.358,21.072,4.822c10.391,2.153,20.838,4.178,31.298,6.168
			c10.603,2.017,21.224,3.988,31.856,5.931c8.322,1.521,16.697,2.937,24.939,4.636c4.599,0.948,10.547,0.552,15.228-0.088
			c3.72-0.509,8.941-1.642,9.436-4.682c0.231-1.419,0.141-3.361-2.394-3.826c-16.791-3.079-33.582-6.158-50.374-9.237
			c-5.723-1.049-11.445-2.099-17.168-3.148c-5.203-0.954-10.502-1.627-15.454-3.079c-8.285-2.43-11.303-10.031-9.297-15.661
			c2.212-6.208,4.478-12.414,7.204-18.529c1.865-4.182,3.699-8.371,5.486-12.57c-0.038-0.007-0.075-0.015-0.113-0.022
			c-7.84-1.52-15.802-3.581-23.802-4.616c-1.149-0.149-1.397-0.444-2.229,0.081C972.343,129.401,972.128,129.794,971.959,130.272z"
			/>
		
			<line style="fill:none;stroke:#BB94C4;stroke-width:1.7017;stroke-miterlimit:10;" x1="992.086" y1="179.346" x2="941.63" y2="169.95"/>
		
			<line style="fill:none;stroke:#BB94C4;stroke-width:1.7017;stroke-miterlimit:10;" x1="982.406" y1="139.08" x2="968.919" y2="174.648"/>
		<path style="fill:none;stroke:#BB94C4;stroke-width:1.7017;stroke-miterlimit:10;" d="M1002.609,150.146l87.766,17.614
			c0,0-15.56,27.588-53.221,20.681C999.493,181.535,1000.291,154.662,1002.609,150.146z"/>
		
			<line style="fill:none;stroke:#BB94C4;stroke-width:1.7017;stroke-miterlimit:10;" x1="1087.726" y1="171.508" x2="1001.692" y2="154.662"/>
		<polyline style="fill:none;stroke:#BB94C4;stroke-width:1.7017;stroke-miterlimit:10;" points="1042.008,142.16 1042.008,148.264 
			1058.691,150.146 1058.691,145.396 		"/>
		<path style="fill:none;stroke:#BB94C4;stroke-width:1.2762;stroke-miterlimit:10;" d="M1035.321,156.692
			c-0.334-0.354-0.357-0.801-0.344-1.222c0.057-1.86,1.295-3.466,2.836-4.966c0.978-0.951,2.369-2.114,4.195-2.241
			c1.516-0.106,3.096,0.107,4.574,0.317c2.713,0.385,5.411,0.862,8.124,1.273c0.78,0.118,1.599,0.218,2.324,0.439
			c1.736,0.53,2.674,2.015,3.09,3.223c0.284,0.826,0.469,1.67,0.527,2.518c0.049,0.727-0.009,1.512-0.272,2.219
			c-0.477,1.285-1.756,2.358-3.617,2.785"/>
		<path style="fill:none;stroke:#BB94C4;stroke-width:1.2762;stroke-miterlimit:10;" d="M1046.117,148.883
			c-0.573-0.012-1.131,0.113-1.675,0.237c-0.187,0.042-0.374,0.085-0.55,0.144c-0.907,0.304-1.692,0.706-2.459,1.158
			c-2.749,1.618-3.787,4.334-2.958,6.723"/>
		<path style="fill:none;stroke:#BB94C4;stroke-width:1.2762;stroke-miterlimit:10;" d="M1054.697,149.888
			c1.16,1.115,1.678,2.473,2.174,3.798c0.324,0.865,0.595,1.67,0.486,2.562c-0.11,0.91-0.38,1.812-0.802,2.678
			c-0.413,0.847-0.994,1.438-2.16,1.853"/>
		<path style="fill:none;stroke:#BB94C4;stroke-width:1.2762;stroke-miterlimit:10;" d="M1052.063,149.405
			c0.682,1.058,1.21,2.163,1.575,3.292c0.428,1.325,0.674,2.689,0.382,4.048c-0.258,1.204-1.055,3.037-3.019,3.423"/>
		<path style="fill:none;stroke:#BB94C4;stroke-width:1.2762;stroke-miterlimit:10;" d="M1047.318,149.014
			c-0.356,0.153-0.655,0.342-0.986,0.515c-2.005,1.045-3.802,2.391-4.781,3.995c-0.667,1.093-0.945,2.307-0.679,3.477
			c0.068,0.299,0.179,0.605,0.457,0.84"/>
		<path style="fill:none;stroke:#BB94C4;stroke-width:1.2762;stroke-miterlimit:10;" d="M1049.8,149.537
			c-0.917,0.539-1.824,1.086-2.721,1.64c-0.928,0.573-1.802,1.091-2.485,1.82c-0.896,0.955-1.307,2.01-1.337,3.144
			c-0.012,0.447,0.068,0.902,0.299,1.323c0.219,0.398,0.35,0.807,0.584,1.206"/>
	</g>
	<g>
		<path style="fill:none;stroke:#BB94C4;stroke-width:5.105;stroke-miterlimit:10;" d="M774.151,34.832
			c0.845-0.358,2.01-0.505,3.666-0.344c8.876,0.865,17.664,2.096,26.423,3.388c5.377,0.793,10.737,1.682,15.915,2.962
			c2.285,0.565,4.51,0.745,5.171,2.4c0.672,1.682-0.328,3.684-0.617,5.362c-0.5,2.909-0.876,5.828-1.114,8.752
			c-0.571,7.014-0.451,14.143,1.375,21.073c2.012,7.637,6.437,15.899,17.241,19.583c0,0,14.573,4.968,14.573,4.968l-21.196,80.394
			c0,0,0,13.098-39.081,9.033c-39.081-4.065-93.397-12.195-93.397-12.195s-22.521-0.903-17.884-19.873s23.184-77.684,23.184-77.684
			s35.107,2.71,46.367-11.743c5.382-6.908,9.217-14.38,12.571-21.842c1.371-3.049,2.641-6.118,3.823-9.203
			C771.928,37.889,772.062,35.717,774.151,34.832z"/>
		<path style="fill:none;stroke:#BB94C4;stroke-width:5.105;stroke-miterlimit:10;" d="M821.729,40.476
			c0,0,15.184-23.764-10.649-29.183c-25.833-5.42-30.47,22.582-30.47,22.582"/>
		<path style="fill:none;stroke:#BB94C4;stroke-width:3.4033;stroke-miterlimit:10;" d="M708.41,82.653
			c-4.279-0.742-8.608-1.366-12.953-1.895c-7.213-0.879-15.697-2.223-22.591,0.034c-4.032,1.32-5.74,4.609-5.489,7.599
			c0.272,3.235,4.959,4.53,9.018,5.102c4.845,0.683,9.453,1.38,12.946,3.84c1.047,0.737,2.049,1.537,2.593,2.494
			c3.332,5.858-7.545,8.455-13.942,7.31c-2.35-0.421-4.551-1.247-6.897-1.63c-1.735-0.284-3.438-0.476-5.244-0.43
			c-6.846,0.172-11.063,5.659-11.957,9.683c-0.943,4.248,1.393,8.455,6.604,10.951"/>
		<path style="fill:none;stroke:#BB94C4;stroke-width:3.4033;stroke-miterlimit:10;" d="M856.784,102.977
			c4.857,0.748,9.714,1.496,14.572,2.244c3.777,0.582,7.554,1.163,11.332,1.745c8.353,1.286,22.559,6.673,14.411,13.831
			c-0.722,0.634-1.643,1.184-2.748,1.461c-1.347,0.338-2.839,0.244-4.251,0.068c-3.069-0.384-6.014-1.138-9.063-1.591
			c-2.876-0.428-6.897-0.844-9.797-0.471c-4.996,0.644-8.562,4.221-7.269,7.506c0.369,0.938,0.933,1.868,1.921,2.568
			c2.775,1.967,9.698,1.385,13.428,1.829c4.829,0.575,9.321,2.007,11.245,5.286c4.416,7.527,6.182,15.657-17.222,18.969"/>
		<path style="fill:#BB94C4;" d="M800.493,159.474c1.89-3.313,3.312-6.757,4.593-10.2c1.295-3.481,3.435-7.186-1.91-9.545
			c-0.838-0.37-1.761-0.639-2.68-0.904c-4.803-1.381-9.558-1.849-14.683-2.515c-10.984-1.432-21.968-2.865-32.952-4.297
			c-2.735-0.357-6.771-1.458-9.568-1.026c-2.715,0.42-3.053,2.376-3.774,3.968c-2.163,4.779-4.005,9.624-5.515,14.518
			c-1.123,3.637-2.02,7.57,0.236,10.954c5.098,7.648,20.817,10.474,31.735,11.854c5.609,0.709,12.237,1.31,17.895,0.608
			C792.483,171.82,797.647,164.464,800.493,159.474z"/>
		
			<ellipse style="fill:none;stroke:#BB94C4;stroke-width:1.7017;stroke-miterlimit:10;" cx="782.487" cy="102.199" rx="26.164" ry="17.84"/>
		
			<ellipse transform="matrix(0.9942 -0.1074 0.1074 0.9942 -6.4489 84.7674)" style="fill:none;" cx="783.408" cy="102.229" rx="16.879" ry="11.571"/>
		
			<text transform="matrix(-0.5722 -0.6455 0.9784 -0.4106 770.4173 110.6541)" style="fill:#874392;stroke:#874392;stroke-width:0.4254;stroke-miterlimit:10; font-family:'Comfortaa-Regular'; font-size:6.4863px;">H</text>
		
			<text transform="matrix(-0.2606 -0.7317 1.1235 -0.1707 767.5654 107.3461)" style="fill:#874392;stroke:#874392;stroke-width:0.4254;stroke-miterlimit:10; font-family:'Comfortaa-Regular'; font-size:6.4863px;">e</text>
		
			<text transform="matrix(0.0145 -0.7476 1.1583 0.0387 766.55 104.6811)" style="fill:#874392;stroke:#874392;stroke-width:0.4254;stroke-miterlimit:10; font-family:'Comfortaa-Regular'; font-size:6.4863px;">a</text>
		
			<text transform="matrix(0.2059 -0.7291 1.1367 0.1834 766.7129 101.5781)" style="fill:#874392;stroke:#874392;stroke-width:0.4254;stroke-miterlimit:10; font-family:'Comfortaa-Regular'; font-size:6.4863px;">l</text>
		
			<text transform="matrix(0.3332 -0.7028 1.1007 0.2791 767.0253 100.3461)" style="fill:#874392;stroke:#874392;stroke-width:0.4254;stroke-miterlimit:10; font-family:'Comfortaa-Regular'; font-size:6.4863px;">t</text>
		
			<text transform="matrix(0.5157 -0.6428 1.0147 0.4155 767.7139 98.6487)" style="fill:#874392;stroke:#874392;stroke-width:0.4254;stroke-miterlimit:10; font-family:'Comfortaa-Regular'; font-size:6.4863px;">h</text>
		
			<text transform="matrix(0.6957 -0.5512 0.8795 0.5487 769.8782 95.9839)" style="fill:#874392;stroke:#874392;stroke-width:0.4254;stroke-miterlimit:10; font-family:'Comfortaa-Regular'; font-size:6.4863px;">y</text>
		
			<text transform="matrix(0.7985 -0.4781 0.7701 0.6241 772.2603 94.148)" style="fill:#874392;stroke:#874392;stroke-width:0.4254;stroke-miterlimit:10; font-family:'Comfortaa-Regular'; font-size:6.4863px;"> </text>
		
			<text transform="matrix(0.8951 -0.3874 0.6331 0.6941 773.5563 93.2744)" style="fill:#874392;stroke:#874392;stroke-width:0.4254;stroke-miterlimit:10; font-family:'Comfortaa-Regular'; font-size:6.4863px;">F</text>
		
			<text transform="matrix(1.0007 -0.2389 0.4071 0.7688 776.9122 91.777)" style="fill:#874392;stroke:#874392;stroke-width:0.4254;stroke-miterlimit:10; font-family:'Comfortaa-Regular'; font-size:6.4863px;">o</text>
		
			<text transform="matrix(1.0616 -0.0615 0.1347 0.8084 781.0436 90.7629)" style="fill:#874392;stroke:#874392;stroke-width:0.4254;stroke-miterlimit:10; font-family:'Comfortaa-Regular'; font-size:6.4863px;">o</text>
		
			<text transform="matrix(1.0574 0.1347 -0.1694 0.7979 785.3433 90.4636)" style="fill:#874392;stroke:#874392;stroke-width:0.4254;stroke-miterlimit:10; font-family:'Comfortaa-Regular'; font-size:6.4863px;">d</text>
		
			<text transform="matrix(1.0024 0.2837 -0.4021 0.7507 789.904 91.1276)" style="fill:#874392;stroke:#874392;stroke-width:0.4254;stroke-miterlimit:10; font-family:'Comfortaa-Regular'; font-size:6.4863px;"> </text>
		
			<text transform="matrix(0.9002 0.4249 -0.6246 0.6678 791.6095 91.4738)" style="fill:#874392;stroke:#874392;stroke-width:0.4254;stroke-miterlimit:10; font-family:'Comfortaa-Regular'; font-size:6.4863px;">B</text>
		
			<text transform="matrix(0.7081 0.5773 -0.8678 0.5163 795.3536 93.2598)" style="fill:#874392;stroke:#874392;stroke-width:0.4254;stroke-miterlimit:10; font-family:'Comfortaa-Regular'; font-size:6.4863px;">y</text>
		
			<text transform="matrix(0.5467 0.6559 -0.9955 0.3908 797.6516 95.1941)" style="fill:#874392;stroke:#874392;stroke-width:0.4254;stroke-miterlimit:10; font-family:'Comfortaa-Regular'; font-size:6.4863px;"> </text>
		
			<text transform="matrix(0.3347 0.7184 -1.1002 0.2275 798.7134 96.2244)" style="fill:#874392;stroke:#874392;stroke-width:0.4254;stroke-miterlimit:10; font-family:'Comfortaa-Regular'; font-size:6.4863px;">B</text>
		
			<text transform="matrix(0.0537 0.7484 -1.157 0.013 800.1074 99.2034)" style="fill:#874392;stroke:#874392;stroke-width:0.4254;stroke-miterlimit:10; font-family:'Comfortaa-Regular'; font-size:6.4863px;">e</text>
		
			<text transform="matrix(-0.1319 0.7392 -1.1496 -0.1276 800.2256 102.04)" style="fill:#874392;stroke:#874392;stroke-width:0.4254;stroke-miterlimit:10; font-family:'Comfortaa-Regular'; font-size:6.4863px;">l</text>
		
			<text transform="matrix(-0.2955 0.7118 -1.1133 -0.2508 800.0991 103.2674)" style="fill:#874392;stroke:#874392;stroke-width:0.4254;stroke-miterlimit:10; font-family:'Comfortaa-Regular'; font-size:6.4863px;">k</text>
		
			<text transform="matrix(-0.4459 0.6691 -1.0528 -0.3634 799.0079 105.7505)" style="fill:#874392;stroke:#874392;stroke-width:0.4254;stroke-miterlimit:10; font-family:'Comfortaa-Regular'; font-size:6.4863px;">i</text>
		
			<text transform="matrix(-0.5775 0.6156 -0.9748 -0.4614 798.3168 106.9114)" style="fill:#874392;stroke:#874392;stroke-width:0.4254;stroke-miterlimit:10; font-family:'Comfortaa-Regular'; font-size:6.4863px;">s</text>
		
			<text transform="matrix(-0.6955 0.5514 -0.8797 -0.5486 796.361 108.9359)" style="fill:#874392;stroke:#874392;stroke-width:0.4254;stroke-miterlimit:10; font-family:'Comfortaa-Regular'; font-size:6.4863px;"> </text>
	</g>
	<g>
		
			<ellipse style="fill:none;stroke:#BB94C4;stroke-width:3.4033;stroke-miterlimit:10;" cx="1239.707" cy="162.245" rx="51.335" ry="35.003"/>
		
			<ellipse style="fill:none;stroke:#BB94C4;stroke-width:3.4033;stroke-miterlimit:10;" cx="1237.205" cy="161.04" rx="15.566" ry="10.614"/>
		<path style="fill:none;stroke:#BB94C4;stroke-width:1.7017;stroke-miterlimit:10;" d="M1275.755,185.896
			c-1.41-1.16-2.565-2.333-4.464-3.19c-1.417-0.64-3.021-1.056-4.609-1.467c-0.761-0.197-1.537-0.396-2.35-0.432
			c-4.354-0.191-7.627,2.125-9.32,4.633c-0.538,0.798-0.92,1.656-1.681,2.365c-1.174,1.093-3.157,1.698-5.138,1.798
			c-0.83,0.042-1.679,0.002-2.463-0.188c-4.68-1.132-3.349-5.145-6.657-7.005c-1.033-0.581-2.398-0.835-3.737-0.864
			c-2.315-0.05-4.646,0.553-6.329,1.637c-3.221,2.075-4.606,6.468-9.875,4.379c-3.304-1.31-4.423-3.493-6.157-5.728
			c-0.806-1.039-1.635-2.099-2.891-2.905c-1.96-1.258-4.83-1.753-7.494-1.49c-2.029,0.2-10.347,2.664-5.56,4.261"/>
		
			<line style="fill:none;stroke:#BB94C4;stroke-width:1.7017;stroke-miterlimit:10;" x1="1230.728" y1="142.297" x2="1233.883" y2="147.265"/>
		
			<line style="fill:none;stroke:#BB94C4;stroke-width:1.7017;stroke-miterlimit:10;" x1="1242.32" y1="139.587" x2="1241.657" y2="133.038"/>
		
			<line style="fill:none;stroke:#BB94C4;stroke-width:1.7017;stroke-miterlimit:10;" x1="1245.632" y1="144.781" x2="1252.771" y2="141.62"/>
		
			<line style="fill:none;stroke:#BB94C4;stroke-width:1.7017;stroke-miterlimit:10;" x1="1260.866" y1="136.313" x2="1264.178" y2="143.2"/>
		
			<line style="fill:none;stroke:#BB94C4;stroke-width:1.7017;stroke-miterlimit:10;" x1="1262.522" y1="148.846" x2="1262.522" y2="154.266"/>
		
			<line style="fill:none;stroke:#BB94C4;stroke-width:1.7017;stroke-miterlimit:10;" x1="1273.783" y1="166.234" x2="1279.082" y2="170.073"/>
		
			<line style="fill:none;stroke:#BB94C4;stroke-width:1.7017;stroke-miterlimit:10;" x1="1276.433" y1="148.846" x2="1276.433" y2="156.524"/>
		
			<line style="fill:none;stroke:#BB94C4;stroke-width:1.7017;stroke-miterlimit:10;" x1="1267.822" y1="162.245" x2="1259.542" y2="162.245"/>
		
			<line style="fill:none;stroke:#BB94C4;stroke-width:1.7017;stroke-miterlimit:10;" x1="1267.822" y1="171.654" x2="1256.892" y2="171.654"/>
		
			<line style="fill:none;stroke:#BB94C4;stroke-width:1.7017;stroke-miterlimit:10;" x1="1249.201" y1="174.59" x2="1249.201" y2="180.687"/>
		
			<line style="fill:none;stroke:#BB94C4;stroke-width:1.7017;stroke-miterlimit:10;" x1="1213.506" y1="169.17" x2="1202.908" y2="169.17"/>
		
			<line style="fill:none;stroke:#BB94C4;stroke-width:1.7017;stroke-miterlimit:10;" x1="1202.908" y1="162.245" x2="1193.965" y2="166.009"/>
		
			<line style="fill:none;stroke:#BB94C4;stroke-width:1.7017;stroke-miterlimit:10;" x1="1202.908" y1="156.524" x2="1198.437" y2="152.685"/>
		
			<line style="fill:none;stroke:#BB94C4;stroke-width:1.7017;stroke-miterlimit:10;" x1="1213.506" y1="147.943" x2="1213.506" y2="154.604"/>
		
			<line style="fill:none;stroke:#BB94C4;stroke-width:1.7017;stroke-miterlimit:10;" x1="1213.506" y1="141.62" x2="1202.908" y2="141.62"/>
		
			<line style="fill:none;stroke:#BB94C4;stroke-width:1.7017;stroke-miterlimit:10;" x1="1221.638" y1="138.684" x2="1228.078" y2="133.716"/>
		
			<line style="fill:none;stroke:#BB94C4;stroke-width:1.7017;stroke-miterlimit:10;" x1="1220.13" y1="173.461" x2="1220.13" y2="178.655"/>
	</g>
	<g>
		<path style="fill:none;stroke:#BB94C4;stroke-width:1.7017;stroke-miterlimit:10;" d="M1003.432,27.574l16.531,22.808
			c0,0,3.12,4.304,3.12,4.304c-16.933,10.982-43.139,18.643-64.812,9.614c-6.463-2.693-16.927-8.103-14.462-14.107
			c2.06-5.019,10.495-6.929,16.731-8.996c6.816-2.259,13.94-4.052,20.758-6.306C988.676,32.452,996.054,30.013,1003.432,27.574z"/>
		<path style="fill:none;stroke:#BB94C4;stroke-width:1.7017;stroke-miterlimit:10;" d="M1030.728,41.949
			c4.906-1.772,10.193-3.196,15.241-4.762c9.158-2.841,18.317-5.681,27.475-8.522c3.087-0.968,6.186-1.919,9.279-2.878
			c4.557-1.413,8.802-3.376,8.973-7.101c0.108-2.337-2.415-4.218-5.482-5.029c-3.485-0.921-6.552-0.883-9.873,0.408
			c-12.761,4.96-25.512,9.977-38.338,14.881c-3.293,1.259-6.586,2.518-9.879,3.777c-1.09,0.417-2.179,0.833-3.269,1.25
			c-1.306,0.5-2.281,0.531-1.56,1.569c0.561,0.808,1.23,1.587,1.831,2.382c1.205,1.594,2.369,3.203,3.421,4.847
			C1029.264,42.489,1029.992,42.215,1030.728,41.949z"/>
		<path style="fill:none;stroke:#BB94C4;stroke-width:1.7017;stroke-miterlimit:10;" d="M1007.863,37.653
			c-1.81,0.434-3.661,1.209-5.309,1.747c-3.961,1.292-7.848,2.684-11.741,4.068c-0.9,0.32-1.802,0.641-2.647,1.025
			c-4.098,1.863-8.023,5.394-5.271,8.827c2.65,3.307,8.404,2.344,12.69,1.204c1.784-0.474,22.215-7.13,22.328-6.974
			c-2.069-2.855-4.139-5.71-6.208-8.565c-0.801-1.105-0.872-1.842-2.786-1.544C1008.569,37.497,1008.217,37.569,1007.863,37.653z"/>
		<path style="fill:none;stroke:#BB94C4;stroke-width:1.7017;stroke-miterlimit:10;" d="M1018.783,49.483
			c2.076,0.141,4.287,0.162,6.108-0.532c8.497-3.239-0.008-11.033-3.472-14.481c-1.982-1.973-3.7-3.68-7.576-2.941
			c-2.095,0.399-3.943,1.369-5.044,2.648"/>
		
			<line style="fill:none;stroke:#BB94C4;stroke-width:1.7017;stroke-miterlimit:10;" x1="1018.933" y1="32.953" x2="1010.147" y2="35.702"/>
		
			<line style="fill:none;stroke:#BB94C4;stroke-width:1.7017;stroke-miterlimit:10;" x1="1021.3" y1="35.111" x2="1012.191" y2="38.362"/>
		
			<line style="fill:none;stroke:#BB94C4;stroke-width:1.7017;stroke-miterlimit:10;" x1="1023.147" y1="37.291" x2="1013.546" y2="40.766"/>
		
			<line style="fill:none;stroke:#BB94C4;stroke-width:1.7017;stroke-miterlimit:10;" x1="1025.073" y1="39.371" x2="1015.072" y2="42.955"/>
		
			<line style="fill:none;stroke:#BB94C4;stroke-width:1.7017;stroke-miterlimit:10;" x1="1026.453" y1="41.507" x2="1017.024" y2="45.003"/>
		
			<line style="fill:none;stroke:#BB94C4;stroke-width:1.7017;stroke-miterlimit:10;" x1="1027.85" y1="43.937" x2="1018.766" y2="47.315"/>
	</g>
</g>
<g>
	<g>
		<path style="fill:none;stroke:#BB94C4;stroke-width:3.4033;stroke-miterlimit:10;" d="M1886.054,8.911
			c-0.439,0.23-0.775,0.47-0.925,0.704c-0.596,0.933,0.616,3.573,0.796,4.712c0.405,2.563,2.409,7.239-0.287,9.456
			c-2.293,1.886-8.291,1.272-11.443,1.269c-3.45-0.004-6.89-0.284-10.335-0.383c-6.328-0.183-14.339-0.078-18.075,4.064
			c-4.981,5.523-7.692,11.418-10.682,17.524c-2.089,4.265-4.177,8.53-6.265,12.795c-1.987,4.058-3.201,8.269-5.022,12.386
			c-0.108,0.244-0.313,0.539-0.688,0.533c-0.31-0.005-2.304-1.282-2.391-1.206c0,0-10.46,9.071-10.46,9.071l4.416,2.71
			c0,0-15.897,9.334-7.507,13.549c8.39,4.215,18.988-6.022,18.988-6.022c1.795,0.653,3.659,1.441,5.291,2.278
			c0.061,0.031,0.13,0.065,0.206,0.06c0.081-0.005,0.143-0.051,0.195-0.093c0.279-0.226,0.557-0.37,0.877-0.561
			c1.745-1.042,3.335-2.203,4.766-3.447c0.751-0.652,1.498-1.326,2.132-2.034c0.323-0.361,1.209-0.957,1.176-1.381
			c-0.016-0.208-0.226-0.381-0.426-0.538c-0.655-0.515-1.33-1.02-1.967-1.545c-0.687-0.565-0.827-0.79,0.124-1.213
			c1.485-0.66,3.309-1.006,4.907-1.52c1.933-0.621,3.866-1.243,5.799-1.864c12.408-3.988,24.816-7.977,37.224-11.965
			c4.47-1.437,8.981-3.031,12.342-5.581c2.097-1.591,3.651-3.559,4.083-5.677c0.198-0.974,0.16-1.963,0.121-2.946
			c-0.142-3.588-0.358-6.665-1.777-10.148c-0.526-1.793-1.052-3.587-1.578-5.38c-0.25-0.853-1.248-2.509-0.976-3.351
			c1.273-3.941,8.332-3.118,12.572-3.259c3.417-0.113,6.668,0.1,10.072,0.101c0.396,0,0.807-0.002,1.166-0.116
			c0.754-0.241,1.014-0.872,1.171-1.429c0.86-3.049,1.269-6.25,0.915-9.352c-0.248-2.168,1.124-2.4,3.595-3.711l-18.988-13.549
			c0,0-5.741,4.818-5.741,4.818c-2.349,0.153-4.697,0.305-7.046,0.458c-1.93,0.125-4.004,0.119-5.903,0.383
			C1889.508,7.649,1887.339,8.239,1886.054,8.911z"/>
		<polyline style="fill:#BB94C4;" points="1884.599,24.434 1898.596,32.865 1903.792,30.155 1887.887,21.988 1883.825,24.534 		"/>
		<polygon style="fill:#BB94C4;" points="1902.294,7.535 1889.423,22.777 1892.015,24.108 1909.58,3.922 		"/>
		<polygon style="fill:#BB94C4;" points="1924.153,14.649 1898.478,27.427 1901.221,28.835 1926.677,16.2 		"/>
		<path style="fill:#BB94C4;" d="M1886.885,25.815c-0.215,0.161-0.417,0.346-0.613,0.485c-0.347,0.246-0.697,0.491-1.053,0.73
			c-1.462,0.984-3.015,1.802-4.774,2.521c-1.02,0.417-1.99,0.89-3.038,1.276c-1.07,0.394-2.227,0.651-3.323,1.017
			c-0.445,0.149-0.819,0.337-0.682,0.711c0.03,0.081,0.089,0.156,0.148,0.23c0.21,0.262,0.605,1.068,1.074,1.082
			c0.57,0.017,1.257-0.387,1.755-0.542c0.673-0.21,1.346-0.421,2.018-0.632c0.662-0.208,1.344-0.364,1.968-0.615
			c0.721-0.29,1.43-0.593,2.132-0.903c1.388-0.615,2.783-1.211,3.958-2.009c0.827-0.561,1.625-1.142,2.394-1.74
			c0.296-0.23,0.779-0.498,0.886-0.802c0.109-0.31,0.049-0.681-0.241-0.936c-0.445-0.389-1.621-0.389-2.192-0.131
			C1887.157,25.624,1887.018,25.715,1886.885,25.815z"/>
		<path style="fill:#BB94C4;" d="M1894.63,29.694c-0.07-0.047-0.135-0.073-0.192-0.07c-0.079,0.004-0.144,0.042-0.203,0.078
			c-2.525,1.579-5.806,3.472-6.238,5.948c-0.339,1.942-0.14,3.853,0.004,5.8c0.008,0.104,0.024,0.22,0.141,0.286
			c0.235,0.134,0.862-0.056,1.125-0.093c0.372-0.053,1.511-0.072,1.778-0.258c0.253-0.175,0.12-0.867,0.114-1.104
			c-0.01-0.382-0.053-0.763-0.098-1.144c-0.086-0.739-0.191-1.481-0.121-2.223c0.123-1.298,0.859-2.541,2.029-3.567
			c0.535-0.469,1.216-0.832,1.769-1.286c0.079-0.065,1.117-0.814,1.068-0.875C1895.648,30.985,1895.046,29.972,1894.63,29.694z"/>
		<polygon style="fill:#BB94C4;" points="1902.129,52.813 1836.552,46.038 1834.731,49.426 1902.129,55.975 		"/>
		<polygon style="fill:#BB94C4;" points="1823.884,70.992 1840.94,82.17 1837.546,83.751 1821.152,72.121 		"/>
		<polygon style="fill:#BB94C4;" points="1816.763,82.114 1827.196,89.171 1824.381,90.865 1811.299,82.114 1814.031,80.589 		"/>
		
			<line style="fill:none;stroke:#BB94C4;stroke-width:1.7017;stroke-miterlimit:10;" x1="1824.32" y1="74.369" x2="1815.158" y2="81.218"/>
		
			<line style="fill:none;stroke:#BB94C4;stroke-width:1.7017;stroke-miterlimit:10;" x1="1827.887" y1="76.899" x2="1818.171" y2="84.316"/>
		
			<line style="fill:none;stroke:#BB94C4;stroke-width:1.7017;stroke-miterlimit:10;" x1="1832.054" y1="79.143" x2="1822.338" y2="86.56"/>
		
			<line style="fill:none;stroke:#BB94C4;stroke-width:1.7017;stroke-miterlimit:10;" x1="1835.904" y1="82.019" x2="1826.188" y2="89.435"/>
	</g>
	<g>
		<path style="fill:none;stroke:#BB94C4;stroke-width:1.7017;stroke-miterlimit:10;" d="M1610.21,118.239
			c0.104,0.24,0.305,0.452,0.633,0.626c1.247,0.659,4.078,0.891,5.603,1.242c1.742,0.401,3.484,0.805,5.249,1.159
			c5.422,1.087,10.844,2.173,16.267,3.26c13.967,2.799,27.933,5.598,41.9,8.398c14.04,2.814,28.081,5.628,42.121,8.442
			c9.208,1.845,18.415,3.691,27.623,5.536c1.262,0.253,2.525,0.507,3.787,0.759c0.32,0.064,2.148-2.695,2.276-2.885
			c1.587-2.365,2.718-4.889,3.21-7.471c1.049-5.494-1.03-12.465-8.05-15.845c-4.265-2.053-10.165-2.825-15.08-3.911
			c-13.911-3.075-27.823-6.15-41.734-9.226c-11.769-2.602-23.537-5.203-35.306-7.805c-7.456-1.645-15.332-3.1-23.25-2.479
			c-3.204,0.251-6.435,0.755-9.382,1.665c-3.405,1.051-5.161,2.347-7.024,4.509c-2.701,3.136-4.998,6.434-6.856,9.843
			C1611.591,115.168,1609.692,117.044,1610.21,118.239z"/>
		<path style="fill:none;stroke:#BB94C4;stroke-width:1.7017;stroke-miterlimit:10;" d="M1608.293,119.408
			c-0.536,0.344-0.795,0.915-1.045,1.485c-0.404,0.92-1.099,1.76-1.408,2.704c-0.359,1.099,0.037,1.451,1.628,1.85
			c3.375,0.848,6.948,1.347,10.43,2.022c7.019,1.361,14.038,2.722,21.057,4.084c8.836,1.714,17.672,3.427,26.508,5.141
			c9.388,1.821,18.776,3.641,28.164,5.462c8.675,1.682,17.349,3.365,26.024,5.047c6.696,1.299,13.393,2.597,20.089,3.896
			c2.389,0.463,4.767,0.94,7.086,1.544c1.201,0.313,3.759,1.007,4.458-0.163c0.519-0.868,0.664-1.787,1.084-2.668
			c0.341-0.717,0.682-1.433,1.022-2.15c-2.283-0.458-4.567-0.915-6.85-1.373c-5.972-1.197-11.944-2.394-17.916-3.591
			c-8.351-1.674-16.703-3.348-25.054-5.021c-9.422-1.888-18.843-3.777-28.264-5.665c-9.182-1.84-18.365-3.681-27.548-5.521
			c-7.634-1.53-15.269-3.06-22.903-4.59c-3.85-0.772-7.579-1.57-11.479-2.195c-1.269-0.203-2.277-0.555-3.631-0.616
			C1609.1,119.06,1608.639,119.187,1608.293,119.408z"/>
		<path style="fill:none;stroke:#BB94C4;stroke-width:1.7017;stroke-miterlimit:10;" d="M1623.605,130.272
			c-0.355,1.006-0.503,2.387-0.679,2.952c-0.866,2.773-1.61,5.563-2.468,8.337c-1.648,5.331-3.823,10.736-7.589,15.475
			c-2.657,3.345-6.004,6.477-10.239,8.975c-4.117,2.429-12.385,3.526-14.193,7.455c-1.865,4.053,3.471,7.362,8.191,8.971
			c0.641,0.219,1.299,0.414,1.961,0.603c6.819,1.947,14.009,3.358,21.072,4.822c10.391,2.153,20.838,4.178,31.298,6.168
			c10.603,2.017,21.224,3.988,31.856,5.931c8.322,1.521,16.697,2.937,24.939,4.636c4.599,0.948,10.547,0.552,15.228-0.088
			c3.72-0.509,8.941-1.642,9.436-4.682c0.231-1.419,0.141-3.361-2.394-3.826c-16.791-3.079-33.582-6.158-50.374-9.237
			c-5.723-1.049-11.445-2.099-17.168-3.148c-5.203-0.954-10.502-1.627-15.454-3.079c-8.285-2.43-11.303-10.031-9.297-15.661
			c2.212-6.208,4.478-12.414,7.204-18.529c1.865-4.182,3.699-8.371,5.485-12.57c-0.038-0.007-0.075-0.015-0.113-0.022
			c-7.84-1.52-15.802-3.581-23.802-4.616c-1.149-0.149-1.397-0.444-2.229,0.081C1623.99,129.401,1623.774,129.794,1623.605,130.272z
			"/>
		
			<line style="fill:none;stroke:#BB94C4;stroke-width:1.7017;stroke-miterlimit:10;" x1="1643.732" y1="179.346" x2="1593.276" y2="169.95"/>
		
			<line style="fill:none;stroke:#BB94C4;stroke-width:1.7017;stroke-miterlimit:10;" x1="1634.053" y1="139.08" x2="1620.565" y2="174.648"/>
		<path style="fill:none;stroke:#BB94C4;stroke-width:1.7017;stroke-miterlimit:10;" d="M1654.255,150.146l87.766,17.614
			c0,0-15.56,27.588-53.221,20.681C1651.139,181.535,1651.937,154.662,1654.255,150.146z"/>
		
			<line style="fill:none;stroke:#BB94C4;stroke-width:1.7017;stroke-miterlimit:10;" x1="1739.372" y1="171.508" x2="1653.338" y2="154.662"/>
		<polyline style="fill:none;stroke:#BB94C4;stroke-width:1.7017;stroke-miterlimit:10;" points="1693.654,142.16 1693.654,148.264 
			1710.338,150.146 1710.338,145.396 		"/>
		<path style="fill:none;stroke:#BB94C4;stroke-width:1.2762;stroke-miterlimit:10;" d="M1686.967,156.692
			c-0.334-0.354-0.357-0.801-0.344-1.222c0.057-1.86,1.295-3.466,2.836-4.966c0.978-0.951,2.369-2.114,4.195-2.241
			c1.516-0.106,3.096,0.107,4.574,0.317c2.713,0.385,5.411,0.862,8.124,1.273c0.78,0.118,1.599,0.218,2.324,0.439
			c1.736,0.53,2.674,2.015,3.09,3.223c0.284,0.826,0.469,1.67,0.527,2.518c0.049,0.727-0.009,1.512-0.272,2.219
			c-0.477,1.285-1.756,2.358-3.617,2.785"/>
		<path style="fill:none;stroke:#BB94C4;stroke-width:1.2762;stroke-miterlimit:10;" d="M1697.763,148.883
			c-0.573-0.012-1.131,0.113-1.675,0.237c-0.187,0.042-0.374,0.085-0.55,0.144c-0.907,0.304-1.692,0.706-2.459,1.158
			c-2.749,1.618-3.787,4.334-2.958,6.723"/>
		<path style="fill:none;stroke:#BB94C4;stroke-width:1.2762;stroke-miterlimit:10;" d="M1706.343,149.888
			c1.16,1.115,1.678,2.473,2.174,3.798c0.324,0.865,0.595,1.67,0.486,2.562c-0.11,0.91-0.38,1.812-0.802,2.678
			c-0.413,0.847-0.994,1.438-2.16,1.853"/>
		<path style="fill:none;stroke:#BB94C4;stroke-width:1.2762;stroke-miterlimit:10;" d="M1703.709,149.405
			c0.682,1.058,1.21,2.163,1.575,3.292c0.428,1.325,0.674,2.689,0.382,4.048c-0.258,1.204-1.055,3.037-3.019,3.423"/>
		<path style="fill:none;stroke:#BB94C4;stroke-width:1.2762;stroke-miterlimit:10;" d="M1698.965,149.014
			c-0.356,0.153-0.655,0.342-0.986,0.515c-2.005,1.045-3.802,2.391-4.781,3.995c-0.667,1.093-0.945,2.307-0.679,3.477
			c0.068,0.299,0.179,0.605,0.457,0.84"/>
		<path style="fill:none;stroke:#BB94C4;stroke-width:1.2762;stroke-miterlimit:10;" d="M1701.447,149.537
			c-0.917,0.539-1.824,1.086-2.721,1.64c-0.928,0.573-1.802,1.091-2.485,1.82c-0.896,0.955-1.307,2.01-1.337,3.144
			c-0.012,0.447,0.068,0.902,0.299,1.323c0.219,0.398,0.35,0.807,0.584,1.206"/>
	</g>
	<g>
		<path style="fill:none;stroke:#BB94C4;stroke-width:5.105;stroke-miterlimit:10;" d="M1425.797,34.832
			c0.845-0.358,2.01-0.505,3.666-0.344c8.876,0.865,17.663,2.096,26.423,3.388c5.377,0.793,10.737,1.682,15.915,2.962
			c2.285,0.565,4.51,0.745,5.171,2.4c0.672,1.682-0.328,3.684-0.617,5.362c-0.5,2.909-0.876,5.828-1.114,8.752
			c-0.571,7.014-0.451,14.143,1.375,21.073c2.012,7.637,6.437,15.899,17.241,19.583c0,0,14.573,4.968,14.573,4.968l-21.196,80.394
			c0,0,0,13.098-39.081,9.033c-39.081-4.065-93.397-12.195-93.397-12.195s-22.521-0.903-17.885-19.873s23.184-77.684,23.184-77.684
			s35.107,2.71,46.367-11.743c5.382-6.908,9.217-14.38,12.571-21.842c1.37-3.049,2.641-6.118,3.823-9.203
			C1423.574,37.889,1423.708,35.717,1425.797,34.832z"/>
		<path style="fill:none;stroke:#BB94C4;stroke-width:5.105;stroke-miterlimit:10;" d="M1473.375,40.476
			c0,0,15.184-23.764-10.649-29.183s-30.47,22.582-30.47,22.582"/>
		<path style="fill:none;stroke:#BB94C4;stroke-width:3.4033;stroke-miterlimit:10;" d="M1360.056,82.653
			c-4.279-0.742-8.608-1.366-12.953-1.895c-7.213-0.879-15.697-2.223-22.591,0.034c-4.032,1.32-5.74,4.609-5.489,7.599
			c0.272,3.235,4.959,4.53,9.018,5.102c4.845,0.683,9.453,1.38,12.946,3.84c1.047,0.737,2.049,1.537,2.593,2.494
			c3.332,5.858-7.545,8.455-13.942,7.31c-2.35-0.421-4.551-1.247-6.897-1.63c-1.735-0.284-3.438-0.476-5.244-0.43
			c-6.846,0.172-11.063,5.659-11.957,9.683c-0.943,4.248,1.393,8.455,6.604,10.951"/>
		<path style="fill:none;stroke:#BB94C4;stroke-width:3.4033;stroke-miterlimit:10;" d="M1508.43,102.977
			c4.857,0.748,9.715,1.496,14.572,2.244c3.777,0.582,7.554,1.163,11.332,1.745c8.353,1.286,22.559,6.673,14.411,13.831
			c-0.722,0.634-1.643,1.184-2.748,1.461c-1.347,0.338-2.839,0.244-4.251,0.068c-3.069-0.384-6.014-1.138-9.062-1.591
			c-2.876-0.428-6.896-0.844-9.797-0.471c-4.996,0.644-8.562,4.221-7.269,7.506c0.369,0.938,0.933,1.868,1.922,2.568
			c2.775,1.967,9.698,1.385,13.428,1.829c4.828,0.575,9.321,2.007,11.245,5.286c4.416,7.527,6.182,15.657-17.222,18.969"/>
		<path style="fill:#BB94C4;" d="M1452.139,159.474c1.89-3.313,3.312-6.757,4.593-10.2c1.295-3.481,3.435-7.186-1.91-9.545
			c-0.838-0.37-1.76-0.639-2.68-0.904c-4.803-1.381-9.558-1.849-14.683-2.515c-10.984-1.432-21.968-2.865-32.952-4.297
			c-2.735-0.357-6.771-1.458-9.568-1.026c-2.715,0.42-3.053,2.376-3.774,3.968c-2.163,4.779-4.005,9.624-5.516,14.518
			c-1.123,3.637-2.02,7.57,0.236,10.954c5.098,7.648,20.817,10.474,31.735,11.854c5.609,0.709,12.237,1.31,17.895,0.608
			C1444.129,171.82,1449.293,164.464,1452.139,159.474z"/>
		
			<ellipse style="fill:none;stroke:#BB94C4;stroke-width:1.7017;stroke-miterlimit:10;" cx="1434.133" cy="102.199" rx="26.164" ry="17.84"/>
		
			<ellipse transform="matrix(0.9942 -0.1074 0.1074 0.9942 -2.6764 154.7855)" style="fill:none;" cx="1435.054" cy="102.229" rx="16.879" ry="11.571"/>
		
			<text transform="matrix(-0.5723 -0.6455 0.9784 -0.4106 1422.0657 110.6568)" style="fill:#874392;stroke:#874392;stroke-width:0.4254;stroke-miterlimit:10; font-family:'Comfortaa-Regular'; font-size:6.4863px;">H</text>
		
			<text transform="matrix(-0.2607 -0.7317 1.1235 -0.1708 1419.2139 107.3486)" style="fill:#874392;stroke:#874392;stroke-width:0.4254;stroke-miterlimit:10; font-family:'Comfortaa-Regular'; font-size:6.4863px;">e</text>
		
			<text transform="matrix(0.0145 -0.7476 1.1583 0.0387 1418.1974 104.6833)" style="fill:#874392;stroke:#874392;stroke-width:0.4254;stroke-miterlimit:10; font-family:'Comfortaa-Regular'; font-size:6.4863px;">a</text>
		
			<text transform="matrix(0.2059 -0.7291 1.1367 0.1834 1418.3604 101.5802)" style="fill:#874392;stroke:#874392;stroke-width:0.4254;stroke-miterlimit:10; font-family:'Comfortaa-Regular'; font-size:6.4863px;">l</text>
		
			<text transform="matrix(0.3332 -0.7028 1.1007 0.2791 1418.6727 100.3482)" style="fill:#874392;stroke:#874392;stroke-width:0.4254;stroke-miterlimit:10; font-family:'Comfortaa-Regular'; font-size:6.4863px;">t</text>
		
			<text transform="matrix(0.5156 -0.6429 1.0147 0.4154 1419.3615 98.6508)" style="fill:#874392;stroke:#874392;stroke-width:0.4254;stroke-miterlimit:10; font-family:'Comfortaa-Regular'; font-size:6.4863px;">h</text>
		
			<text transform="matrix(0.6955 -0.5514 0.8797 0.5486 1421.5258 95.986)" style="fill:#874392;stroke:#874392;stroke-width:0.4254;stroke-miterlimit:10; font-family:'Comfortaa-Regular'; font-size:6.4863px;">y</text>
		
			<text transform="matrix(0.7985 -0.4781 0.7701 0.6241 1423.9072 94.1493)" style="fill:#874392;stroke:#874392;stroke-width:0.4254;stroke-miterlimit:10; font-family:'Comfortaa-Regular'; font-size:6.4863px;"> </text>
		
			<text transform="matrix(0.8951 -0.3874 0.6331 0.6941 1425.203 93.2758)" style="fill:#874392;stroke:#874392;stroke-width:0.4254;stroke-miterlimit:10; font-family:'Comfortaa-Regular'; font-size:6.4863px;">F</text>
		
			<text transform="matrix(1.0007 -0.2389 0.4071 0.7688 1428.5587 91.7786)" style="fill:#874392;stroke:#874392;stroke-width:0.4254;stroke-miterlimit:10; font-family:'Comfortaa-Regular'; font-size:6.4863px;">o</text>
		
			<text transform="matrix(1.0616 -0.0615 0.1347 0.8084 1432.6902 90.7644)" style="fill:#874392;stroke:#874392;stroke-width:0.4254;stroke-miterlimit:10; font-family:'Comfortaa-Regular'; font-size:6.4863px;">o</text>
		
			<text transform="matrix(1.0574 0.1347 -0.1694 0.7979 1436.9899 90.4652)" style="fill:#874392;stroke:#874392;stroke-width:0.4254;stroke-miterlimit:10; font-family:'Comfortaa-Regular'; font-size:6.4863px;">d</text>
		
			<text transform="matrix(1.0024 0.2837 -0.4021 0.7507 1441.5505 91.1292)" style="fill:#874392;stroke:#874392;stroke-width:0.4254;stroke-miterlimit:10; font-family:'Comfortaa-Regular'; font-size:6.4863px;"> </text>
		
			<text transform="matrix(0.9012 0.4238 -0.6229 0.6686 1443.2318 91.4669)" style="fill:#874392;stroke:#874392;stroke-width:0.4254;stroke-miterlimit:10; font-family:'Comfortaa-Regular'; font-size:6.4863px;">B</text>
		
			<text transform="matrix(0.7082 0.5773 -0.8677 0.5163 1447.0004 93.2612)" style="fill:#874392;stroke:#874392;stroke-width:0.4254;stroke-miterlimit:10; font-family:'Comfortaa-Regular'; font-size:6.4863px;">y</text>
		
			<text transform="matrix(0.5467 0.6559 -0.9954 0.3908 1449.2983 95.1955)" style="fill:#874392;stroke:#874392;stroke-width:0.4254;stroke-miterlimit:10; font-family:'Comfortaa-Regular'; font-size:6.4863px;"> </text>
		
			<text transform="matrix(0.3348 0.7184 -1.1002 0.2275 1450.3601 96.2259)" style="fill:#874392;stroke:#874392;stroke-width:0.4254;stroke-miterlimit:10; font-family:'Comfortaa-Regular'; font-size:6.4863px;">B</text>
		
			<text transform="matrix(0.0537 0.7484 -1.157 0.013 1451.7542 99.2049)" style="fill:#874392;stroke:#874392;stroke-width:0.4254;stroke-miterlimit:10; font-family:'Comfortaa-Regular'; font-size:6.4863px;">e</text>
		
			<text transform="matrix(-0.1319 0.7392 -1.1496 -0.1276 1451.8727 102.0413)" style="fill:#874392;stroke:#874392;stroke-width:0.4254;stroke-miterlimit:10; font-family:'Comfortaa-Regular'; font-size:6.4863px;">l</text>
		
			<text transform="matrix(-0.294 0.7121 -1.1138 -0.2497 1451.751 103.2516)" style="fill:#874392;stroke:#874392;stroke-width:0.4254;stroke-miterlimit:10; font-family:'Comfortaa-Regular'; font-size:6.4863px;">k</text>
		
			<text transform="matrix(-0.4459 0.6691 -1.0528 -0.3635 1450.6547 105.7519)" style="fill:#874392;stroke:#874392;stroke-width:0.4254;stroke-miterlimit:10; font-family:'Comfortaa-Regular'; font-size:6.4863px;">i</text>
		
			<text transform="matrix(-0.5775 0.6156 -0.9748 -0.4614 1449.9637 106.9127)" style="fill:#874392;stroke:#874392;stroke-width:0.4254;stroke-miterlimit:10; font-family:'Comfortaa-Regular'; font-size:6.4863px;">s</text>
		
			<text transform="matrix(-0.6955 0.5514 -0.8797 -0.5486 1448.0081 108.9372)" style="fill:#874392;stroke:#874392;stroke-width:0.4254;stroke-miterlimit:10; font-family:'Comfortaa-Regular'; font-size:6.4863px;"> </text>
	</g>
	<g>
		
			<ellipse style="fill:none;stroke:#BB94C4;stroke-width:3.4033;stroke-miterlimit:10;" cx="1891.353" cy="162.245" rx="51.335" ry="35.003"/>
		
			<ellipse style="fill:none;stroke:#BB94C4;stroke-width:3.4033;stroke-miterlimit:10;" cx="1888.851" cy="161.04" rx="15.566" ry="10.614"/>
		<path style="fill:none;stroke:#BB94C4;stroke-width:1.7017;stroke-miterlimit:10;" d="M1927.401,185.896
			c-1.41-1.16-2.565-2.333-4.464-3.19c-1.417-0.64-3.021-1.056-4.609-1.467c-0.761-0.197-1.537-0.396-2.35-0.432
			c-4.354-0.191-7.627,2.125-9.32,4.633c-0.538,0.798-0.92,1.656-1.681,2.365c-1.174,1.093-3.157,1.698-5.138,1.798
			c-0.83,0.042-1.679,0.002-2.463-0.188c-4.68-1.132-3.349-5.145-6.657-7.005c-1.033-0.581-2.398-0.835-3.737-0.864
			c-2.315-0.05-4.646,0.553-6.329,1.637c-3.221,2.075-4.606,6.468-9.875,4.379c-3.304-1.31-4.423-3.493-6.157-5.728
			c-0.806-1.039-1.635-2.099-2.891-2.905c-1.96-1.258-4.83-1.753-7.494-1.49c-2.029,0.2-10.347,2.664-5.56,4.261"/>
		
			<line style="fill:none;stroke:#BB94C4;stroke-width:1.7017;stroke-miterlimit:10;" x1="1882.374" y1="142.297" x2="1885.529" y2="147.265"/>
		
			<line style="fill:none;stroke:#BB94C4;stroke-width:1.7017;stroke-miterlimit:10;" x1="1893.966" y1="139.587" x2="1893.303" y2="133.038"/>
		
			<line style="fill:none;stroke:#BB94C4;stroke-width:1.7017;stroke-miterlimit:10;" x1="1897.278" y1="144.781" x2="1904.417" y2="141.62"/>
		
			<line style="fill:none;stroke:#BB94C4;stroke-width:1.7017;stroke-miterlimit:10;" x1="1912.513" y1="136.313" x2="1915.825" y2="143.2"/>
		
			<line style="fill:none;stroke:#BB94C4;stroke-width:1.7017;stroke-miterlimit:10;" x1="1914.169" y1="148.846" x2="1914.169" y2="154.266"/>
		
			<line style="fill:none;stroke:#BB94C4;stroke-width:1.7017;stroke-miterlimit:10;" x1="1925.429" y1="166.234" x2="1930.728" y2="170.073"/>
		
			<line style="fill:none;stroke:#BB94C4;stroke-width:1.7017;stroke-miterlimit:10;" x1="1928.079" y1="148.846" x2="1928.079" y2="156.524"/>
		
			<line style="fill:none;stroke:#BB94C4;stroke-width:1.7017;stroke-miterlimit:10;" x1="1919.468" y1="162.245" x2="1911.188" y2="162.245"/>
		
			<line style="fill:none;stroke:#BB94C4;stroke-width:1.7017;stroke-miterlimit:10;" x1="1919.468" y1="171.654" x2="1908.538" y2="171.654"/>
		
			<line style="fill:none;stroke:#BB94C4;stroke-width:1.7017;stroke-miterlimit:10;" x1="1900.847" y1="174.59" x2="1900.847" y2="180.687"/>
		
			<line style="fill:none;stroke:#BB94C4;stroke-width:1.7017;stroke-miterlimit:10;" x1="1865.152" y1="169.17" x2="1854.554" y2="169.17"/>
		
			<line style="fill:none;stroke:#BB94C4;stroke-width:1.7017;stroke-miterlimit:10;" x1="1854.554" y1="162.245" x2="1845.611" y2="166.009"/>
		
			<line style="fill:none;stroke:#BB94C4;stroke-width:1.7017;stroke-miterlimit:10;" x1="1854.554" y1="156.524" x2="1850.083" y2="152.685"/>
		
			<line style="fill:none;stroke:#BB94C4;stroke-width:1.7017;stroke-miterlimit:10;" x1="1865.152" y1="147.943" x2="1865.152" y2="154.604"/>
		
			<line style="fill:none;stroke:#BB94C4;stroke-width:1.7017;stroke-miterlimit:10;" x1="1865.152" y1="141.62" x2="1854.554" y2="141.62"/>
		
			<line style="fill:none;stroke:#BB94C4;stroke-width:1.7017;stroke-miterlimit:10;" x1="1873.285" y1="138.684" x2="1879.724" y2="133.716"/>
		
			<line style="fill:none;stroke:#BB94C4;stroke-width:1.7017;stroke-miterlimit:10;" x1="1871.776" y1="173.461" x2="1871.776" y2="178.655"/>
	</g>
	<g>
		<path style="fill:none;stroke:#BB94C4;stroke-width:1.7017;stroke-miterlimit:10;" d="M1655.078,27.574l16.531,22.808
			c0,0,3.12,4.304,3.12,4.304c-16.933,10.982-43.139,18.643-64.812,9.614c-6.463-2.693-16.926-8.103-14.462-14.107
			c2.06-5.019,10.495-6.929,16.731-8.996c6.816-2.259,13.94-4.052,20.758-6.306C1640.322,32.452,1647.7,30.013,1655.078,27.574z"/>
		<path style="fill:none;stroke:#BB94C4;stroke-width:1.7017;stroke-miterlimit:10;" d="M1682.374,41.949
			c4.906-1.772,10.193-3.196,15.241-4.762c9.158-2.841,18.317-5.681,27.475-8.522c3.087-0.968,6.186-1.919,9.279-2.878
			c4.557-1.413,8.802-3.376,8.973-7.101c0.108-2.337-2.415-4.218-5.482-5.029c-3.485-0.921-6.552-0.883-9.873,0.408
			c-12.761,4.96-25.512,9.977-38.338,14.881c-3.293,1.259-6.586,2.518-9.879,3.777c-1.09,0.417-2.179,0.833-3.269,1.25
			c-1.307,0.5-2.281,0.531-1.56,1.569c0.561,0.808,1.23,1.587,1.831,2.382c1.205,1.594,2.369,3.203,3.421,4.847
			C1680.91,42.489,1681.638,42.215,1682.374,41.949z"/>
		<path style="fill:none;stroke:#BB94C4;stroke-width:1.7017;stroke-miterlimit:10;" d="M1659.509,37.653
			c-1.81,0.434-3.661,1.209-5.309,1.747c-3.961,1.292-7.848,2.684-11.741,4.068c-0.9,0.32-1.802,0.641-2.647,1.025
			c-4.098,1.863-8.023,5.394-5.271,8.827c2.651,3.307,8.404,2.344,12.69,1.204c1.784-0.474,22.214-7.13,22.328-6.974
			c-2.069-2.855-4.138-5.71-6.208-8.565c-0.801-1.105-0.872-1.842-2.786-1.544C1660.215,37.497,1659.863,37.569,1659.509,37.653z"/>
		<path style="fill:none;stroke:#BB94C4;stroke-width:1.7017;stroke-miterlimit:10;" d="M1670.429,49.483
			c2.076,0.141,4.287,0.162,6.108-0.532c8.497-3.239-0.008-11.033-3.472-14.481c-1.982-1.973-3.7-3.68-7.576-2.941
			c-2.095,0.399-3.943,1.369-5.044,2.648"/>
		
			<line style="fill:none;stroke:#BB94C4;stroke-width:1.7017;stroke-miterlimit:10;" x1="1670.579" y1="32.953" x2="1661.793" y2="35.702"/>
		
			<line style="fill:none;stroke:#BB94C4;stroke-width:1.7017;stroke-miterlimit:10;" x1="1672.946" y1="35.111" x2="1663.837" y2="38.362"/>
		
			<line style="fill:none;stroke:#BB94C4;stroke-width:1.7017;stroke-miterlimit:10;" x1="1674.793" y1="37.291" x2="1665.193" y2="40.766"/>
		
			<line style="fill:none;stroke:#BB94C4;stroke-width:1.7017;stroke-miterlimit:10;" x1="1676.719" y1="39.371" x2="1666.718" y2="42.955"/>
		
			<line style="fill:none;stroke:#BB94C4;stroke-width:1.7017;stroke-miterlimit:10;" x1="1678.099" y1="41.507" x2="1668.67" y2="45.003"/>
		
			<line style="fill:none;stroke:#BB94C4;stroke-width:1.7017;stroke-miterlimit:10;" x1="1679.496" y1="43.937" x2="1670.412" y2="47.315"/>
	</g>
</g>
<rect x="-0.104" y="-0.285" style="fill:none;" width="1915.071" height="202.843"/>
</svg>
