<svg xmlns="http://www.w3.org/2000/svg" viewBox="0 0 62 59"><defs><style>.cls-1{fill:#b6d3d2;}.cls-2{fill:#fff;}</style></defs><g id="Capa_2" data-name="Capa 2"><g id="Capa_1-2" data-name="Capa 1"><ellipse class="cls-1" cx="31" cy="29.5" rx="31" ry="29.5"/><path class="cls-2" d="M43.07,37.12c1.73-2.69,3.45-5.43,5-8.24a14.59,14.59,0,0,0,1.55-4.35A12.28,12.28,0,0,0,49.74,19a6.82,6.82,0,0,0-3.18-4.19A8.19,8.19,0,0,0,42.64,14a8,8,0,0,0-3.57.94c-.86.52-1.73,1-2.63,1.49-.4.2-.8.3-1.2.47a3.47,3.47,0,0,1-1.37.38,13.42,13.42,0,0,1-5.26-1.58s-1.05.26-.52,1.05a5,5,0,0,0,2.4,1.51,8.87,8.87,0,0,0,2.89.55,8.82,8.82,0,0,0,4.75-1.73,8.39,8.39,0,0,1,5.49-1.66l.48.05a6.2,6.2,0,0,1,2.14.62A5.29,5.29,0,0,1,48,18.2a5.39,5.39,0,0,1,.6,2.82,16.53,16.53,0,0,1-.75,4.62A15.45,15.45,0,0,1,46,29.84c-.53.79-1,1.62-1.5,2.43s-1.18,1.91-1.77,2.85a8.5,8.5,0,0,1-1,1.47C41.49,36.85,43.07,37.12,43.07,37.12Z"/><path class="cls-2" d="M11.61,22v.18a8.85,8.85,0,0,0,.57,3.18s1.32,3.16,2.37,5,4.3,6.74,4.3,6.74h1.57s-3.77-6.47-4.82-8.32a25,25,0,0,1-1.15-2.46A11.64,11.64,0,0,1,13.15,22,7.4,7.4,0,0,1,14,18.6,5.67,5.67,0,0,1,15.33,17a5.26,5.26,0,0,1,6.58-.59c1.32.91,2.49,2,3.72,3a12.21,12.21,0,0,0,2.29,1.4,13,13,0,0,0,4.4,1.48,16.77,16.77,0,0,0,5.1-.07c.7-.12,1.83-.19,1.89-1.16a.68.68,0,0,0-.11-.39.73.73,0,0,0-.33-.32c-.7-.36-2,.16-2.68.25a12.12,12.12,0,0,1-4,0,18.44,18.44,0,0,1-6.84-3.43S23,14.8,21.12,14.27a8.1,8.1,0,0,0-5.52.53,6.61,6.61,0,0,0-3,2.86,8,8,0,0,0-.88,2.85c-.06.48-.07,1-.12,1.44s0,1,0,1.5v.42"/><rect class="cls-2" x="18.88" y="37.12" width="24.18" height="11.88" rx="1.05"/><path class="cls-2" d="M27.94,36l-.46-1.88-.95-4-.48-2a14.18,14.18,0,0,0-.39-1.59,5.38,5.38,0,0,0-.24-.55.8.8,0,0,0-.34-.34.89.89,0,0,0-.68,0,.71.71,0,0,0-.33.23A1.37,1.37,0,0,0,24,27c0,.25.09.51.15.76q.19.93.42,1.86c.32,1.35.66,2.69,1,4,.2.78.41,1.56.62,2.34V36Z"/><path class="cls-2" d="M34.79,36v0l.45-2.33.29-1.47c.09-.5.33-1-.15-1.43a.62.62,0,0,0-.53-.11,1.34,1.34,0,0,0-.39.16.7.7,0,0,0-.29.4,7.66,7.66,0,0,0-.41,1.65l-.34,1.71-.35,1.75H34.7Z"/></g></g></svg>