<svg xmlns="http://www.w3.org/2000/svg" xmlns:xlink="http://www.w3.org/1999/xlink" viewBox="0 0 964.22 817"><defs><style>.cls-1,.cls-5,.cls-6,.cls-7{fill:none;}.cls-2{clip-path:url(#clip-path);}.cls-3{opacity:0.3;}.cls-4{fill:#f1beb5;opacity:0.5;}.cls-5,.cls-6,.cls-7{stroke:#fff;stroke-miterlimit:10;}.cls-5{stroke-width:19.61px;}.cls-6{stroke-width:9.81px;}.cls-7{stroke-width:14.71px;}.cls-8{fill:#fff;}</style><clipPath id="clip-path"><rect class="cls-1" width="964.22" height="817" transform="translate(964.22 817) rotate(180)"/></clipPath></defs><g id="Capa_2" data-name="Capa 2"><g id="Capa_1-2" data-name="Capa 1"><g class="cls-2"><g class="cls-3"><path class="cls-4" d="M267.83,599.11c.77,4.75,1.74,9.63,2.88,14.7,1.47,6.47,2.38,12.78,4.07,19.2,5.08,19.34,19.83,36.39,34.27,50.6,4.2,4.13,9,10.09,15.58,10.44,15.12.78,30.7-7.93,41.87-16.42,24.44-18.58,36.83-48.1,36.83-76.91,0-51.77-38.49-93.73-86-93.73-13.11,0-35.88,2.76-41.14,15.78C265.26,549.88,263.47,572.4,267.83,599.11Z"/><path class="cls-5" d="M333,438.83c-37.3,24.62-63.57,62.5-72.89,103.78a146.94,146.94,0,0,0-.76,62.38c3.93,18.8,10.34,44.21,22.36,59.82,14.63,19,31.42,34.79,51.29,49.52,199.73,148.12,486.43,0,486.43,0"/><path class="cls-5" d="M256.34,315.63S232.48,478.21,364.77,447.92,491.6,319.67,491.6,319.67c-1.63-18.19-15.1-34.26-36.59-30-25.95,5.18-46.69,27.54-48.24,52-1.77,28,23.3,69.59,55.31,74.89,45.6,7.56,94.89-6.21,133.61-28.45,34.89-20,52.19-51.9,71.14-84.27q6.51-11.13,12.77-22.37c1.72-3.07,7.57-19.11,13.07-16.1,2.44,1.34,4.42,14.67,5,17.41,1.38,6.37,2.11,12.85,3.62,19.2a311.78,311.78,0,0,0,11.77,38.74c9.75,25.54,25.13,45.25,46.3,63.9,23.67,20.86,68.44,34.49,99.58,21,51.38-22.22,59-42.41,47-53.52-10.25-9.47-26.37-3.3-36.78,2.56-20.7,11.64-25.29,29.54-19.31,50.36,5.83,20.34,20.86,39.07,43,46,44.83,14.14,86.37,0,86.37,0"/><path class="cls-5" d="M335.25,738.76s-131.2,98-246-33.33S59.73,446.91,121,429.74c27.78-7.79,76.54-2.75,74.12,33-1,14.4-24.84,25.07-38.45,24.45-46.24-2.1-71.93-51.53-83.4-87.42-12.9-40.38-.65-78.33,38.36-101.73.93-.56,1.87-1.1,2.81-1.64,79.81-45.45,121.36-32.32,150.88-61.6l1.41-1.38c33.59-32.17,73.16-60.09,111.19-87.53,54-39,109.54-78.05,173.24-102.25,11.25-4.28,23.16-9.92,35-12,20-3.58,40.05-6.7,60.24-8.84,65.41-6.91,134.49-.22,181.94,46.43q9,8.36,17.17,17.38a162,162,0,0,1,12.77,15.49c3.13,4.45,5.21,10.45,11.23,12,14.45,3.81,32.84-1.57,47.92-1.91,17.71-.41,36.36.49,53,6.48,39.36,14.14,110.42,71.7,133.38,114.12s103.87,77.76,103.87,77.76,87.47,23.22,96.21,95.93-28.42,99-43.73,109.07c-9.4,6.2-21.76,7.68-33,8.7-11.88,1.09-25.91,1.84-37.41-1.59a72.31,72.31,0,0,1-11.07-4.68c-9.37-4.6-16.38-8.91-20.16-18.29s-5-20.32-1.74-30c2.44-7.16,9.93-12,17.66-13.56,22.88-4.6,44.88,7.62,59.08,23.31,12,13.27,20.06,29.37,26.07,45.65,3.25,8.81,5.74,17.8,8.18,26.82,4.38,16.16,39.36,223.74-154.16,222S853.5,614.55,853.49,614.54c-6-14.14-12.1-27.88-16.11-42.7-7.45-27.52-10.49-57.9,0-85.09a89.84,89.84,0,0,1,4.82-10c2.11-3.95,3.41-7.8,6.52-11.33,2.89-3.29,6.24-6.25,8.79-9.77A47.8,47.8,0,0,1,862,451"/><path class="cls-5" d="M674.89,432.45c7.7-5.63,18.22-6.43,28-6.45a107.86,107.86,0,0,1,11.37.47A64.47,64.47,0,0,1,748,440.34"/><path class="cls-5" d="M457.64,434.42c-11.21-5-23.55-6.32-35.5-9.1"/><path class="cls-6" d="M567,539.56a32.41,32.41,0,0,1-24.6-8.66,22.85,22.85,0,0,1-7.11-13.6,16.86,16.86,0,0,1,5.09-14.12,24,24,0,0,1,9.41-5,32.63,32.63,0,0,1,16.23-.89c5.35,1.17,10.32,4.08,13.28,8.35"/><path class="cls-7" d="M594.4,571.53c-3.61,18.37-21.63,33.47-41.77,35-5.88.45-12.1-.24-17-3.26-5.81-3.58-8.94-9.84-11.08-16a88,88,0,0,1-4.8-23.72"/><ellipse class="cls-8" cx="699.51" cy="503.46" rx="27.15" ry="30.8"/><ellipse class="cls-8" cx="430.48" cy="496.66" rx="27.15" ry="30.8"/><path class="cls-4" d="M715.19,617.21c0,49.56,35.81,89.74,80,89.74,28.6,0,52.83-17.24,66.35-39.6,3.73-6.16,6.82-10.27,3.93-16.75-3.07-6.86-10.07-13.36-13.87-20.16C843.83,616.59,838.4,601.75,833,587c-4.87-13.34-9.95-27.25-9.78-41.49.1-8.51,3.28-10.7-5.49-14.43-6.71-2.85-15.3-3.63-22.59-3.63C751,527.46,715.19,567.64,715.19,617.21Z"/></g></g></g></g></svg>