<svg xmlns="http://www.w3.org/2000/svg" viewBox="0 0 429.78 274.4"><defs><style>.cls-1{fill:#fff;}.cls-2{fill:#79605b;}.cls-3{fill:#506565;}.cls-4{fill:#4e5e5e;}.cls-5{fill:#bcc6c6;}.cls-6{fill:#c4c5c5;}.cls-7{fill:#655050;}.cls-8{fill:#372d2d;}.cls-9{fill:#424242;}.cls-10{fill:#3c4949;}.cls-11{fill:#c6c4c4;}.cls-12{fill:#aabdbd;}.cls-13{fill:#757171;}.cls-14{fill:#393030;}.cls-15{fill:#717676;}.cls-16{fill:#a8b8b8;}.cls-17{fill:#cac1c1;}.cls-18{fill:#bdc7c7;}.cls-19{fill:#bcd1d1;}.cls-20{fill:#e5cec9;}.cls-21{fill:#2c2929;}.cls-22{fill:#c5c5c5;}.cls-23{fill:#95aaaa;}.cls-24{fill:#bdafaf;}.cls-25{fill:#8c9d9d;}.cls-26{fill:#445656;}.cls-27{fill:#b9a6a6;}.cls-28{fill:#595252;}.cls-29{fill:#576b6b;}.cls-30{fill:#5f6767;}.cls-31{fill:#cdc2c2;}.cls-32{fill:#abbfbf;}.cls-33{fill:#bfb4b4;}.cls-34{fill:#9a8686;}.cls-35{fill:#9babab;}.cls-36{fill:#3c5252;}.cls-37{fill:#acb8b8;}.cls-38{fill:#97a1a1;}.cls-39{fill:#a78b86;}.cls-40{fill:#92a7a7;}.cls-41{fill:#a18d8d;}.cls-42{fill:#594242;}.cls-43{fill:#342c2b;}.cls-44{fill:#bdaeae;}.cls-45{fill:#bccaca;}.cls-46{fill:#a29595;}.cls-47{fill:#697e7e;}.cls-48{fill:#7a7070;}.cls-49{fill:#9a9494;}.cls-50{fill:#544f4f;}.cls-51{fill:#fefefe;}.cls-52{fill:#fcfdfd;}.cls-53{fill:#486060;}.cls-54{fill:#616161;}.cls-55{fill:#535555;}</style></defs><g id="Capa_2" data-name="Capa 2"><g id="Capa_1-2" data-name="Capa 1"><path class="cls-1" d="M228,2.38c1,.23,2.2-.32,3.18.45,1,0,2,.12,3.06.09.67,0,1.06.69,1.76.54a1.8,1.8,0,0,1,1.77.34.62.62,0,0,0,.45,0c1.27-.21,2.43.46,3.66.48.72,0,1.2.69,2,.52a6.84,6.84,0,0,1,1.81.1l.51.67,1.93.24c.68.07.65.5,1,.75l2,.27.55.77c.31.73,1.17.64,1.63,1.07s1.4.17,2,.51l.9.75,1.39.16.57.82h2s1,.44,1.49.63a22.06,22.06,0,0,0,2.79,1.22c.94.23,1.45,1.32,2.53,1.16a11.36,11.36,0,0,0,3.91,2c.31.81,1,.83,1.72.9.36,0,.44.37.61.74l1.43.27c.36.19.37,1,1.13.86.2,0,.59.09.64.23.25.78,1.23.62,1.6,1.32s1.13.36,1.65.81a11.56,11.56,0,0,0,2.55,1.67c.85.39,1.42,1.32,2.48,1.3.28.6,1,.7,1.35,1.22a.87.87,0,0,0,.68.53c1,.12,1.55.92,2.3,1.39.46.29.8.82,1.28,1a9.11,9.11,0,0,1,3.13,2.43l1.23.11c.47.39.78,1.05,1.44,1.3.24.78,1.23.3,1.58.92l.57,1,1,.15c.14.24.25.67.46.72a6,6,0,0,1,3,2c.17.18.59.14,1,.23A7.49,7.49,0,0,1,305,38.64a1.79,1.79,0,0,0,1.62,1.15c.59,0,.38.84.93.93.39.05.85.06,1,.52.22.74,1.18.27,1.46,1,.2.52,1,.61,1.25,1.24.05.16.4.19.61.3a12,12,0,0,1,2.77,2c1.45,1.41,3.45,2.14,4.62,3.86a.55.55,0,0,0,.19.15A9.93,9.93,0,0,1,322,51.36c.7.54,1.35,1.16,2,1.73.52.44,1.29.45,1.57.9s1.05.59,1.19,1c.26.72,1,.71,1.36,1.26a3.64,3.64,0,0,0,1.47,1.11,4.61,4.61,0,0,1,1.24,1.09c.4.5,1.18.53,1.38,1.23a24.17,24.17,0,0,1,4.21,3.19,4.43,4.43,0,0,1,1.37,1.43c.28.64.81.37,1.18.61a5.53,5.53,0,0,0,1.74,1.83l.09.82a11.17,11.17,0,0,1,3.05,2.5,10.8,10.8,0,0,1,1,1A4.55,4.55,0,0,0,347,72.4l.66.21c.43.28.15,1,.7,1.15s.45.72.75.79c.68.18.65,1.14,1.34,1.15s.68,1,1.35,1.17c.43.14.59.88,1.15,1.06.1.79,1.06.57,1.35,1.14.39.75,1.56.53,1.81,1.44,0,.08,0,.21,0,.23,1.09.69,2.15,1.45,3.47,1.33a9.31,9.31,0,0,0,1.22.88h1.7A10.9,10.9,0,0,0,363.75,84a4.82,4.82,0,0,1,2.93.36c.32,0,.72-.12.94,0a4.75,4.75,0,0,0,2.82.46l1.77.89,2.3.2a13.7,13.7,0,0,0,2,1c.64.38,1.33.28,2,.62a6.22,6.22,0,0,0,2.25.3c.18.26.3.45.5.73l2.33.29a4,4,0,0,0,.51.64c.51.46,1.38-.14,1.86.72.36.65,1.3.3,1.93.72a4.55,4.55,0,0,0,1.91.79,6.68,6.68,0,0,1,1.9.89c.54.27,1.23.34,1.42,1.1a.49.49,0,0,0,.39.22c.84-.08,1.26.61,1.84,1a2.41,2.41,0,0,1,1.69.65,6.3,6.3,0,0,0,2.31,1.12c.57.2.79.73,1.29,1.06l1.1.18,1.77,1.7,1.18.24c.35.21.27.77.73.86s.46.3.63.6.7.39.89.69.26.5.61.61a1.86,1.86,0,0,1,.7.59c.9,1,2,1.91,2.82,3a9.87,9.87,0,0,1,2.17,3.36c.89.24.71,1.12,1.06,1.67a3.57,3.57,0,0,1,.87,1.8c0,.5.43.6.76.84l.24,1.9.8,1c.06.7.11,1.49.17,2.29a17.34,17.34,0,0,0,.93,1.8v11.48a16,16,0,0,0-.93,1.85c-.07,1.09-.14,2.12-.21,3.07-.09.14-.12.23-.18.27a2.89,2.89,0,0,1-.43.2c-.41.79-.18,1.71-.39,2.54l-.67.54a10.32,10.32,0,0,0-.15,1,2.76,2.76,0,0,1-.56,1.53,9.9,9.9,0,0,0-.88,1.89.39.39,0,0,0,0,.24c.15.84-.95,1.11-.91,1.85s-.53,1.11-.62,1.77a7.11,7.11,0,0,1-1.05,2V152a1.12,1.12,0,0,0,.17.22,71.32,71.32,0,0,1,6.05,6.55,2.2,2.2,0,0,1,.63,1.25c0,.55.84.43.86,1s.63.44.78.76.09.86.32,1.11c.53.56.83,1.27,1.34,1.83a1.8,1.8,0,0,1,.49,1.06l-.06,1.22c1,.77,1.25,2.07,1.92,3.09-.19.86.59,1.22,1,1.91a9.9,9.9,0,0,0,0,1.08.5.5,0,0,0,.47.43c-.2.62.36,1,.49,1.5.43,1.69,1,3.35,1.43,5a13.08,13.08,0,0,1,.53,2.22,21.57,21.57,0,0,1,.48,2.93c.45.31.23,1.09.88,1.26a5.61,5.61,0,0,0,.85,3.09c.18,5,.17,9.83,0,14.73-.73,1.73-.73,1.73-.94,5.8-.26.55-.54,1.11-.83,1.71-.05.68-.1,1.4-.17,2.24l-.78,1.6c-.07.63-.13,1.26-.2,1.9-.37.43-.74.84-1.23,1.39,0,.47-.07,1.1-.11,1.82h0a4.15,4.15,0,0,0-.86,1.94A3.94,3.94,0,0,1,424,224a2.4,2.4,0,0,0-.52,1.53,1,1,0,0,1-.37.84,2.22,2.22,0,0,0-.65,1.47c0,.19-.47.33-.78.54-.15.69-.06,1.47-.71,2.13a4.68,4.68,0,0,0-1.09,2c-.23.8-1,1.07-1.3,1.79s-.76,1.16-.84,1.89a1.19,1.19,0,0,1-.69.92c-.35.19-.74.31-.72.82-.64.37-.27,1.35-.85,1.61s-.64,1-1,1.51-.59,1.46-1.45,1.73c-.78,1-1.64,2-2.31,3.15-.29.48-1.13.36-1,1.12-2.54,2.41-4,5.77-7.83,7.08.47,2.07-1.45,1.6-1.79,2.7-.23.71-1.15.57-1.33,1.26-1.26.72-2.19,1.9-3.5,2.56a1.52,1.52,0,0,0-.36.31c-.47.45-1.53,0-1.62,1-.57.4-1.13.81-1.71,1.19s-1.18.44-1.64.92-1.31.48-1.8,1.12c-.29.36-1,.42-1.48.62-1.5.6-2.84,1.63-4.51,1.87-.14,0-.24.34-.43.63l-2.3.23c-.17.12-.38.25-.34.56a6.15,6.15,0,0,1-2.46.31l-1.91.88a9.36,9.36,0,0,0-2.73.18,12.08,12.08,0,0,1-3.54.41l-.81.49c-2-.18-4.07.56-6.14.29a37.05,37.05,0,0,0-5.49-.3l-.85-.5h-3.51c-1-.89-2.32-.39-3.48-.74l-.41-.61-2.15-.19c-.59-.05-.79-.45-1.21-.77-1.39.05-2.79-.53-4.34-.74l-1.47-1.22-1.45-.23c-.22-.18-.51-.6-.84-.63-1.32-.11-2.27-1-3.37-1.52a19.06,19.06,0,0,1-3.58-1.89,17.76,17.76,0,0,0-3.47-2.31,20.14,20.14,0,0,1-1.79-1v-1a7.52,7.52,0,0,0,1.8-2.48c.44-.5,1.35-.44,1.47-1.08,1.05-.69,3.54.6,5,2.1l1.39.28.39.65,1.56.34.38.64,1.47.27c.5.67,1.53.81,2.23,1.47a1.2,1.2,0,0,0,.64.28,2.54,2.54,0,0,1,1.92.81c1.7.07,3,1.32,4.65,1.57,0,.57.49.77,1,1.06h2.55a4.87,4.87,0,0,1,1.08,1h3.64c1.79,0,3.64-.39,5.37.38l3.8-.05c.69-.57,1.51-.38,2.29-.41,1.11-.05,2.24,0,3.33-.14a19.1,19.1,0,0,0,2.93-.83c.19-.06.33-.3.49-.46,1.52.12,2.91-.74,4.31-.52.66-.36,1-1,1.76-.91,1.88-1.06,4-1.55,5.75-3,.64-.55,1.68-.46,2.22-1.25.88-.1,1.22-1.31,2.27-1.12.18,0,.32-.28.47-.42a4.72,4.72,0,0,1,1.83-1.36c.85-.21,1.11-1,1.84-1.28a11.25,11.25,0,0,1,2.55-2.22c.8-.69,1.39-1.71,2.27-2.36.68-.51,1.53-.91,1.91-1.67s1.36-1,1.8-1.76c.15-.27.45-.45.6-.71a24.46,24.46,0,0,1,2-2.51c.4-.54,1.23-.75,1.26-1.57.66-.23.63-1,1.2-1.4a5.17,5.17,0,0,0,1.11-1.69,21.2,21.2,0,0,1,1.68-2.22,26.13,26.13,0,0,0,1.91-2.92,6.24,6.24,0,0,0,.58-1c.31-.83,1.41-1.09,1.42-2.13,0-.82,1.11-1.17,1-2.08a5,5,0,0,0,1-2.08c.07-.34.48-.6.78-1,.05-.4.12-.87.19-1.37.22-.18.44-.38.69-.6l.27-1.39.68-.61c.09-.68.17-1.39.26-2.12.09-.3.4-.4.75-.56.08-.7.16-1.41.23-2l.75-1c.08-.86.15-1.73.23-2.69,1.17-1.16.79-2.74.87-4.23.57-.47.46-1.13.49-1.76l.68-.17a1.44,1.44,0,0,0,.16-.45c.14-5.34.18-10.69,0-16a5.47,5.47,0,0,0-1.29-3.64c.06-.53-.26-.89-.6-1.32.38-1.47-.69-2.83-.47-4.25-.24-.77-1-1.17-.89-2a1.16,1.16,0,0,0-.38-1.09,1.76,1.76,0,0,1-.64-1.47c0-.4-.05-.78-.55-.92a.47.47,0,0,1-.28-.35c.14-1.28-1-2.12-1.12-3.29-.1-.71-1.21-.83-1-1.72-.89-.68-.72-2.07-1.76-2.65-.19-1.07-1.14-1.62-1.66-2.45-.37-.59-1-1.06-1.21-1.68-.24-.82-1.22-.76-1.42-1.5,0-.07-.11-.11-.16-.18-.72-.86-1-2-2.32-2.58a8.13,8.13,0,0,0-2.75,2.83,4.22,4.22,0,0,1-2,1.88l-.1.54c0,.78-1.06.52-1,1.26a7.53,7.53,0,0,1-1.4.8c-.63.2-.76,1.07-1.52,1a15.59,15.59,0,0,1-4.25,2.42c-.25.1-.4.43-.7.77l-2.27.29-.5.61c-.44.3-1.12.06-1.73.25l-8.17,0a5,5,0,0,1-1.55-.51,3.52,3.52,0,0,0-2-.55,14.74,14.74,0,0,0-3-2,6.68,6.68,0,0,1-2.76-2.49c-.57-.9-1.59-1.57-1.76-2.68a8.54,8.54,0,0,0-1-2.22v-4.74a3.51,3.51,0,0,0,.8-1c.07-.58.14-1.21.21-1.83.47-.57,1-1.07.94-1.87.82-.3.91-1.18,1.4-1.74a13.09,13.09,0,0,0,1.34-1.54c.19-.29.56-.29.79-.45,2.16-1.57,4.7-2.26,7.14-3.22a14.71,14.71,0,0,1,2.55-.4,28,28,0,0,1,5.65-.59,46.91,46.91,0,0,1,4.92.64c.91.1,1.67.88,2.67.7.88.7,2,.45,3,.68.09.16.17.5.31.53,1.52.31,2.68,1.52,4.12,1.72a1.29,1.29,0,0,0,1.05-1c.37-1.59,1.33-2.94,1.68-4.55a8.43,8.43,0,0,1,1.2-2.1c.05-.45.1-1,.15-1.62l.73-.66c0-.45.09-1,.15-1.55.73-.62.83-1.61,1.33-2.31.16-4.41.2-8.76,0-13.17-.47-.72-.63-1.68-1.33-2.34a1.93,1.93,0,0,0-.41-1.1,2,2,0,0,1-.5-.78,2.35,2.35,0,0,0-.87-1.8c-.4-.31,0-1.24-.81-1.53-.5-.17-.28-1.1-1-1.16-.32-.88-1.45-1.29-1.34-2.34a39.1,39.1,0,0,1-3.54-2.82c-.55-.56-1.26-.89-1.78-1.52a3.27,3.27,0,0,0-2.08-1c-.48-.06-.62-.64-.87-1.16l-1.43-.27a3.37,3.37,0,0,0-.48-.62c-.47-.43-1.34,0-1.67-.69s-1.16-.29-1.74-.75l-.33-.58c-1.76-.32-3.32-1.4-5-2.18a29.51,29.51,0,0,0-5-2.07,26.56,26.56,0,0,0-2.65-.89,7.29,7.29,0,0,1-2-1.09c-.79-.24-2,.11-2.65-.86-.86-.34-1.77,0-2.58-.55-.42-.26-1.09-.09-1.64-.15a3.93,3.93,0,0,1-2.69-1.36,23.63,23.63,0,0,1-6.76-1.33c-.06,0-.1-.12-.13-.18s0-.16-.08-.31l-2.58-.34-.4-.68c-.76-.29-1.85,0-2.5-1-.13-.19-.59-.14-.9-.21a2.83,2.83,0,0,1-2-1.07c-.41-.67-1.08-.88-1.62-1.31,0-.23-.07-.46-.1-.66a4.19,4.19,0,0,1-1.81-1.5c-.45-.76-1.33-1-1.83-1.69s-1-1.17-1.54-1.82l-.59,0c-.22-.08-.58-.11-.64-.26-.21-.55-.93-.71-1.07-1.12-.25-.75-1.08-.57-1.4-1.16s-.87-.89-1.21-1.41c-.47-.71-1.35-.88-1.86-1.57a8,8,0,0,0-1.94-1.66,25.68,25.68,0,0,1-2.57-2.42L332.23,69c-.83-.95-2-1.66-2.48-3a4.1,4.1,0,0,1-1.33-.6c-.26-.29-.62-.46-.82-.71A18.05,18.05,0,0,0,325,62.52c-.86-.77-1.79-1.45-2.69-2.15-.41-.32-1-.43-1.29-1s-.83-.65-1.25-1-.83-1-1.6-.93c-.13,0-.29-.11-.41-.21-1-.79-2-1.57-2.9-2.38-.36-.3-.63-.71-1-1s-.83-.3-1-.86c-.13-.38-.89-.23-1-.88,0-.18-.51-.28-.77-.44a11,11,0,0,1-2.57-1.86,23.69,23.69,0,0,0-3.33-2.52c-.68-.54-1.33-1.11-2.1-1.73l-.89-.09c-.54-1-1.79-1.52-2.39-2.58-.87,0-1.18-.94-1.9-1.17-.38-.12-.8-.13-.83-.66-.86-.31-1.24-1.36-2.24-1.45-1-.89-2.19-1.41-3.14-2.36s-2.23-1.19-2.94-2.17l-.78-.1c-.42-.1-.49-.41-.57-.7-.29-.38-.77-.14-1.11-.35-.09-.12-.19-.23-.28-.36s0-.17-.08-.21a17.45,17.45,0,0,1-3.27-2.47c-.13-.15-.45-.17-.68-.19a.9.9,0,0,1-.83-.38c-.31-.6-1.12-.52-1.42-1.17s-1-.28-1.48-.55c-.24-.14-.31-.61-.55-.69-.89-.31-1.45-1.21-2.47-1.29-.21,0-.39-.44-.58-.66l-1.2-.23a9.9,9.9,0,0,0-4.35-2.26c-.37-.48-.45-1.26-1.19-1.34s-.81-.74-1.47-1.21h-1.07a3.48,3.48,0,0,1-1.53-.82c-.5-.47-1.23-.31-1.72-.71-.06-.16-.11-.3-.17-.44a2.35,2.35,0,0,0-.42-.21c-.59-.15-1.29,0-1.73-.62a.81.81,0,0,0-.6-.33c-1.26.07-2.16-.91-3.31-1.09-.57-.1-.48-.81-1-.87s-1,0-1.16-.2c-.91-1-2.42-.62-3.38-1.55-.35-.32-1.2-.11-1.56-.43-1.06-.95-2.53-.88-3.42-1.64-1.11-.24-2.07,0-3-.55-.35-.22-.94-.05-1.42-.05l-.17-.79a6.9,6.9,0,0,1-4.08-1c-1.92-.1-3.68.11-5.34-.59a5.34,5.34,0,0,0-2.3-.42H227l-.84-.49c-1.39-.07-2.75.35-4-.43-.18-.11-.47,0-.71,0l-4.54,0-2.82,0-.15-.69a64.25,64.25,0,0,0-9.91,0l-.17.69-7.57.13-1.89.8-3.64.2-1.15.77A8.62,8.62,0,0,1,187.22,9H185.5a7.93,7.93,0,0,1-1.14,1.63,2.06,2.06,0,0,0-2.13.5c-.7.58-1.58.15-2.09.56l-.4.67c-.55.29-1.19-.09-1.56.33l-.36.65a10.19,10.19,0,0,0-4.56,2.56c-.45.86-1.42,1.14-2,1.82-.64,0-1,.43-1.4.82s-.78.34-1,.88-.83.85-1.33,1.19c-1.6,1.09-2.88,2.53-4.36,3.74-.83,1.56-2.38,2.52-3.3,4-.26.42-.77.48-1,1s-1,.62-1.15,1.31c-.81.15-.65,1-1,1.44s-.75,1-1.13,1.51l-.69.11c-.5.33-.5.95-.79,1.4.28,1.11-.65,1.77-1.14,2.49a11.71,11.71,0,0,1-2.37,2.09c-1.53.24-2.88,1.19-4.51,1.12a51.47,51.47,0,0,0-5.27,0c-.71,0-1.17-.46-1.8-.47-.88,0-1.76,0-2.75,0l-.86-.5c-4.64-.11-9.43-.13-14.21.11l-.59.71c-1.16.27-2.38,0-3.5.4l-.25.56-2.27.3a.59.59,0,0,0-.4.54c-.63.42-1.39.23-2.07.42a2.8,2.8,0,0,0-.4.27,11.14,11.14,0,0,1-1.64,1.37c-.54.29-1.2.35-1.51,1-1.36.15-2.08,1.36-3.16,2s-2,1.23-3,1.9a34.85,34.85,0,0,1-4.09,3,1.18,1.18,0,0,0-.55.42c-.48.89-1.45,1.25-2.13,1.94s-1.23,1.29-1.91,1.85-1.52,1.27-2.26,1.93S90,59.54,89.38,60.17a4.31,4.31,0,0,0-1.1,1.22,3.24,3.24,0,0,1-1.21,1.42,11.47,11.47,0,0,0-2.79,2.68,4,4,0,0,1-1,.52,7.55,7.55,0,0,1-1,1.78c-.44.66-1.3.91-1.49,1.73l-.75.1a2.31,2.31,0,0,0-.29.32c-.47.76-.48,1.81-1.41,2.29-.18.93-1.1,1.32-1.5,2.11-.63,1.22-2,2-2,3.57-.39.32-1,.39-1,1.16.05.61-.69.88-.82,1.39a1.73,1.73,0,0,1-.82,1.31c.12.94-1,1.13-1.18,1.88-.18.6-1,.84-1,1.58s-1,.7-1.08,1.4c-.68.12-.79.87-1.32,1.2s-.62,1-1.26,1.26c0,.49-.47.52-.81.7s-.64.43-.64.66c0,1.18-.93,1.59-1.73,2A10,10,0,0,0,59.83,95a15.59,15.59,0,0,1-2,1.57,4.71,4.71,0,0,1-2,1.45c-.53.12-1,.76-1.55,1-.15.86-1.23.45-1.45,1-.33.78-.94.68-1.53.83a3.47,3.47,0,0,0-1.26.59,6.78,6.78,0,0,0-.88,1.08c-.35.34-1.19,0-1.27.78-1.73.65-3.13,2-5,2.36-.35.48-.43,1.24-1.2,1.28a2.16,2.16,0,0,0-1.44.74c-.49.5-1.29.1-1.78.52a2.48,2.48,0,0,1-1.67.8,3.59,3.59,0,0,0-2,.73c-.56.38-1.52-.15-1.82.81,0,.1-.27.19-.41.2a2.82,2.82,0,0,0-1.93.77c-.34.33-1,.28-1.63.42l-.39.65c-.19,0-.49.15-.79.21a4.09,4.09,0,0,0-2.9,1.64c-.8,0-.91,1.06-1.62,1.14s-1.22.72-1.76,1.13c-1.65,1.26-3.2,2.64-4.8,4a8.1,8.1,0,0,0-1.66,2c-1.11.23-1.13,1.39-1.73,2.06s-1.12,1.37-1.68,2.07-.68,1.72-1.44,2.38c-.34.29-.22,1.06-.43,1.56s-.81.51-.73,1.11c.12.81-.49,1.3-.92,1.94a6.75,6.75,0,0,1-.79,3.12A2.43,2.43,0,0,0,7.23,138c-.06,1.43-.09,2.87-.15,4.31,0,.86.2,1.76-.35,2.56,0,1.33-.31,2.67.23,4a3.84,3.84,0,0,1,.12,1.41c.06,1.51.1,3,.14,4.55.7,1.08.31,2.31.49,3.51a7.62,7.62,0,0,1,.5,1c.12.33.4.44.75.63l.3,2.32c.22.18.55.33.66.58.3.67.08,1.6,1,2a5.25,5.25,0,0,0,1.75,3c.16.15.21.41.34.6.39.57.45,1.55,1.15,1.69s.57,1.4,1.51,1.23c.4.38.8.76,1.22,1.12a1.12,1.12,0,0,0,1.09.19,3.56,3.56,0,0,0,1.26-2.1c0-.49.5-.57.69-.87s.13-.9.39-1.08c.94-.68.74-1.88,1.09-2.24.53-1,1.34-.86,1.5-1.47s1-.77,1-1.19c0-1,1.21-1,1.28-1.81.77-.11.67-1.28,1.54-1.26,1.52-1.7,3.51-2.78,5.33-4.09,1-.72,2.16-1.15,3.16-1.88a1.23,1.23,0,0,1,.9-.18c.57.12.84-.38,1.28-.49,3.78.06,7.56-.07,11.24.06l.61.9H50.9a1.08,1.08,0,0,1,.46.08,12.85,12.85,0,0,0,1.81,1.44,4.16,4.16,0,0,1,1.48,1.65,11.31,11.31,0,0,1,1.54,3.56c0,3,0,6.08,0,9.12-.21.9-.2,1.94-1.34,2.15l-.11,1.46c0,.07-.18.27-.32.46a8.79,8.79,0,0,0-1.37,1.9c-.73,1.93-2.39,2.85-4,3.76-.62.35-1.07.95-1.74,1.15a3,3,0,0,0-1.65.81c-.17.2-.58.21-.88.29s-.58,0-.69.13c-.77,1-2.11.52-3,1.2-1.25,0-2.4.64-3.69.58-1.91-.08-3.82,0-5.73,0a3.6,3.6,0,0,1-2.08-.33,2.57,2.57,0,0,0-1.16-.11c-.87,0-1.75,0-2.62,0-.61-.83-1.66-.25-2.43-.77a3.1,3.1,0,0,0-2.1-.08c-.1.79-.19,1.48-.27,2.17l-.72.2-.43.14c-.34.55.09,1.25-.39,1.81s-.11,1.28-.39,1.73v2.11c-1.23,2-1.25,2.11-1.28,6.29A9.51,9.51,0,0,0,17,199v5.9c0,4.12,0,8.24,0,12.35a9.62,9.62,0,0,0,1,4v2.88c.93.94-.09,2.45,1,3.29v2a4.62,4.62,0,0,0,1,1.82v2c.18.59.12,1.6,1.07,1.83,0,.71.49,1.14.9,1.69l.21,1.87a2.57,2.57,0,0,1,.56.4c.43.5,0,1.43.64,1.71s.6.9.65,1.39c.05.64.87.63.9,1.29a1.39,1.39,0,0,0,.65,1.39c.48.27.39,1.08.81,1.62a39.27,39.27,0,0,1,2.77,3.41,32.35,32.35,0,0,0,3,3.3,17.9,17.9,0,0,0,4.26,3.55c.55.35.81,1.18,1.66,1.07.33.59,1,.64,1.47,1a8.93,8.93,0,0,0,2.25,1.17c.19.07.3.35.45.54s0,.2,0,.22c1.1.67,2.17,1.45,3.44,1.31.47.37.84.67,1.26.95h1.72l1,1h1.82c.16,0,.39,0,.49.07.63.6,1.52.52,2.26.79a7.75,7.75,0,0,0,2.47.15l6,.14,1.13.85H69.7a13.49,13.49,0,0,1,.84-1.14c3,0,6.16,0,9.27,0A9.22,9.22,0,0,0,83.1,264h2.38a1.71,1.71,0,0,1,.68-.48.92.92,0,0,0,.76-.47l1.46-.08,1.17-.81c.83-.13,1.77.17,2.48-.55a7,7,0,0,0,2.52-.57c1.22-.52,2.56-.71,3.76-1.32.89-.46,1.84-.8,2.75-1.2a12,12,0,0,1,3-.92l.63-.68,2-.32.4-.68a3.88,3.88,0,0,0,2-1,7.06,7.06,0,0,1,1.85-1,13.79,13.79,0,0,0,3.81-2.3,2.17,2.17,0,0,1,1.66-.72.75.75,0,0,0,.79-.43c.29-.91,1.13-1.27,1.8-1.66a10.14,10.14,0,0,0,2.67-2.15,1.82,1.82,0,0,1,.74-.54,11.89,11.89,0,0,0,3.74-2.9c.31-.33.93-.32,1-.9.76,0,1.22-.61,1.87-.85.48-1.06,1.51-1.64,2.26-2.46a30.63,30.63,0,0,1,2.53-2.7c.13-.11.07-.45.11-.68a3.41,3.41,0,0,1,.42-.56c1.22-1,2.13-2.3,3.26-3.4a5.28,5.28,0,0,0,1.51-2,1.52,1.52,0,0,1,.64-.9c.42-.27.53-.87,1.06-1.17.32-.19.37-.82.57-1.24s.28-.87.84-1c.26-.07.65-.47.62-.65-.18-1,1.11-1,1.21-1.89a4.31,4.31,0,0,1,1-1.78,2.73,2.73,0,0,0,.83-1.53c1-.55,1-1.76,1.61-2.62a26.27,26.27,0,0,0,1.51-2.94c.48-1,1.38-1.77,1.28-3a1.6,1.6,0,0,0,.82-1.56c0-.61.55-.92.66-1.47s.37-1.35.54-2l.47-.22c.48-.88-.06-2.14,1-2.78.28-1.65.55-3.28.84-4.94a2.92,2.92,0,0,0,1.3-2.54c0-.72,0-1.44,0-2.17.12-.19.35-.39.35-.6,0-1.33.76-2.51.72-3.88a12.58,12.58,0,0,1,.55-3.48,7.5,7.5,0,0,0,.24-1.87c0-.88,0-1.77,0-2.64a15.1,15.1,0,0,0-.59-4.92,8.18,8.18,0,0,1-.27-1.62,7.34,7.34,0,0,0-.73-3.43,7.52,7.52,0,0,1-.44-2.11c-.23-.23-.71-.5-.72-.77,0-1.35-1.15-2.22-1.37-3.47-.91-.36-.34-1.61-1.34-2.07-.67-.32-1.1-1.18-1.64-1.8l-1.21.16c-.39.08-.31.68-.57.68-1.13,0-1.57,1.33-2.7,1.32-.11,0-.18.44-.35.53-.8.42-1.3,1.32-2.37,1.33a2.35,2.35,0,0,0-1.29.5,3.35,3.35,0,0,1-2.06.46l-2.11-.11-1.23,1c-.85,0-1.8.06-2.74,0s-1.74.71-2.73.5c-.21-.05-.36.24-.39.49-3.09.12-6.18.14-9.28,0a7.9,7.9,0,0,1-2.35-.14,7.56,7.56,0,0,0-3.25-.38c-1.83-.19-3.41-1.17-5.25-1.52-.12-2.09,1.07-3.71,1.42-5.51l1.16-1,1,.76,3.3.25.44.65a6.31,6.31,0,0,0,.82.11c4.23.2,8.47.2,12.7.08a6.5,6.5,0,0,0,2.77-.46,6.74,6.74,0,0,1,3.39-.58l1-.77,1.85-.27c.47-.58,1-1,1.75-.85.78-1.07,2-1.53,2.8-2.52s1.9-1.83,2.67-3,1.19-2.15,1.83-3.21c-.73-.42-1.44-.46-2-1s-1.64-.51-2.21-1.24a2.52,2.52,0,0,1-1.66-.82c-.34-.37-.93-.49-1.38-.82A24.61,24.61,0,0,0,139,143a6.87,6.87,0,0,1-1.87-1.41,16.93,16.93,0,0,0-3.12-2.79l-.13-.79a5.1,5.1,0,0,1-1.86-3.3,1.31,1.31,0,0,0-.85-1.12,25.06,25.06,0,0,1,0-4.58c.18-.49.73-.47.81-.93s.21-.92.31-1.38c.91-.34.94-1.36,1.5-2a3.81,3.81,0,0,1,1.37-.87c.59-.26,1-.68,1.57-1a13.85,13.85,0,0,0,3.06-.49,1.58,1.58,0,0,1,1.17-.05c1.37.58,2.84.27,4.29.58l.94.71,1.38.2a11.21,11.21,0,0,0,1.66,1.36,3.22,3.22,0,0,0,1.75.59,1.69,1.69,0,0,0,1.68,1c.48.13.35.69.69.9a6.2,6.2,0,0,1,2.18,2.69,4.28,4.28,0,0,0,1.26,1.31,9.78,9.78,0,0,0,.83,2,4.23,4.23,0,0,1,.48,1.59v3.18c.37.81,1.07,1.7.69,2.88-.16.38-.78.22-.84.82a23.72,23.72,0,0,0,.05,2.54,1.11,1.11,0,0,0,1,.18c1.84,0,3.68,0,5.51,0,.69,0,1.14-.52,1.8-.5,1,0,1.94-.49,3-.53s1.76-.9,2.8-1.07c.48-.08.88-.64,1.4-1,.54-.25,1.32,0,1.91-.56s1.38-.4,1.83-1,1.39-.3,1.61-.85c.3-.73,1.31-.57,1.4-1.39a2.33,2.33,0,0,0,1.58-1.21c.39-.59,1.15-.75,1.65-1.29,1.28-1.41,2.68-2.72,4-4.08a10.1,10.1,0,0,0,1.46-1.84,19.8,19.8,0,0,1,2-2.35l.23-1a20.83,20.83,0,0,0,1.67-1.71,3.49,3.49,0,0,0,.28-1.23l.81-.72.07-1.21c.15-.44,1.06-.29.9-1.12-.11-.61.66-.85.89-1.47l.09-1.17.81-1.07c0-.15.08-.3.1-.46a2.49,2.49,0,0,1,.31-1.36,2.78,2.78,0,0,0,.6-1.48,5.6,5.6,0,0,1,1.35-3l.22-2.36.74-1c.07-.88.15-1.83.22-2.83.22-.29.86-1,.86-1V99.31c0-.57.79-.88.57-1.53-.29-.83.62-1.41.49-2.26a14.16,14.16,0,0,1,0-2.16c1-1.52.63-3.54,1.88-5-.11-.94,1.31-.66,1.05-1.64a18.62,18.62,0,0,1,4.83,0c.69.72,1.5,1.49,2.21,2.34s.92,2.12,1.77,3a1.1,1.1,0,0,1,.18.44,12.41,12.41,0,0,0,2.61,5.29c.39.53.28,1.24.8,1.7s.45,1.61,1.24,2.19c.61.44.61,1.34,1.08,2a7.53,7.53,0,0,1,1.24,2.23c.21.7.79,1.08,1.09,1.67s.09,1.14.8,1.33c.1,0,.19.27.2.41a2,2,0,0,0,1,1.75,2.46,2.46,0,0,0,1,1.8c-.12.76,1,.72.95,1.48s.84,1,1,1.59c.13.77,1.4.68,1.12,1.65.87.29.66,1.38,1.34,1.81s.68,1.27,1.41,1.55c1.26,2.45,3.56,3.88,5.55,5.6.27.24.52.5.78.72a15.48,15.48,0,0,0,2.38,1.77c.57.3,1.33.46,1.62,1.23a1.35,1.35,0,0,0,.73.55c1.55.67,2.89,1.84,4.64,2,.6.06.56.92,1.27.9.5,0,1.15,0,1.34.7a16.8,16.8,0,0,1,3.29,1.19c.36.14.8.1,1.14.26s.34.51.58.65a9.77,9.77,0,0,0,3.07,1c.7.12,1.42.12,2.16.18l.8.7,1.78.22c0,.23.09.46.19,1a2.88,2.88,0,0,1,2.32.41h2.95c.73.93,2,.13,2.83.76a1.65,1.65,0,0,0,.9.17c2.82,0,5.65.06,8.46,0l.15-.82,2.1-.12.71-.64a.91.91,0,0,1-.21-.24,44.09,44.09,0,0,0-3-3.45c-.38-.5-.36-1.44-1.3-1.48-.09,0-.25-.26-.23-.37.14-.76-.44-1.14-.81-1.63s0-1.16-.79-1.36c-.14,0-.27-.39-.27-.6,0-.67-.56-.92-1-1.48l-.26-1.82-.6-.41c-.29-.38-.16-1-.34-1.57l-.65-.54-.15-.69v-1.83s-.58-.77-.92-1.19a6.15,6.15,0,0,0-.5-2.62c-.15-.35-.18-.83-.33-1.24.69-.55-.18-.92-.18-1.43,0-3.49-.17-7,.1-10.46l.81-1c.06-.65.12-1.36.18-2.07l.48-.1c.1-.1.26-.18.3-.31.88-2.61,3.12-3.9,5.18-5.35a9.64,9.64,0,0,0,2.71-1l2.82-.14.85.52c.52,0,1.08,0,1.64,0s1.12-.16,1.4.08c.79.7,1.85.25,2.67.86s2,.47,2.65,1.34c1.12,0,1.68,1.14,2.74,1.22.64.61,1.28,1.21,1.91,1.83a31,31,0,0,1,3.79,4.06,2.67,2.67,0,0,1,.54,1.23c.24.61.75.35.87.72l.1.71c.92,2.21,2,4.36,2,6.85,0,.07.08.14.1.22.54,2,.24,4.07.18,6.11-.54.87-.19,1.86-.4,2.84-.86,1.5-.86,1.5-.86,2.73a4.29,4.29,0,0,1-.49,1.8c-.63.86-.38,2.18-1.41,2.76l-.14,1.2c-1,.58-.95,1.94-1.81,2.74,0,1-.92,1.34-1.38,2a17.9,17.9,0,0,0-1.76,2.22,9.45,9.45,0,0,1-1.67,1.9,1.18,1.18,0,0,0,.18,1.09l1,.2c.15,0,.16.4.36.75a5.69,5.69,0,0,1,1.06.24c.58.24,1.12.57,1.68.84s.94,1,1.63.9.75.69,1.23,1a7.08,7.08,0,0,0,3.52,1.05l.49.67c.57.36,1.34.12,2.14.44l.68.65,2.47.28.41.65a6.69,6.69,0,0,0,.87.13,5.93,5.93,0,0,1,2.91.76,3.11,3.11,0,0,0,.88.27c.37.93,1.35.95,2,1.24H323c.29.31.83,0,.83,0h1.71a2.72,2.72,0,0,0,1.33-.7,2.83,2.83,0,0,0,.84-2.1c.09-.13.17-.25.28-.2h1.71c.57.05.51.75,1.15.72s.72.51,1.09.91a7.82,7.82,0,0,0,2.81,0l.44-.65c.34-.32,1,0,1.47-.32a3.39,3.39,0,0,1,1.14-1c.53-.31,1.11-.55,1.61-.9a9.38,9.38,0,0,0,1.18-1.1,9.14,9.14,0,0,0,2.06-2.45c.41-.92,1.32-1.54,1.5-2.61.06-.3.57-.5.75-.81s.17-.79.37-1.12a5.73,5.73,0,0,0,.83-2.41c0-.23.39-.43.69-.73.08-.68.16-1.47.24-2.19a.59.59,0,0,1,.62-.45,19.74,19.74,0,0,0,.33-4.28c.15-.26.31-.53,0-.77v-2.66a1.6,1.6,0,0,0,.91-1.54c0-4.55,0-9.1,0-13.65,0-1,0-1.92,0-2.87,1,0,2-.06,3-.17s1.9-.7,3-.26l.64.67c0,.68,0,1.38,0,2.07,0,.19.26.36.39.54,0,4.31,0,8.62,0,12.93a5,5,0,0,1-.3,2.07,5.83,5.83,0,0,0-.06,2.14A7.29,7.29,0,0,1,354,129v3s0,2.94,0,4.5l-.71.53a26.94,26.94,0,0,1-2.33,6.54,22.07,22.07,0,0,0-1.45,2.67,7.85,7.85,0,0,1-1.6,2.18,5.13,5.13,0,0,1-.87.72l-.26,1.08c-.12.14-.2.31-.33.37-1,.48-1.24,2-2.57,2.05a13.7,13.7,0,0,1-2.7,1.84c-.63.39-1,1-1.68,1.41l-1.07.26a14.6,14.6,0,0,0,2.48,3.6c.86,1,1.76,1.95,2.65,2.91.31.33.28.71.5,1s.79.52.78.77c0,.92,1.09,1.1,1.12,1.95s1.06,1.15,1.06,2.07c0,.5,1,.47.88,1.22a1.44,1.44,0,0,0,.69,1.19.81.81,0,0,1,.22.65c-.15.85.8,1.13.89,1.75s.62,1.09.95,1.75c.05.44.11,1,.17,1.53,0,.24-.06.47-.08.69l.94,1.13c0,.39-.08.86.09,1.17a13.53,13.53,0,0,1,1.39,4.68,1.91,1.91,0,0,0,.86,1.08c.09,1.25,0,2.53.88,3.45.06,1,.11,1.86.16,2.72,0,2.68.05,5.36.05,8,0,2.44,0,4.88-.05,7.32,0,.5-.26.9-.08,1.31v2.64a1.6,1.6,0,0,0-.94,1.75,5.43,5.43,0,0,0-1,2.28c-.37,1.57-.44,3.23-1.22,4.7,0,1.1-.52,2.08-.64,3.15a5.83,5.83,0,0,0-.21.92c-.09.92-1,1.35-1.2,2.27a8.33,8.33,0,0,1-1,2.3,7.06,7.06,0,0,1-.88,1.07l-.07,1.2c-.24.5-.88.54-1,1.24-.2,1.15-1.21,1.91-2,2.71a26.53,26.53,0,0,0-1.74,2.1c-.33.45-.52.94-1.14,1.11a1.28,1.28,0,0,0-.67.65,12.54,12.54,0,0,1-2.84,3.11c-.09.09-.29.1-.44.14-.43.34,0,1.19-.8,1.32-1.31,1.59-3,2.84-4.35,4.37-.16.18-.25.37-.54.4a2.76,2.76,0,0,0-1.37.87,5.19,5.19,0,0,1-1.66,1.29c-.67.23-.81,1.07-1.49,1.46a7.38,7.38,0,0,0-1.79,1.15c-.47.5-1.11.76-1.56,1.34a4.93,4.93,0,0,1-2,1.13c-.63.26-.83,1.09-1.68,1.12-.37,0-.43.85-1,.8s-.67.56-1,.77a4.42,4.42,0,0,1-1.35.27c-.44.47-1.2.85-1.78,1.47a.92.92,0,0,1-.36.3c-.65.21-1.46.09-1.77.94a4,4,0,0,0-1.9.89c-.32.26-.9.19-1.37.27-.56.4-1,1.1-2,.83l-1.05,1.41-1.7.14-.94.81a7.57,7.57,0,0,0-4.41,1.84l-1.85.23-1,.72-2,.23-.45.65a3.73,3.73,0,0,1-.44.14c-.85.18-1.79-.08-2.56.39s-1.76-.11-2.43.68c-.15.17-.62.11-.93.08-.53-.05-.51.52-1,.77l-3.17.21c-.13.11-.25.2-.35.3s-.19.24-.34.44c-.72.06-1.51.13-2.3.18a4.9,4.9,0,0,0-1.4.24,13.57,13.57,0,0,1-4.9.74,16.45,16.45,0,0,0-2.11.27,20.66,20.66,0,0,1-2.3.53c-1.2,0-2.39.13-3.59.13-2.62,0-5.22.51-7.85.34a2,2,0,0,0-.95.09c-1.61.7-3.3.26-4.95.38a.93.93,0,0,1-.47,0c-1.5-.85-3.13-.33-4.69-.49-3.24-.33-6.51-.33-9.76-.49-1-.05-2-.5-3-.56a16.21,16.21,0,0,0-1.87-.2,1.91,1.91,0,0,1-1.13-.48h-2.8a2.48,2.48,0,0,1-.95,0c-1.41-.62-2.95-.39-4.35-.67l-.51-.67a11.19,11.19,0,0,1-3-.21,5.51,5.51,0,0,0-2.61-.32l-.72-.5-2.73-.18-.92-.73-3.38-.24-.55-.76-2.77-.21-1.08-.75-2.72-.24c-.41-.31-.69-.85-1.32-.81a2.73,2.73,0,0,0-2.32-.86h-2.12a3.31,3.31,0,0,0-1.14-1.5l-1.82-.1-1.14-.89c-1,0-1,0-1.57.38-.79.31-1.07-.53-1.77-.77l-1.74-.15-1.53-1.32c-1.48.35-2.59-.79-3.93-1.18a15.38,15.38,0,0,0-2.63-.9c-.22,0-.4-.42-.65-.71l-2.28-.29-.41-.66-1.72-.33c-.09-.23-.15-.37-.2-.51a1.26,1.26,0,0,0-.41-.22c-.69-.12-1.45,0-1.93-.75a.84.84,0,0,0-.64-.25c-1.21.1-1.89-1.17-3.05-1.16a3.1,3.1,0,0,0-1.84-1,11.29,11.29,0,0,1-1.89-.91,7.25,7.25,0,0,1-1-.53,13.63,13.63,0,0,1-1.07-1c.41-.45.33-1,.6-1.74l1.14-1.15c-.09-.68.85-1.27.68-2.22-.05-.23.17-.41.43-.46.72-.12,1,.41,1.3.91l.64,0c.35.13.84.15,1,.4.48.67,1.14.64,1.81.71a16.84,16.84,0,0,0,3,1.71,9.14,9.14,0,0,0,3.27,1.15l1.42,1.34a4,4,0,0,1,1.6.32,3.47,3.47,0,0,0,2.15.75,1,1,0,0,1,.81.42c.63.64,1.58.54,2.3,1,.1.06.3,0,.45-.08.63.59,1.57.32,2.21.72,1.35.86,3,.83,4.37,1.66.53.32,1.41,0,1.74.85,1.93.29,3.66,1.38,5.64,1.25l.64.74,2.46.29.42.63a9.47,9.47,0,0,1,2.61.47,8.2,8.2,0,0,0,3.88.76c.31,1.24,1.56.6,2.37,1.13s1.71.2,2.65.34a7.15,7.15,0,0,1,.68.55c.33.32.84.11,1.11.31a2.06,2.06,0,0,0,1.78.43c.77-.17,1.26.6,2,.49a8.07,8.07,0,0,1,2.14,0,13,13,0,0,1,2.3.54,27.89,27.89,0,0,0,4.63.54c.27.27.49.48.71.71,1.21,0,2.4.11,3.6.12a9.34,9.34,0,0,1,3.49.57,4.34,4.34,0,0,0,1.62.3l5.51.13a3.92,3.92,0,0,1,1.19,0c1.62.64,3.29.3,4.94.39.4,0,.88-.1,1.17.09a3.48,3.48,0,0,0,2.09.31,22.22,22.22,0,0,0,5.2-.32,9.83,9.83,0,0,1,3.34-.06c1.14.09,2.12-.57,3.26-.47a35.18,35.18,0,0,0,3.84,0c.31,0,.72.08.93-.08.72-.57,1.51-.37,2.29-.37h1.92a4.31,4.31,0,0,1,.9-.32h2.45s4.06-1.85,6.2-1.61a6.31,6.31,0,0,1,2-.39h1.58a8,8,0,0,1,2.85-1.17,6.36,6.36,0,0,0,3-1.1c.89.13,1.58-.68,2.49-.53a1.35,1.35,0,0,0,.91-.19,5.93,5.93,0,0,1,2.77-.93l.5-.7,1.34-.22,1.08-.82,1.39-.14a5.6,5.6,0,0,1,1-.79c.49-.2,1.11,0,1.46-.65s1.25-.24,1.67-.77,1.17-.47,1.7-.78a4.68,4.68,0,0,1,1.65-.88,3.31,3.31,0,0,0,1.42-.77c1.09-.89,2.56-1.22,3.45-2.39,1.38-.28,2.21-1.44,3.35-2.09.44-.26.61-.85,1.28-.9s.62-1,1.45-1c.51,0,.75-.89,1.39-1,.13-.85.95-.66,1.59-1.07a4.38,4.38,0,0,1,2.45-2.48l.95-.15a24.37,24.37,0,0,1,2.22-2.21c1.77-1.67,3.79-3.16,4.89-5.44.16-.33.55-.36.66-.56.3-.56.93-.82,1.19-1.32.34-.68,1-1,1.38-1.62a12.27,12.27,0,0,0,1.06-1.53,10.29,10.29,0,0,1,2.05-2.58c.61-1.45.62-2.68,1.72-3.36a6.33,6.33,0,0,1,.23-1.86l.76-.9c0-.69.08-1.32.11-1.83L346,218a6.65,6.65,0,0,1,0-1.33,6.05,6.05,0,0,0,.47-2.26c.72-.59.22-1.55.68-2.21s.12-1.69.69-2.47c.27-.37.08-1.08.09-1.64s0-1,0-1.34l.91-1.25c0-2.82,0-5.62,0-8.42,0-.86.22-1.77-.42-2.53.15-1.06-.38-2-.47-3s.11-2.06-.52-3c.25-.92-.44-1.64-.56-2.5a26.52,26.52,0,0,0-.8-2.64c-.18-.75-.79-1.39-.63-2.23-.71-.71-.25-1.69-.64-2.7-1.25-.2-.41-1.58-1-2.31l-.73,0c-.11-.11-.28-.2-.32-.32a17.61,17.61,0,0,0-.71-2.44,20.89,20.89,0,0,0-1.41-2.15,13.23,13.23,0,0,1-.8-1.42,5,5,0,0,0-2.41-2.69c0-.61-.59-.87-.53-1.41s-.66-.8-1-1.21c-1-1.36-2.58-2.32-3.11-4.07-.78-.09-1-1-2.14-1.23h-6.27c-.88,0-1.75-.06-2.63-.05-.72,0-1.31-.5-2.07-.44-.43,0-.87-.32-1.33-.38-.63-.08-1.27,0-1.9-.07s-1.26-.52-2-.56-1.32-.39-2-.45c0-.63-.3-1-1-1.37H309.6a17,17,0,0,0-1.93-1c-.44-.17-1,.09-1.43-.23l-.5-.78h-2a6.72,6.72,0,0,1-.9-.28,26.85,26.85,0,0,0-4.54-2l-.37-.72-1.6-.37c-.22-.16-.17-.65-.42-.68-1.09-.22-1.9.7-2.88.45-.95.62-2.11.53-3.08,1s-2.14.39-3.1,1c-.15.09-.44-.07-.86-.16a2.15,2.15,0,0,0-.52-2.11c-.38-.51-.27-1.29-1-1.63-.57-.27-.15-1.33-.66-1.85-1.82,0-3.65.06-5.46,0-1.05,0-2,.48-3,.52s-2.14-.56-3.27-.52c-2.07.07-4.15,0-6,0L265,146h-2.16a2.39,2.39,0,0,1-.75-.15c-.62-.74-2.39-.85-2.39-.85h-1.87a5.12,5.12,0,0,0-3-1,1.12,1.12,0,0,1-.71-.15,7.31,7.31,0,0,0-3-1l-.49-.82h-1.94s-1.29-1.36-2.14-1.31-1.46-1-2.36-1c-.6,0-.6-.69-1-.84s-.93-.2-1.38-.33c-.11,0-.19-.22-.26-.35-.29-.5-.93-.23-1.24-.55s-.63-.81-1.26-.82c-.29,0-.79-.16-.83-.32-.16-.82-1-.67-1.44-1.07s-1.15-.56-1.49-1c-.47-.63-1.35-.4-1.77-1.09a5.5,5.5,0,0,0-1.22-1.13,8.23,8.23,0,0,0-1.43-1.17c-.56-.27-.7-1-1.1-1.13-.66-.27-.63-1.16-1.37-1.21-.22-.63-1.05-.82-1.2-1.33-.2-.69-1.14-.62-1.13-1.37-.64-.18-.72-1-1.27-1.22-.73-.31-.35-1.19-.91-1.56a1.53,1.53,0,0,1-.37-.29c-.76-1-1.54-2.09-2.25-3.18a15.05,15.05,0,0,0-1.1-2,11.64,11.64,0,0,1-1.79-2.72c-.46-.94-1.46-1.6-1.44-2.79a.24.24,0,0,0-.14-.18c-.74-.17-.59-.86-.78-1.34s-1-.67-.89-1.34-.76-.75-.87-1.29c-.23-1.09-1.2-1.84-1.32-3-.91-.7-1.12-1.84-1.64-2.77-.29-.52-1.08-.72-1-1.48a2,2,0,0,0-.3-1.56,2.55,2.55,0,0,1-1.38-1.33l-.58,1.3c-.18,1.53.09,2.81-.57,4-.2.37,0,.94,0,1.42-.39,1.26-.24,2.72-1.28,3.63-.06.83-.12,1.55-.17,2.21a8.22,8.22,0,0,0-.74,1.53,20.68,20.68,0,0,0-.3,2.35l-.71.67c-.07.75-.15,1.53-.22,2.22l-.76.64c-.09.67-.17,1.29-.25,1.85-.37.3-.76.44-.78.92s0,.9-.23,1.15c-.92,1-1.11,2.38-1.76,3.52-.24.42-.88.46-.85,1,0,.86-.86,1.27-1,2-.17.9-.92,1.29-1.4,1.89a8.34,8.34,0,0,0-1.34,1.91,3.49,3.49,0,0,1-1.58,1.66,1.63,1.63,0,0,1-.4,1.06c-1.16,1.22-2.45,2.32-3.52,3.65-.31.39-.79.58-1,1.16s-.74.77-1.18,1.06-.72.81-1.29,1c-.37.14-.52.78-.88,1a6.82,6.82,0,0,0-1.21.71,8.19,8.19,0,0,1-1.81,1.48,14.46,14.46,0,0,0-2,1.16c-.71.59-1.72.49-2.27,1.17s-1.54.3-2.05.74l-.44.69a8.28,8.28,0,0,0-1.68.14,17.16,17.16,0,0,0-1.69.79c-.64.27-1.36,0-2,.52a4.4,4.4,0,0,1-2.48.61,24.83,24.83,0,0,0-3.66,0,2.84,2.84,0,0,0-.51,1.21h-5.59c-.43-.58-.29-1.26-.86-1.2L156,151.92c0,.33-.05.72-.08,1.11s-.66.35-.66.35a2.84,2.84,0,0,0-.14,1.77c.54.5,1.29.91,1.58,1.54s1,1.09,1.25,1.78c.14.34.57.56.74.9a6.94,6.94,0,0,1,.34,1.28c.31.16.67.15.73.55a.55.55,0,0,0,.28.47v1.59a3.72,3.72,0,0,0,.71,1.18c-.28.89.57,1.23,1,1.93-.2,1.08.46,2,.94,2.89,0,.84.08,1.62.11,2.39l.81.13c0,.54-.13,1.19.11,1.6a5,5,0,0,1,.46,2.22c0,.4-.07.79-.07,1.19v13a3.62,3.62,0,0,1-.06.46c-.27.57-1,1.85-1,1.85v3.24c-.38.76-.68,1.36-1,2v1.27c-.85.23-.26,1.13-.76,1.6a2,2,0,0,0-.61,1.47,4.22,4.22,0,0,1-.64,2,2.68,2.68,0,0,0-.37,1.34,1.47,1.47,0,0,1-.26.88,5.13,5.13,0,0,0-.78,2.42c0,.26-.53.49-.87.78a3,3,0,0,1-.47,2,3.74,3.74,0,0,0-.53,2.47l-.9,1.36-.08,1.13c-.28.48-1.08.49-.93,1.24a.82.82,0,0,1-.43.8c-.62.4-.39,1.16-.72,1.61L153,220l-.12.72-.7.06c-.35.61-.56,1.41-1.07,1.75s-.54.7-.84,1-.15.78-.32,1.1-.76.42-.83.71c-.13.53-.66.86-.58,1.51s-.86.9-.93,1.57a3.68,3.68,0,0,0,0,.47c.07.79-.5,1.3-.85,1.9s-.93.82-1,1.29c-.11.68-1,.57-1,1.2a10.79,10.79,0,0,0-2.27,3.14l-.95.3c-.06.16-.07.45-.22.57-1,.79-1.46,2-2.38,2.89-.14.82-1.23.76-1.42,1.5s-.82,1.07-1.27,1.57a13.56,13.56,0,0,1-2.16,1.84c-1.54,1.1-2.64,2.69-4.19,3.78-.25.87-1.25.89-1.73,1.53s-1.17.73-1.76,1.1a11.35,11.35,0,0,0-2.43,1.84c-1,1.14-2.51,1.76-3.45,3-.15.21-.54.28-.84.35a1.29,1.29,0,0,0-1.09.69c-.22.42-.86.31-1.38.4a5,5,0,0,1-.49.7c-.38.37-1.14-.05-1.38.7s-1.15.3-1.53,1c-.22.38-1,.39-1.42.72a21.68,21.68,0,0,1-3.35,1.65,27.41,27.41,0,0,1-5.67,2.37,4.64,4.64,0,0,0-1.22.83l-1.8.21c-.83.87-2,.86-3,1.31a7.71,7.71,0,0,1-3.1.57c-.36.17-.5.34-.51.65-1.25.47-2.62.3-3.93.67a8.09,8.09,0,0,1-3.89.6l-.69.78c-.74,0-1.54,0-2.33.12-1.16.13-2.34-.12-3.5.46a4.58,4.58,0,0,1-2.13.06c-.74,0-1.27.52-2.06.49-3.5-.13-7,.46-10.51.34-2.06-.07-4.12-.22-6.19-.33a9.57,9.57,0,0,0-3.94-.51c-.77,0-1.45-.55-2.27-.5a4.09,4.09,0,0,1-2.07-.39c-.59-.29-1.45.19-2-.52l-2.18-.17-.47-.67-2.48-.33-.41-.69a7.79,7.79,0,0,1-2.72-1c-1-.55-2.33-.55-3.17-1.34A17.79,17.79,0,0,0,34,263.75c-1.92-1.22-3.49-2.92-5.52-4-.55-1-1.58-1.47-2.29-2.28a28.13,28.13,0,0,1-2.06-2.56c-.51-.74-1.19-1.34-1.7-2.1s-1.19-1.63-1.68-2.53-1.27-1.45-1.57-2.29a12.51,12.51,0,0,0-1.4-2.29,8,8,0,0,1-.8-2.41c.31-1.2-.65-2-.93-3v-1l-1-1.22v-1.71l-1-1.2v.05l-.52-.19a2.58,2.58,0,0,1-.88-2c0-.77-.11-1.53-.18-2.38a9.77,9.77,0,0,1-1.31-3.42,12.72,12.72,0,0,1-.07-3.55l-.65-1c0-2,0-4.08,0-6.21,0-1.16.24-2.36-.39-3.49-.19-.33,0-.84,0-1.26,0-1.71,0-3.41,0-5.12a5.15,5.15,0,0,1,.35-2.73,2,2,0,0,0,.08-1c0-2.64,0-5.28,0-7.87l.61-1v-1.66a10.14,10.14,0,0,0,1.12-2.54l.74-1c.07-.85.14-1.8.22-2.74.3-.42.85-.69.81-1.32a.49.49,0,0,0,.47-.43,10.4,10.4,0,0,0,0-1.11c.38-.3.67-.53.63-.75V179.8c-.57-1.36-2-2.09-3-2.85h-.95c-.76-.71-1.16-1.45-1.83-2L9,174c-.69-.76-1.67-1.36-2-2.54-.11-.4-.65-.67-.93-1.05-.46-.62-.86-1.29-1.3-1.93.23-1-.88-1.34-.93-2.08s-.59-1.09-.87-1.63-.08-1.08-.54-1.53A1.61,1.61,0,0,1,2,162.21a6.61,6.61,0,0,0-1-2.86C1,157.67,1,156,.15,154.67c-.18-4.89-.2-9.6,0-14.31a4.47,4.47,0,0,1,.31-2.09,5.6,5.6,0,0,0,.5-1.81c.11-.87.11-1.75.16-2.79a3.45,3.45,0,0,0,.86-2.77c1.05-.69.62-2.25,1.78-2.88l.17-1.55c.28-.44.92-.33.83-.89a1.47,1.47,0,0,1,.54-1.26c1.38-1.51,1.93-3.62,3.61-4.94.45-.35.6-1.07.89-1.61.06-.06.12-.15.18-.16,1.43-.25,1.83-1.77,3-2.38,0-.63.72-.53.94-.93a1.41,1.41,0,0,0,.07-.47,2,2,0,0,1,.05-.24,5.44,5.44,0,0,1,2.06-1,3,3,0,0,1,1.25-1.3,10.56,10.56,0,0,0,3-2.06,6.49,6.49,0,0,1,2-1.18,13.26,13.26,0,0,0,3.57-2.18c.53-.44,1.32,0,1.69-.71s1-.35,1.45-.59a5.22,5.22,0,0,1,2.95-.94l.87-.81,2-.22.49-.71,1.08-.17c.59-.08.57-.52.8-.67a13.31,13.31,0,0,1,2-1.14c.6-.27,1.33,0,1.84-.81.35-.51,1.37-.32,1.78-1,1,0,1.47-1,2.37-1.28a20,20,0,0,0,2.42-1.41,3,3,0,0,0,1.61-1.27,2.69,2.69,0,0,1,1.26-1,20.07,20.07,0,0,0,2.59-1.54c.22-.15.31-.5.49-.82l1.14-.15a42.8,42.8,0,0,0,3.62-3.51,5.27,5.27,0,0,0,2.82-2.34c.72-1,2-1.47,2.5-2.71,1.24-1,1.62-2.69,2.72-3.78.74-.74.79-1.8,1.54-2.5.36-.34.44-1,.91-1.32s.28-.72.3-1.12c.76-1.26,2-2.17,2.59-3.55a8.61,8.61,0,0,1,1.77-2.11c.59-.6.62-1.63,1.53-1.95.11-.87,1.25-.89,1.42-1.76.08-.34.43-.63.69-1l.93-.32.2-.93c1.09-1.35,2.65-2.38,3.59-4,.92,0,1.13-1,1.86-1.22.15-.75,1.15-.8,1.28-1.56.78-.22,1-1.23,1.78-1.37.15-.75,1.2-.74,1.3-1.53.73-.56,1.46-1.11,2.18-1.68a19.41,19.41,0,0,1,2-1.78c.8-.47,1.53-1,2.3-1.58.25-.18.68-.33.72-.55.17-.93,1.08-1.09,1.63-1.51s1-1.19,1.85-1.25c.59,0,.48-.79,1-.93s.85-.06,1-.5.29-.46.48-.45c1,.07,1.16-1.28,2.15-1.12.59-.5,1.32-.81,1.88-1.31a3.45,3.45,0,0,1,1.67-.71,1.54,1.54,0,0,1,.6-.71h1c.36-.31.61-.69,1-.82.75-.27,1.42-.69,2.12-1s1.62-.63,2.41-1a3.85,3.85,0,0,1,1.19-.17h2l1.23-1h3.44c.73-.91,1.89-.19,2.75-.7s1.93-.24,2.9-.29,2.15,0,3.23,0h3c.46.78,1.59.22,2.17.95h5.5a3.19,3.19,0,0,1,2,.42c.47.32,1.05-.07,1.44-.38,1-.12,1.94.06,2.85-.14l.08-.5.12-1c.29-.57,1-.91.93-1.79,0-.27.41-.65.71-.88a7.36,7.36,0,0,0,1.7-1.94c.47-.75.85-1.66,1.75-2.07.64-.29.44-1.18,1-1.47s.85-.86,1.25-1.3c1.61-1.76,3.3-3.43,5-5.14.72-.19.63-1,1.12-1.43a10.94,10.94,0,0,0,1.18-1.25c.56-.19,1-.2,1.27-.44a20,20,0,0,1,3.41-2.67,3,3,0,0,0,.59-.41,3.38,3.38,0,0,1,1.15-1,64.09,64.09,0,0,1,5.8-2.91c.17-.07.25-.35.47-.68.4-.34,1.12,0,1.72-.42l.49-.55,2.08-.32L180,5a5.91,5.91,0,0,0,2.49-.78,2.32,2.32,0,0,1,1.33-.37A4.6,4.6,0,0,0,186.37,3l2.76-.21,1-.68L191.72,2h5l1.34-1c3.66,0,7.43,0,11.2,0l11.17.08,1.19.86h.81l1.89.05A8.18,8.18,0,0,0,226,2c.69-.13,1.08.67,1.75.46A1.55,1.55,0,0,1,228,2.38ZM395.22,150.62a1.63,1.63,0,0,0-.77-.86,59.53,59.53,0,0,0-10.21.12l-.13.69-2.22.22c-.38.74-1.21.9-1.9,1.21a18.72,18.72,0,0,0-2.61,2,1.87,1.87,0,0,0-.82,1.41,2.45,2.45,0,0,1-.53,1v3.12a11.39,11.39,0,0,1,1,1,13.79,13.79,0,0,1,.73,1.18c.38.06,1,0,1.07.35.23.75,1,.44,1.3.82a1.85,1.85,0,0,0,1.52.84,2.84,2.84,0,0,1,1.34.44,3,3,0,0,0,1.82.43c.8,0,1.59,0,2.39,0,1.08-.87,2.39-.86,3.56-1l.69-.76,1.46-.24c.23-.88,1.36-.66,1.75-1.41a1.18,1.18,0,0,1,.82-.41c.48,0,.54-.46.81-.68a47.29,47.29,0,0,0,5.24-5.51c-.18-.4.11-.9-.31-1.39a8.54,8.54,0,0,1-2.33-1.37c-.52-.2-1.13,0-1.51-.36l-.43-.63Zm-353,25.93a14.7,14.7,0,0,1,3.3-1.91c.31-.13.43-.41.62-.55a14.14,14.14,0,0,0,2.73-2.79l.14-.92.84-.78a47.81,47.81,0,0,0,0-6.66c-.53-.27-.23-1.17-1-1.16a1.15,1.15,0,0,1-1-.94,4.9,4.9,0,0,0-1.37-.17c-.71.1-.86-.56-1.37-.83a26.17,26.17,0,0,0-4.15.08l-.23.52c-.71.46-1.58.11-2.3.42l-.9.73-1.41.23c-.27,1-1.2.66-2.07,1.17a1,1,0,0,1-.4.69c-.76.5-1.4,1.17-2.14,1.71s-1.23,1.59-2,2.25A9.9,9.9,0,0,0,27.55,170a5.57,5.57,0,0,1-1.6,2.11c.14,1.19-1.29,1.8-1.11,3,0,.12-.31.3-.47.45a.85.85,0,0,0-.26.86c0,.15,0,.39.06.42a6,6,0,0,0,2,.63c.9,0,1.67.42,2.52.48s1.92,0,2.88,0H39.4a12.8,12.8,0,0,1,1.34-.53C41.27,177.29,42,177.26,42.23,176.55Zm255.85-62.9-.26-1.68c-.32-.19-.68-.34-.73-.81s-.08-.93-.33-1.09c-1-.67-1.34-1.84-2.14-2.67s-1.2-1.65-2.23-2.05a2.78,2.78,0,0,1-.89-.76,3.34,3.34,0,0,0-1.79-1.09c-.23,0-.39-.43-.61-.7l-1.93-.31-.47-.67a35.57,35.57,0,0,0-5-.07c-1.86.91-2.41,2.68-3.62,3.89-.33.32-.11.9-.42,1.33-.5.71-.05,1.72-.67,2.44-.12.14,0,.47,0,.71s0,.4.1.44c.72.36-.33.88.17,1.35s.14,1.07.17,1.61,0,1.12,0,1.65c.18.3.49.58.47.84a5.41,5.41,0,0,0,.72,2.43,2.38,2.38,0,0,1,.2.66c.28,2.37,1.76,4.28,2.48,6.49,1.05.7,1,2.11,1.8,2.94-.12.77.84.92.93,1.51a2.84,2.84,0,0,0,1.55,2.17.81.81,0,0,1,.31.35c.74,1.67,2.25,2.65,3.45,3.9.07.07.25,0,.38,0l.24-.94a5.07,5.07,0,0,0,1.49-1.07c1.18-1.35,2.12-2.87,3.19-4.3,0-.75.75-1,1.08-1.49.08-.13.17-.26.26-.38.21-.51,0-1.13.3-1.42l.66-.47c.25-.73,0-1.51.69-2,.49-.37.31-1,.42-1.57.68-.27.53-1.06,1-1.56,0-1.2,0-2.46,0-3.73a25.61,25.61,0,0,0-.15-3.72ZM137.15,131.07c.78.43.54,1.2.89,1.74a8.11,8.11,0,0,0,2.81,2.69c.58.32.65,1.19,1.37,1.15s.66,1,1.43,1c.44,0,.36.86,1,.83s1,.53,1.48.9a7.09,7.09,0,0,1,1.79,1.42l.24.13h1.23l1.22,1,.83-.05.6-.82V138c-.19-.84-.82-1.31-.89-2.05a1.39,1.39,0,0,0-.69-1.37c-.49-.27-.54-1.15-1.15-1.43-1-.48-1.66-1.43-2.58-2-.13-.08-.28-.13-.41-.2l-1.25-.18a2.26,2.26,0,0,0-1.05-.89,4.33,4.33,0,0,1-2.86-.67,6.29,6.29,0,0,0-.9-.28l-1.51.67.19.2Z"/><path class="cls-2" d="M153.08,220.7l.12-.72.64-.35c.34-.44.11-1.21.73-1.61a.8.8,0,0,0,.42-.79c-.15-.76.65-.76.94-1.24l.08-1.13.9-1.35c.84-.63.94-1.69,1.41-2.31.11-.57-.09-1,.2-1.32l.75-.49a4,4,0,0,1,.49-2,2.47,2.47,0,0,0,.51-2.13A8.1,8.1,0,0,0,161,204v-2.17l1-.59v-4a6.92,6.92,0,0,0,1-1.9v-3.28a18.88,18.88,0,0,0,1-1.85,3.62,3.62,0,0,0,.06-.46v-13c0-.4,0-.79.07-1.19.43.09.65.41,1,.91,0,.88,0,1.91,0,2.94a15.7,15.7,0,0,0,.15,3.5h2.33a9.07,9.07,0,0,1,1.73-1h7.39a13.82,13.82,0,0,1,1.83,1h2a4.16,4.16,0,0,1,.69.76c.68.14,1.34-.14,1.9.22.07.17.09.39.19.44a16.45,16.45,0,0,0,1.88.82c.8.27,1.11,1.13,1.85,1.43l.72.07a3.94,3.94,0,0,0,.7.9,13.86,13.86,0,0,1,3.22,3.4,17.63,17.63,0,0,0,2.12,2.27l.09,1.18c.31.25.71.43.87.73.84,1.58,1.61,3.19,2.41,4.79-.26.89.62,1.22,1,2a5,5,0,0,0,.85,3.34v2c.29,1.76-.32,3.6.6,5.3-.1.83.26,1.73-.32,2.5-.26.35-.14.76-.15,1.14,0,1.18,0,2.36,0,3.54-.12.61.18,1.29-.24,1.85s0,1.48-.31,2.05-.24,1.3-.63,1.73c-.93,1-.95,2.46-1.71,3.54.17.62-.38,1-.54,1.53s-1,.86-.91,1.6-.95.53-.94,1.18a4.9,4.9,0,0,0-1.57,2.16,2,2,0,0,1-.59,1c-1.5,1-2.31,2.77-4,3.5a.9.9,0,0,0-.53.41c-.35.76-1.24.88-1.74,1.47-1.05-.37-1.16,1-2.13,1.09a10.87,10.87,0,0,0-3,1.21,4.76,4.76,0,0,1-2.44.66c-.81.73-1.81.39-2.73.45l-.24-.42h-6.63c-.07,0-.13.08-.23.14l-.08.67-.64,0c-.31-.5-.58-1-1.3-.91l0-.7c-.47-.46-1.08-.14-1.63-.34l-1.06-.87a3.53,3.53,0,0,1-3-1.17,15.34,15.34,0,0,0-3.52-2.7,1.64,1.64,0,0,1-.9-1c-.12-.47-.71-.43-1-.88a10.36,10.36,0,0,0-1.81-1.83l-.09-1a6.19,6.19,0,0,0-1.37-1.38c-.83-.43-.32-1.5-1.14-1.92-.67-.34,0-1.49-.91-1.87l-1.38-.16a18.11,18.11,0,0,1,1.2-1.67c.28-.32.87-.34.77-1s.82-.57.82-.93c0-.9.81-1.31,1-2C152.35,222.34,153.22,221.72,153.08,220.7Z"/><path class="cls-3" d="M87.92,263c-.16.35-.46.43-.81.51a2.83,2.83,0,0,0-.71.41H83.88a8.62,8.62,0,0,1-3.47,1c-3.29,0-6.58,0-9.8,0l-.89,1H63.33l-1.14-.85c-2-.05-4.06-.09-6.08-.15a8.12,8.12,0,0,1-2.48-.14c-.75-.28-1.64-.2-2.28-.8-.1-.1-.32-.05-.49-.08a3,3,0,0,1,0-.43c.93,0,1.86-.05,2.78,0s1.55.62,2.42.49c.78.69,1.75.48,2.65.48,5.32,0,10.65-.06,16,0,1.62,0,3.11-.53,4.69-.56.7-.65,1.58-.43,2.4-.48,1.4-.08,2.81.15,4.19-.48A5,5,0,0,1,87.92,263Z"/><path class="cls-4" d="M228,2.38l-.23.06c-.68.22-1.07-.59-1.77-.46a8.38,8.38,0,0,1-1.66,0l-1.91-.05h-.82l-1.21-.87C216.71,1,212.9,1,209.08,1s-7.63,0-11.34,0l-1.35,1h-4.45a.54.54,0,0,1,.48-.45c.39,0,.91.1,1.16-.1.66-.53,1.62-.16,2.07-.88,1.87,0,3.63,0,5.39,0a4.86,4.86,0,0,0,2.79-.4c.34-.22.93-.07,1.41-.07h8.3l.92.49h6a8.54,8.54,0,0,1,2.15,0,5.78,5.78,0,0,0,2,.43,3.6,3.6,0,0,0,2.5.5,3.89,3.89,0,0,1,.68.13Z"/><path class="cls-5" d="M148.84,33.32l-.1.55c-1,.21-2,0-3.06.15-.42.32-1.05.75-1.55.4A3.45,3.45,0,0,0,142,34H136c-.62-.78-1.83-.18-2.33-1h-3c-1.08,0-2.16-.05-3.23,0s-2-.26-2.9.29-2-.21-2.75.7h-3.44l-1.23,1H114a1,1,0,0,0,0-.48c.8.13,1.16-.63,1.92-.92,1.76-.21,3.78.18,5.62-1.09h13.45a3.35,3.35,0,0,1,1.71.32,3.44,3.44,0,0,0,1.49.21c.85,0,1.7,0,2.65,0l.77.46A65.76,65.76,0,0,0,148.84,33.32Z"/><path class="cls-6" d="M21.54,236.15c-1-.24-.95-1.32-1.51-2v-2.91l-1-1.92v-2c-1.09-.84-.07-2.35-1-3.29v-2.71a10.62,10.62,0,0,1-1.11-4.26c.07-4.44,0-8.89,0-13.33l.56,0c0,2.3,0,4.6,0,6.9,0,.91-.28,1.89.45,2.68-.15,1.62.51,3.16.49,4.77,0,1.27.07,2.55,0,3.83a10.21,10.21,0,0,0,.41,2.46c.16.73.72,1.32.61,2.15a13.56,13.56,0,0,0,.08,2.36c.27.56.56,1.16.89,1.86l.15,2.46.74.49A5.27,5.27,0,0,1,21.54,236.15Z"/><path class="cls-7" d="M217.56,4.86l3.72,1.54c-.6,1.78.5,1,.91,1.22,1.25.78,2.61.37,4,.43l.83.49c.63,0,1.34,0,2.06,0a5.5,5.5,0,0,1,2.29.41c1.64.7,3.4.49,5.3.59a6.75,6.75,0,0,0,4.05,1l.18.79a1.22,1.22,0,0,1-1.35-.37h-4l-1.34-1H230.9a9.69,9.69,0,0,0-4.68-1,7.2,7.2,0,0,1-2.79-.15c-.87-.32-1.77,0-2.52-.36A11.4,11.4,0,0,0,217,8,6.63,6.63,0,0,1,217.56,4.86Z"/><path class="cls-8" d="M217.74,7.48c0,.15,0,.31,0,.47H198.6c-.57.65-1.43.28-2,.59a4,4,0,0,1-2.07.4h-2.17l-2,1H188l-1.08,1h-2.55a4.61,4.61,0,0,1,.55-.44c.53-.33,1.22-.4,1.61-1L189,9.4l1.21-.8L194,8.38l2-.84,8-.14,10.77,0Z"/><path class="cls-9" d="M272.16,101.77c-.06.71-.12,1.42-.18,2.07l-.81,1c-.28,3.47-.11,7-.11,10.46,0,.51.88.88.19,1.43.14.41.18.89.33,1.24a6.15,6.15,0,0,1,.5,2.62l.95,1.19v2c-.91-.49-.79-1.63-1.46-2.22a3.61,3.61,0,0,0-.47-2.55c.12-.74-.6-1.26-.49-2a14.9,14.9,0,0,0,0-1.89l-.53-.9c0-1.52,0-3.11,0-4.7a6.93,6.93,0,0,1,.45-3.47c.23-.42,0-1.08,0-1.54l.95-1.21c.06-.47-.09-1,.18-1.4Z"/><path class="cls-10" d="M303.84,126.2c0-1.23,0-1.23.86-2.73.21-1-.14-2,.4-2.84.06-2,.36-4.09-.18-6.11,0-.08-.1-.15-.1-.22.06-2.49-1.06-4.64-2-6.85a1.43,1.43,0,0,1,1.34.76c0,.91,1.85,2.91,1.85,2.91v10.44l-1,.6v3S304.48,126.24,303.84,126.2Z"/><path class="cls-11" d="M17.58,205.28l-.55,0v-6.07l1-1.3c0-4.35,0-4.48,1-6.55v-2.19c.61-.47.29-1.31.72-1.8s.05-1.31.41-1.89l.44-.14a9.44,9.44,0,0,1-.59,3.59,5.24,5.24,0,0,0-.51,2.82c.13.72-.65,1.16-.52,1.85a1.39,1.39,0,0,1-.51,1.55c0,1.7.07,3.36,0,5s-.31,3.25-.5,4.87C17.94,205.12,17.71,205.19,17.58,205.28Z"/><path class="cls-12" d="M279.8,140.17l-.15.82c-2.82.1-5.65,0-8.48,0a1.64,1.64,0,0,1-.89-.17c-.87-.63-2.1.17-2.83-.91h-3a3.62,3.62,0,0,0-2.33-.26A2.23,2.23,0,0,0,262,139h2.61c.14,0,.26.17.45.44a2.31,2.31,0,0,0,.56.15c1.11.06,2.22.12,3.33.12s2.13.39,3.24.47a28.25,28.25,0,0,0,3.71.38,3.88,3.88,0,0,0,1.59-.28A3.78,3.78,0,0,1,279.8,140.17Z"/><path class="cls-13" d="M421.89,185.61a5.47,5.47,0,0,1,1.29,3.64c.2,5.34.16,10.69,0,16a1.44,1.44,0,0,1-.16.45l-.68.17a2.88,2.88,0,0,1,.25-2.27,2.69,2.69,0,0,0,.14-1.38q0-5.37,0-10.71A11.52,11.52,0,0,1,421.89,185.61Z"/><path class="cls-14" d="M116.14,167a7.41,7.41,0,0,1,3.25.38,7.91,7.91,0,0,0,2.35.13c3.1.15,6.19.13,9.28,0a6.51,6.51,0,0,0,3.2-.38,3.91,3.91,0,0,1,1.61-.05,1.72,1.72,0,0,1-.81.85H116.49C116,167.66,116.18,167.31,116.14,167Z"/><path class="cls-15" d="M409,118c1.53.66,1.69,1.62,2.16,2.34.19,4.41.15,8.76,0,13.17A15.4,15.4,0,0,0,410,135.8v-2.57l1-1.17V121.27l-2-1.15Z"/><path class="cls-16" d="M50.9,155H49.25l-.61-.9c-3.68-.13-7.46,0-11.24-.06a.63.63,0,0,1,.74-.44,1.94,1.94,0,0,0,1.51-.46h5.5a7.11,7.11,0,0,1,1.9,0,11.11,11.11,0,0,0,1.78.51C49.68,153.7,50.24,154.44,50.9,155Z"/><path class="cls-17" d="M187.22,10c-.37.54-1,.6-1.53.91a5.3,5.3,0,0,0-.52.42l-1.46.11a3,3,0,0,1-2.08.91.53.53,0,0,0-.44.11c-.78,1-2.26.68-3,1.72-1.14,0-1.83,1.16-3,1.26-.13,0-.24.36-.43.65l-1.55.13a10.21,10.21,0,0,1,4.56-2.57l.36-.65c.37-.41,1,0,1.56-.33l.4-.67c.51-.41,1.39,0,2.09-.55a2.08,2.08,0,0,1,2.13-.51L185.5,10Z"/><path class="cls-18" d="M429,186.64c-.65-.17-.43-.95-.88-1.26a22,22,0,0,0-.48-2.94,13.2,13.2,0,0,0-.53-2.21c-.44-1.69-1-3.35-1.43-5-.14-.51-.7-.88-.5-1.5l0-.57a2.43,2.43,0,0,1,.93,1.79c.12.62.58.93.86,1.38.07.82.14,1.61.21,2.4l.76,1c.06.88.12,1.82.18,2.79l.72.5A14.94,14.94,0,0,1,429,186.64Z"/><path class="cls-19" d="M327.72,149.15a2.83,2.83,0,0,1-.84,2.1c-.37.49-.89.88-1.33.7h-1.71c-.26.46-.54.31-.83,0h-4.32c-.64-.29-1.62-.31-2-1.24,1.37-.46,2.58.6,3.92.44.9.67,2,.46,3,.5.64,0,1.27,0,1.88,0,.43-.46.57-1.17,1.3-1.27C326.9,149.83,327.09,149.32,327.72,149.15Z"/><path class="cls-20" d="M153.08,220.7c.14,1-.73,1.64-1,2.5-.23.7-1,1.11-1,2,0,.36-.92.29-.82.93s-.49.67-.77,1a18.11,18.11,0,0,0-1.2,1.67,3.15,3.15,0,0,1-.42.09,2.57,2.57,0,0,1,0-.48c.07-.67,1-.88.93-1.56s.45-1,.58-1.51c.07-.29.68-.41.83-.71s0-.77.33-1.1.38-.72.83-1,.72-1.14,1.07-1.75Z"/><path class="cls-21" d="M56.14,170.8c0-3,0-6.08,0-9.12l.68.07c.37.51.42,4.74.12,8.82C56.78,170.88,56.44,170.75,56.14,170.8Z"/><path class="cls-22" d="M159.05,144.8a1.11,1.11,0,0,1-1-.18,23.72,23.72,0,0,1,0-2.54c.06-.6.68-.44.84-.82.38-1.18-.32-2.07-.77-2.88V135.2l.68.55a32,32,0,0,1,.54,3.27,5.94,5.94,0,0,1,0,2.78A9.78,9.78,0,0,0,159.05,144.8Z"/><path class="cls-23" d="M366.68,84.27a4.82,4.82,0,0,0-2.93-.35l-1.23-1h-1.7l-1.22-1c-1.32.12-2.38-.64-3.47-1.33,0,0,0-.15,0-.23a3.83,3.83,0,0,1,2.46.61,3.29,3.29,0,0,0,2,.49l.67.87c1.84-.2,3.43,1.1,5.3,1.13Z"/><path class="cls-24" d="M191.92,262.44c.57-.38.57-.38,1.57-.38l1.14.88,1.82.11,1.14.9h2.12c.71.62,1.75.65,2.32,1.46l-2.6-.06-.49-.77a6.65,6.65,0,0,1-3.45-1C194.16,263.63,193.13,262.75,191.92,262.44Z"/><path class="cls-25" d="M51.81,263.44c0,.14,0,.27,0,.51H49.7c-.28-.34-.58-.59-1-1H47c-.42-.28-.79-.58-1.26-.95-1.27.14-2.34-.64-3.44-1.31,0,0,0-.15,0-.22a4.16,4.16,0,0,1,2.28.51,2.49,2.49,0,0,0,1.76.56,1.09,1.09,0,0,1,.67.17C48.48,262.64,50.21,262.86,51.81,263.44Z"/><path class="cls-26" d="M356,111.3c-.13-.18-.37-.35-.39-.54,0-.7,0-1.4,0-2.07L355,108c-1.1-.44-2,.16-3,.26s-2,.11-3,.16l.13-.56a5.12,5.12,0,0,0,3.5-.93h2.7l.77.61A19.48,19.48,0,0,1,356,111.3Z"/><path class="cls-27" d="M11.05,177H12c1,.76,2.46,1.49,3,2.85v2.62c0,.22-.25.45-.63.75a10.4,10.4,0,0,1,0,1.11.49.49,0,0,1-.36.43v-2.39c.3-.77,1-1.17.83-2.18-.33-.31-.71-1-1.22-1.11-.7-.19-.68-.95-1.33-1.17A3.73,3.73,0,0,1,11.05,177Z"/><path class="cls-28" d="M351,222.9c.13-1.13.71-2.16.67-3.32.82-1.55.89-3.31,1.29-5a5.66,5.66,0,0,1,1-2.41v3.3l-.88.59c-.1.72,0,1.54-.1,2.36l-1,1.94v2.09C351.7,223,351.34,222.87,351,222.9Z"/><path class="cls-29" d="M134,235.64c0,.23,0,.57-.11.68a30.63,30.63,0,0,0-2.53,2.7c-.75.82-1.78,1.4-2.26,2.46-.65.24-1.11.87-1.87.85a.65.65,0,0,1,.25-.6c1.23-1.28,2.73-2.31,3.62-3.92C132.27,237.41,132.71,236,134,235.64Z"/><path class="cls-30" d="M354.07,185.26a1.91,1.91,0,0,1-.86-1.08,13.53,13.53,0,0,0-1.39-4.68c-.17-.31-.06-.78-.09-1.17l-.94-1.13c0-.22,0-.45.08-.69a1.23,1.23,0,0,1,1.33,1.07,3.79,3.79,0,0,0,.37,1.56,4.12,4.12,0,0,1,.63,2.82l1,1.22C354.14,183.86,354.11,184.56,354.07,185.26Z"/><path class="cls-31" d="M13.54,233.64l.49.17v1.38l1,1.2v1.71l1,1.22v1c.28,1,1.25,1.8.94,3A3,3,0,0,1,15.61,241c-.28-1.31-1.13-2.42-1.24-3.79,0-.33-.45-.63-.71-1Z"/><path class="cls-32" d="M347,72.63a4.55,4.55,0,0,1-2.17-1.35,12.14,12.14,0,0,0-1-1,11.35,11.35,0,0,0-3.05-2.5l-.09-.81h1.15a4.08,4.08,0,0,0,1.5,1.85,10.17,10.17,0,0,1,1.88,1.83,3.17,3.17,0,0,0,1.42,1.2C347,72,347,72.3,347,72.63Z"/><path class="cls-33" d="M135.83,167c-.54,0-1.18-.18-1.61,0a6.4,6.4,0,0,1-3.2.38c0-.25.18-.54.39-.49,1,.21,1.76-.57,2.73-.5s1.89,0,2.74,0l1.23-1,2.11.11A6.58,6.58,0,0,1,135.83,167Z"/><path class="cls-34" d="M344,78.74l.59,0c.56.65,1.1,1.2,1.54,1.82s1.38.93,1.83,1.69a4.19,4.19,0,0,0,1.81,1.5c0,.2.07.43.1.66a7.47,7.47,0,0,1-3.23-2.45c-.8-.88-1.61-1.74-2.6-2.82A3.63,3.63,0,0,1,344,78.74Z"/><path class="cls-35" d="M260.14,11h-1.66c-.19-.24-.37-.49-.58-.8L256.49,10l-.9-.75c-.58-.34-1.38.06-2-.52s-1.34-.34-1.66-.76h1.52a2.1,2.1,0,0,1,1.12.58l1.39.14,1.1.84,1.64.14C259,10.28,259.73,10.45,260.14,11Z"/><path class="cls-36" d="M115.17,35c0-.28,0-.13,0,0a3.55,3.55,0,0,0-1.15.17c-.78.37-1.59.65-2.36,1s-1.33.71-2.07,1c-.34.12-.59.49-.93.85H107.5c.17-.3.29-.65.52-.78,1.06-.59,2.16-1.12,3.25-1.67.86.22,1.21-.6,1.92-.55Z"/><path class="cls-37" d="M355.09,264.38a3.39,3.39,0,0,0,.1.57h-3.64a4.87,4.87,0,0,0-1.08-1h-2.55c-.47-.29-.92-.49-1-1.06a4.53,4.53,0,0,1,1.39.07c1.79.75,3.78.65,5.58,1.36A3.69,3.69,0,0,0,355.09,264.38Z"/><path class="cls-38" d="M425.19,173.12l0,.57a.51.51,0,0,1-.47-.43,9.9,9.9,0,0,1,0-1.08c-.37-.69-1.15-1.05-1-1.91-.67-1-.88-2.32-1.92-3.09l.06-1.22c.67.54,1.43,1,1.4,2a4.71,4.71,0,0,1,1.1,2.53c0,.33.46.62.77,1Z"/><path class="cls-2" d="M306.48,193l.09-.77.77-.39c.3-.89.35-2.13,1.63-2.64L309,188c.13-.54.89-.49,1.1-1.15.13-.42.74-.74,1.11-1.14a5.48,5.48,0,0,1,.95-1c.55-.29.67-1,1.13-1.16s.58-.76,1-1c.2-.13.53-.18.61-.36.63-1.49,2.08-2,3.27-2.74.59-.39,1.37-.57,1.62-1.38l1.44-.17.39-.7c.43-.43,1.09,0,1.6-.32l1.66-.89h1.69l1.24-1h7.65a1.45,1.45,0,0,1,.9.19,7.5,7.5,0,0,1,1.88,0,4.92,4.92,0,0,0,2.09.44,4,4,0,0,1,1.15,1.34h1.32a2,2,0,0,0,.25-1.26l.72,0c.64.73-.21,2.11,1.05,2.31.39,1-.08,2,.64,2.7-.17.84.44,1.48.63,2.23s.68,1.75.8,2.64.8,1.58.55,2.49c.64.91.44,2,.53,3s.61,2,.47,3c.63.76.4,1.67.41,2.53,0,2.8,0,5.6,0,8.41L348,206.2v1.34c0,.56.17,1.27-.1,1.65-.56.77-.17,1.73-.68,2.46s0,1.62-.69,2.21c.15.82-.32,1.5-.47,2.26a6.6,6.6,0,0,0,0,1.33l-.91,1.15c0,.51-.06,1.14-.1,1.83l-.76.89a6,6,0,0,0-.24,1.86c-1.1.69-1.1,1.91-1.71,3.36a10.72,10.72,0,0,0-2.06,2.58,10.45,10.45,0,0,1-1.06,1.53c-.41.57-1,.94-1.38,1.62-.25.5-.88.76-1.18,1.32-.11.2-.5.23-.66.56-1.1,2.28-3.12,3.76-4.88,5.44a23.16,23.16,0,0,0-2.23,2.2l-.94.15c-.18-.35.14-.57.23-.83-.16-.4-.53-.32-.77-.25-.93.28-1.61-.51-2.48-.51a3.45,3.45,0,0,1-2.27-1c-.11-.1-.23-.25-.37-.28-1-.21-2-.4-2.46-1.45-.69,0-1.1-.5-1.64-.76-1.68-.81-2.75-2.32-4.19-3.38,0-.75-1-.62-1.14-1.34-.09-.46-1-.44-1.05-1.11-.66-.13-.75-.89-1.3-1.18a6,6,0,0,1-1.42-1.44V230a5.15,5.15,0,0,1-.73-.34c-.5-.32-.15-.94-.47-1.35s-.83-.63-.81-1.2a2.79,2.79,0,0,0-.73-1.77c-.51-.66,0-1.52-.46-2l-.82-.47c.22-1.22-.47-2.17-1-3.18a10.65,10.65,0,0,0-.44-3.15c-.31-1,.12-2.14-.56-2.93v-8.15l.52-.85c-.49-1.65.85-3.3.44-5.09a4.69,4.69,0,0,0,1-3.14l1-1.25A3.41,3.41,0,0,1,306.48,193Z"/><path class="cls-39" d="M162,198.62v2.58c-.13.2-.38.36-1,.59V204a3.16,3.16,0,0,1-.76,1.27,2.47,2.47,0,0,1-.51,2.13,4,4,0,0,0-.49,2l-.75.49c-.29.33-.09.75-.2,1.32-.47.62-.57,1.68-1.41,2.31a3.76,3.76,0,0,1,.52-2.48,3,3,0,0,0,.48-1.95c.34-.29.86-.53.86-.78a5.13,5.13,0,0,1,.78-2.42,1.49,1.49,0,0,0,.26-.88,2.68,2.68,0,0,1,.37-1.34,4.22,4.22,0,0,0,.64-2,2.07,2.07,0,0,1,.61-1.47C161.93,199.75,161.34,198.84,162,198.62Z"/><path class="cls-40" d="M24.11,176.44l3.47.25A3.17,3.17,0,0,1,28.67,178H39c.37-.74.76-1,1.34-1h1.94c-.23.31-1,.34-1.49.52a12.8,12.8,0,0,0-1.34.53H31.54c-1,0-1.92,0-2.88,0s-1.62-.49-2.52-.48a6,6,0,0,1-2-.63C24.1,176.83,24.12,176.59,24.11,176.44Z"/><path class="cls-41" d="M262,146h-2.88l-.58-.77L256,145l-1.05-.77-1.61-.1a4.32,4.32,0,0,0-2.67-.9c-.45-.32-.45-1-1.07-.87a.59.59,0,0,1-.68-.42h1.6l.49.82a7.31,7.31,0,0,1,3,1,1.12,1.12,0,0,0,.71.15,5.12,5.12,0,0,1,3,1h1.87Z"/><path class="cls-42" d="M168,150.74l-.14.67c-.56.44-1.27,0-1.83.43s-1.38.18-2.07.23a1.75,1.75,0,0,1-1.91-1.12H156.9c-.55,1.3-.33,2.13-1,2.08,0-.39.06-.78.08-1.11l1.39-1.17c.57-.06.43.62.86,1.2h5.59a2.84,2.84,0,0,1,.51-1.21A24.83,24.83,0,0,1,168,150.74Z"/><path class="cls-7" d="M214.08,7.63l-10.23,0,.17-.69a64.25,64.25,0,0,1,9.91,0Z"/><path class="cls-43" d="M175.16,245.17l-.26.48c-1.26,0-2.57,0-4,0l-.13,1c-.67-.07-1.33,0-1.81-.71-.17-.25-.66-.27-1-.4l.08-.67c.1-.06.16-.14.23-.14h6.63Z"/><path class="cls-44" d="M312.72,157.41a2.61,2.61,0,0,1-1,0,13.86,13.86,0,0,0-2.24-.94,6.19,6.19,0,0,1-2.34-.8,4.24,4.24,0,0,0-1.81-.35l-1.91-1.4h2.29l.5.78c.44.32,1,.06,1.43.23a16.17,16.17,0,0,1,1.92,1h2.13C312.41,156.32,312.75,156.74,312.72,157.41Z"/><path class="cls-45" d="M160,161.67c.67.45.82,1.24,1.15,1.9s.51,1.32,1.13,1.61l.19,2,.8,1c.12,1-.05,2.15.56,3.13.06.09-.05.3-.08.45l-.81-.13c0-.77-.07-1.55-.11-2.39a4.46,4.46,0,0,1-.94-2.89c-.4-.7-1.24-1-1-1.93l-.93-1.18Z"/><path class="cls-46" d="M395,150.62a5.55,5.55,0,0,1-3.21-.38,2.12,2.12,0,0,0-.92-.08c-.79,0-1.58,0-2.37,0a5.43,5.43,0,0,0-2.52.36c-.55.28-1.38,0-2.08,0l.13-.69a59.41,59.41,0,0,1,10.2-.12A1.55,1.55,0,0,1,395,150.62Z"/><path class="cls-47" d="M176.72,250h1.76l.64.92,1.42.12,1.2,1H183l1.26,1,1.63.23.17.81c-.16,0-.38.15-.49.08-.77-.47-1.78-.36-2.46-1.05a1.08,1.08,0,0,0-.87-.45,3.66,3.66,0,0,1-2.3-.81,4.31,4.31,0,0,0-1.72-.33Z"/><path class="cls-48" d="M49,170.38a6.2,6.2,0,0,1,.32-3.26,2.71,2.71,0,0,0,0-2.09c-.53-1.07-.34-2.17-.5-3.25.78,0,.48.89,1,1.16a47.81,47.81,0,0,1,0,6.66Z"/><path class="cls-49" d="M298,122.83c0-1.08-.28-2.2.4-3.19,0-1.39.39-2.79-.27-4.14a2.93,2.93,0,0,1-.07-1.85l.78.17a25.61,25.61,0,0,1,.15,3.72c0,1.27,0,2.53,0,3.73C298.55,121.77,298.7,122.56,298,122.83Z"/><path class="cls-50" d="M210.16,100.75c-.49,0-.43-.55-.59-.79a1,1,0,0,0-1.13,0c-.05.07-.14.13-.14.2v3.47c-.27.44-.44.91-1,1,0-.48-.16-1,0-1.42.66-1.19.39-2.47.57-4l.58-1.3a2.55,2.55,0,0,0,1.38,1.33A2,2,0,0,1,210.16,100.75Z"/><path class="cls-1" d="M292.18,182.29c-2.37-1.48-4.75-2.88-6.11-5.9,0-.21-.12-.84-.21-1.5l-.67-.95a32,32,0,0,1,0-5.71c.28-.56.87-1,.81-1.69-.09-1.12,1.1-1.69,1.22-2.73.93-.5,1.34-1.56,2.24-2.1a11.48,11.48,0,0,0,1.12-.86c1-.31,2.09.09,3-.57a.79.79,0,0,1,.69,0c1.1.6,2.35.25,3.57.6l.41.64,1.32.33s.26.13.26.22c0,.76,1.15.53,1.06,1.4-.07.69.91.9,1,1.57a3,3,0,0,0,.69,1.47,4,4,0,0,1,.54,1.56,18.9,18.9,0,0,1,0,6.41,8.18,8.18,0,0,1-1.71,3.29,1.92,1.92,0,0,0-.53,1.25c-.63.53-1.21,1.06-1.84,1.52a5.25,5.25,0,0,1-2,1.17,16.91,16.91,0,0,1-2.25.58Z"/><path class="cls-1" d="M196.35,168.77c.17-.26.35-.52.51-.79,1-1.82,1-1.86,2.5-2.92a3.78,3.78,0,0,0,1-.89c.56-.36,1.52.05,1.75-1a27.69,27.69,0,0,1,5.38-.09c.89,1.18,2.19,1.55,3.36,2.23l3.17,6.15v5.1l-.78,1c-.06.54-.13,1.17-.21,1.79-1.45,1.39-2.33,3.26-3.93,4.6l-2,.26-.53.72h-3.3c-.22-.06-.33-.25-.37-.61a6.73,6.73,0,0,1-3.55-1.49c-.67-1.11-2-2.06-2.59-3.54.2-.69-.52-1.11-.5-1.76s0-1.26,0-1.88a.93.93,0,0,0-.09-.45,3.27,3.27,0,0,1-.2-2.74A12.62,12.62,0,0,0,196.35,168.77Z"/><path class="cls-51" d="M256.37,212h-3.62a5.73,5.73,0,0,0-3.47-.82l-.46-.8-2.24-.32c-.36-.17-.31-.74-.78-.8a2.85,2.85,0,0,1-2.57-1.71c-.17-.41-.7-.64-1-1-1-1.17-2-2.36-3-3.54-.15-1.19-1.25-2-1.3-3.24a7.69,7.69,0,0,0-.82-2.21c.8-.52,1.71-.27,2.59-.46.54-.32,1-1,1.94-.66a2.33,2.33,0,0,1,1.09,1.88c.05.77.65,1,.94,1.59,0,.31.09.62.13.94.74.72,1.51,1.4,2.19,2.18s1.51,1.13,2.17,1.78,2,.49,2.49,1.45c1.13.28,2.17,0,3.18.48a2.74,2.74,0,0,0,1.86-.09,16.47,16.47,0,0,1,2.14-.45,3.15,3.15,0,0,1,.71-.8c.3-.17.53-.31.54-.67,0-.74,1.13-.86,1-1.76-.12-.73.41-1.34.76-1.92s-.05-1.47.59-2c-.44-.79.38-1.53.09-2.31a4.79,4.79,0,0,0,.6-2.32,5.93,5.93,0,0,1,2.33-.17c.7,0,1.41,0,2.23.06a4.81,4.81,0,0,1-.21,3c-.23.55.15,1.29-.26,1.84s-.21,1.07-.27,1.61-.1,1.27-.15,1.85a10.65,10.65,0,0,0-1.83,4c0,.33-.28.49-.47.72a13.39,13.39,0,0,1-3.45,3.18c-.1.07-.13.26-.26.52A7.48,7.48,0,0,0,256.37,212Z"/><path class="cls-51" d="M214,145a1.1,1.1,0,0,0,.92,1.05c.09.92-.91.88-1,1.61-.07.48-.58.89-.87,1.34a8.57,8.57,0,0,1-2.2,2.15,2.06,2.06,0,0,1-.71.05c-.45-.31-.9-.89-1.33-.88-1,0-1.7-.7-2.72-.59-1.57.17-3.18,0-4.77,0a11.22,11.22,0,0,0-2.8.3,17.58,17.58,0,0,1-2.69.65c-.53.06-.37.73-.71.79-1.43.29-2.38,1.37-3.63,2.06l-1,.08c-1.18-1.4-2.71-2.6-3.75-4.3.17-.4.34-.83.56-1.34.29-.31.94-.35,1.15-1l1.38-.35c.3-.16.26-.73.74-.77h1.1a3.51,3.51,0,0,1,1.93-1.06,5.79,5.79,0,0,0,1.81-.85,18.34,18.34,0,0,0,3.64-.42c.69-.14,1.28-.6,2-.52a21.33,21.33,0,0,0,2.4,0h1.2a11.61,11.61,0,0,1,2.79.36,9.75,9.75,0,0,0,3.49.56,1.51,1.51,0,0,1,.47.11l1.09.77Z"/><path class="cls-52" d="M249,184.88l2.6-.2a2.82,2.82,0,0,1,.43-.58c.5-.44,1.45,0,1.72-.61s1-.47,1.38-.78c2.44-3.33,2.46-3.39,2.5-5.73-.21-.64-1.09-1-1-1.84.1-.62-.75-.54-.86-1s-.43-.38-.72-.48a11,11,0,0,0-6-.83,1.59,1.59,0,0,0-.29.4c-.43.64-1.48.06-1.86.81s-1,.67-1.49,1c-.1.08-.31,0-.41,0-1-.23-1-1.52-2.11-1.69a20.23,20.23,0,0,1,2.37-2.36,1.35,1.35,0,0,1,1.09-.41c.5,0,.51-.56,1-.8a39.82,39.82,0,0,1,7.41,0c.65.4,1.31.84,2,1.21s1.28.56,2,.88c.41.76,1.49,1.31,1.3,2.43l.87.67v4.58s-.35.32-.34.58c0,.92-.73,1.57-.76,2.44-.78.29-1,1.15-1.59,1.65a10.22,10.22,0,0,0-1.95,1.58c-.74,0-1,.76-1.59,1A2.71,2.71,0,0,0,253,187l-.47.73c-1,0-2.06,0-3.11,0-.13,0-.26-.14-.4-.23Z"/><path class="cls-53" d="M214,145l-1.52-.12-1.09-.77a1.51,1.51,0,0,0-.47-.11,9.75,9.75,0,0,1-3.49-.56,11.61,11.61,0,0,0-2.79-.36h-1.2a21.33,21.33,0,0,1-2.4,0c-.76-.08-1.35.38-2,.52a18.34,18.34,0,0,1-3.64.42,5.79,5.79,0,0,1-1.81.85,3.51,3.51,0,0,0-1.93,1.06h-1.1c.28-1,1.24-1.23,2-1.39s1.08-.62,1.78-1a12.58,12.58,0,0,0,1.72,0,6.66,6.66,0,0,0,1.54-.47,6.15,6.15,0,0,1,2.51-.46c1.84,0,3.67,0,5.5,0a17.72,17.72,0,0,1,2.63,0c.74.12,1.43.67,2.17.75a10.15,10.15,0,0,1,3.48,1.25C213.94,144.68,213.94,144.9,214,145Z"/><path class="cls-54" d="M196.29,168.42a12.22,12.22,0,0,1-.36,3.7,3.27,3.27,0,0,0,.2,2.74,1,1,0,0,1,.08.45c0,.63.06,1.26,0,1.89s.7,1.07.49,1.76l-.68-.05c-.1-.15-.26-.29-.25-.41a8.43,8.43,0,0,0-.75-3.84,1.88,1.88,0,0,1-.07-1.78c.51-.75,0-1.78.75-2.41l.08-1.84Z"/><path class="cls-55" d="M249,184.68v2.57c.14.09.27.23.4.24h3.06l.47-.73a2.74,2.74,0,0,1,1.76-.19,3.84,3.84,0,0,1-1.35,1.37h-3l-.86.49c-.36.07-.56-.2-.82-.37a5.65,5.65,0,0,0-.6-.31.85.85,0,0,1-.14-.19.58.58,0,0,1,0-.23c0-.85,0-1.7,0-2.39A1,1,0,0,1,249,184.68Z"/></g></g></svg>