<svg xmlns="http://www.w3.org/2000/svg" viewBox="0 0 570.52 430.06"><defs><style>.cls-1{fill:#f1beb5;opacity:0.5;}.cls-2,.cls-3,.cls-4{fill:none;stroke:#874392;stroke-miterlimit:10;}.cls-2{stroke-width:5.42px;}.cls-3{stroke-width:2.71px;}.cls-4{stroke-width:4.06px;}.cls-10,.cls-5,.cls-6{fill:#874392;}.cls-6{font-size:154.24px;}.cls-10,.cls-6{font-family:BohemianSoul-Regular, BohemianSoul Regular;}.cls-7{letter-spacing:0em;}.cls-8{letter-spacing:0.03em;}.cls-9{letter-spacing:-0.07em;}.cls-10{font-size:88.32px;}.cls-11{letter-spacing:-0.01em;}.cls-12{letter-spacing:-0.01em;}</style></defs><g id="Capa_2" data-name="Capa 2"><g id="Capa_1-2" data-name="Capa 1"><path class="cls-1" d="M370.14,164.57c-.22,1.33-.48,2.69-.79,4.11-.4,1.81-.65,3.57-1.11,5.37-1.38,5.41-5.4,10.18-9.34,14.15-1.14,1.16-2.45,2.83-4.24,2.92-4.12.22-8.37-2.21-11.41-4.59-6.66-5.19-10-13.45-10-21.51,0-14.48,10.49-26.22,23.43-26.22,3.57,0,9.77.77,11.21,4.41A38,38,0,0,1,370.14,164.57Z"/><path class="cls-2" d="M352.39,119.73a47.9,47.9,0,0,1,19.86,29,42.23,42.23,0,0,1,.2,17.45c-1.07,5.26-2.81,12.37-6.09,16.73a70,70,0,0,1-14,13.86c-54.43,41.43-132.55,0-132.55,0"/><path class="cls-2" d="M373.27,85.27s6.5,45.48-29.55,37S309.16,86.4,309.16,86.4c.44-5.09,4.12-9.58,10-8.38,7.07,1.44,12.72,7.7,13.15,14.55.48,7.83-6.35,19.46-15.08,21-12.42,2.11-25.85-1.74-36.4-8C271.29,100,266.58,91,261.41,82c-1.18-2.07-2.34-4.16-3.48-6.25-.46-.86-2.06-5.35-3.56-4.51-.66.38-1.2,4.11-1.36,4.87-.38,1.79-.58,3.6-1,5.38a87.83,87.83,0,0,1-3.21,10.83C246.15,99.45,242,105,236.2,110.18c-6.45,5.83-18.65,9.65-27.14,5.88-14-6.22-16.09-11.87-12.81-15,2.79-2.65,7.19-.93,10,.71,5.63,3.26,6.88,8.27,5.26,14.09s-5.69,10.93-11.71,12.88a40.58,40.58,0,0,1-23.54,0"/><path class="cls-2" d="M351.76,203.63s35.75,27.4,67-9.32,8-72.32-8.64-77.12c-7.57-2.18-20.85-.77-20.19,9.24.26,4,6.77,7,10.47,6.84,12.6-.59,19.6-14.41,22.73-24.45,3.52-11.3.18-21.92-10.45-28.46l-.77-.46c-21.75-12.71-33.07-9-41.11-17.23l-.39-.39c-9.15-9-19.93-16.81-30.29-24.48C325.44,26.9,310.3,16,292.94,9.2c-3.06-1.2-6.31-2.78-9.55-3.37C278,4.82,272.48,4,267,3.35c-17.83-1.93-36.65-.06-49.58,13-1.62,1.56-3.19,3.18-4.68,4.86a44.87,44.87,0,0,0-3.47,4.34c-.86,1.24-1.42,2.92-3.07,3.36-3.93,1.07-8.94-.44-13.05-.53-4.83-.11-9.91.14-14.46,1.81-10.72,4-30.08,20.06-36.34,31.92S114,83.86,114,83.86s-23.84,6.49-26.22,26.83,7.75,27.69,11.92,30.51c2.56,1.74,5.93,2.15,9,2.44,3.24.3,7.06.51,10.19-.45a19.27,19.27,0,0,0,3-1.31c2.55-1.28,4.46-2.49,5.49-5.12a12.55,12.55,0,0,0,.48-8.39,6.3,6.3,0,0,0-4.82-3.79c-6.23-1.29-12.22,2.13-16.09,6.52a38.91,38.91,0,0,0-7.11,12.77c-.88,2.46-1.56,5-2.23,7.5-1.19,4.52-10.72,62.59,42,62.08s70.9-44.56,70.9-44.57a93.79,93.79,0,0,0,4.39-11.94c2-7.7,2.86-16.2,0-23.8a25.56,25.56,0,0,0-1.32-2.8,14.79,14.79,0,0,0-1.77-3.17c-.79-.91-1.7-1.74-2.4-2.73a12.44,12.44,0,0,0-1.21-1.31"/><path class="cls-2" d="M259.22,118c-2.1-1.58-5-1.8-7.64-1.81a26.7,26.7,0,0,0-3.1.14,17.3,17.3,0,0,0-9.18,3.87"/><path class="cls-2" d="M318.42,118.5c3.05-1.4,6.41-1.77,9.67-2.55"/><path class="cls-3" d="M288.61,147.91a8.75,8.75,0,0,0,6.71-2.42,6.45,6.45,0,0,0,1.93-3.81,4.79,4.79,0,0,0-1.38-4,6.55,6.55,0,0,0-2.57-1.39,8.62,8.62,0,0,0-4.42-.25,5.92,5.92,0,0,0-3.62,2.34"/><path class="cls-4" d="M281.15,156.85c1,5.14,5.89,9.36,11.38,9.79a7.51,7.51,0,0,0,4.63-.91,8.06,8.06,0,0,0,3-4.47,24.76,24.76,0,0,0,1.31-6.63"/><ellipse class="cls-5" cx="252.51" cy="137.81" rx="7.4" ry="8.62"/><ellipse class="cls-5" cx="325.81" cy="135.91" rx="7.4" ry="8.62"/><path class="cls-1" d="M248.24,169.63c0,13.86-9.76,25.1-21.8,25.1-7.79,0-14.39-4.82-18.08-11.08-1-1.72-1.86-2.87-1.07-4.68s2.75-3.74,3.78-5.64a84.19,84.19,0,0,0,5.06-12.15c1.32-3.73,2.71-7.62,2.66-11.61,0-2.37-.89-3,1.5-4a16.06,16.06,0,0,1,6.15-1C238.48,144.53,248.24,155.76,248.24,169.63Z"/><text class="cls-6" transform="translate(0 328.84) scale(1.09 1)"><tspan class="cls-7">B</tspan><tspan x="84.21" y="0">ee</tspan><tspan class="cls-8" x="238.76" y="0">v</tspan><tspan class="cls-9" x="317.57" y="0">’</tspan><tspan x="338.39" y="0">s</tspan></text><text class="cls-10" transform="translate(171.3 402) scale(1.09 1)"><tspan class="cls-11">o</tspan><tspan class="cls-12" x="47.87" y="0">v</tspan><tspan x="89.47" y="0">en</tspan></text></g></g></svg>