<?xml version="1.0" encoding="utf-8"?>
<!-- Generator: Adobe Illustrator 26.1.0, SVG Export Plug-In . SVG Version: 6.00 Build 0)  -->
<svg version="1.1" id="Capa_1" xmlns="http://www.w3.org/2000/svg" xmlns:xlink="http://www.w3.org/1999/xlink" x="0px" y="0px"
	 viewBox="0 0 570.5 430.1" style="enable-background:new 0 0 570.5 430.1;" xml:space="preserve">
<style type="text/css">
	.st0{opacity:0.5;fill:#F1BEB5;enable-background:new    ;}
	.st1{fill:none;stroke:#FFFFFF;stroke-width:5.42;stroke-miterlimit:10;}
	.st2{fill:#FFFFFF;stroke:#FFFFFF;stroke-width:5.42;stroke-miterlimit:10;}
	.st3{fill:none;stroke:#FFFFFF;stroke-width:2.71;stroke-miterlimit:10;}
	.st4{fill:none;stroke:#FFFFFF;stroke-width:4.06;stroke-miterlimit:10;}
	.st5{fill:#FFFFFF;stroke:#FFFFFF;stroke-miterlimit:10;}
	.st6{fill:none;}
	.st7{enable-background:new    ;}
	.st8{fill:#FFFFFF;}
</style>
<path class="st0" d="M372.1,164.6c-0.2,1.3-0.5,2.7-0.8,4.1c-0.4,1.8-0.6,3.6-1.1,5.4c-1.4,5.4-5.4,10.2-9.3,14.1
	c-1.1,1.2-2.5,2.8-4.2,2.9c-4.1,0.2-8.4-2.2-11.4-4.6c-6.7-5.2-10-13.4-10-21.5c0-14.5,10.5-26.2,23.4-26.2c3.6,0,9.8,0.8,11.2,4.4
	C372.7,150,373.5,157.4,372.1,164.6z"/>
<path class="st1" d="M354.4,119.7c10.1,6.8,17.2,17.2,19.9,29c1.3,5.7,1.3,11.7,0.2,17.4c-1.1,5.3-2.8,12.4-6.1,16.7
	c-4,5.3-8.7,9.9-14,13.9c-54.4,41.4-132.6,0-132.6,0"/>
<path class="st1" d="M375.3,85.3c0,0,6.5,45.5-29.5,37s-34.6-35.9-34.6-35.9c0.4-5.1,4.1-9.6,10-8.4c7.1,1.4,12.7,7.7,13.1,14.6
	c0.5,7.8-6.4,19.5-15.1,21c-12.4,2.1-25.9-1.7-36.4-8C273.3,100,268.6,91,263.4,82c-1.2-2.1-2.3-4.2-3.5-6.2
	c-0.5-0.9-2.1-5.3-3.6-4.5c-0.7,0.4-1.2,4.1-1.4,4.9c-0.4,1.8-0.6,3.6-1,5.4c-0.8,3.7-1.9,7.3-3.2,10.8c-2.6,7.1-6.8,12.7-12.6,17.9
	c-6.4,5.8-18.6,9.7-27.1,5.9c-14-6.2-16.1-11.9-12.8-15c2.8-2.7,7.2-0.9,10,0.7c5.6,3.3,6.9,8.3,5.3,14.1s-5.7,10.9-11.7,12.9
	c-7.7,2.3-15.9,2.3-23.5,0"/>
<path class="st1" d="M353.8,203.6c0,0,35.8,27.4,67-9.3s8-72.3-8.6-77.1c-7.6-2.2-20.9-0.8-20.2,9.2c0.3,4,6.8,7,10.5,6.8
	c12.6-0.6,19.6-14.4,22.7-24.4c3.5-11.3,0.2-21.9-10.5-28.5l-0.8-0.5c-21.8-12.7-33.1-9-41.1-17.2l-0.4-0.4
	c-9.1-9-19.9-16.8-30.3-24.5C327.4,26.9,312.3,16,294.9,9.2c-3.1-1.2-6.3-2.8-9.5-3.4C280,4.8,274.5,4,269,3.3
	c-17.8-1.9-36.6-0.1-49.6,13c-1.6,1.6-3.2,3.2-4.7,4.9c-1.2,1.4-2.4,2.8-3.5,4.3c-0.9,1.2-1.4,2.9-3.1,3.4
	c-3.9,1.1-8.9-0.4-13.1-0.5c-4.8-0.1-9.9,0.1-14.5,1.8c-10.7,4-30.1,20.1-36.3,31.9S116,83.9,116,83.9s-23.8,6.5-26.2,26.8
	s7.8,27.7,11.9,30.5c2.6,1.7,5.9,2.1,9,2.4c3.2,0.3,7.1,0.5,10.2-0.4c1-0.4,2-0.8,3-1.3c2.6-1.3,4.5-2.5,5.5-5.1
	c1.1-2.7,1.3-5.6,0.5-8.4c-0.8-2-2.7-3.4-4.8-3.8c-6.2-1.3-12.2,2.1-16.1,6.5c-3.2,3.8-5.6,8.1-7.1,12.8c-0.9,2.5-1.6,5-2.2,7.5
	c-1.2,4.5-10.7,62.6,42,62.1s70.9-44.6,70.9-44.6c1.7-3.9,3.2-7.9,4.4-11.9c2-7.7,2.9-16.2,0-23.8c-0.4-1-0.8-1.9-1.3-2.8
	c-0.5-1.1-1.1-2.2-1.8-3.2c-0.8-0.9-1.7-1.7-2.4-2.7c-0.4-0.5-0.8-0.9-1.2-1.3"/>
<path class="st1" d="M261.2,118c-2.1-1.6-5-1.8-7.6-1.8c-1,0-2.1,0-3.1,0.1c-3.4,0.4-6.6,1.7-9.2,3.9"/>
<path class="st2" d="M320.4,118.5c3-1.4,6.4-1.8,9.7-2.6"/>
<path class="st3" d="M290.6,147.9c2.5,0.2,4.9-0.7,6.7-2.4c1.1-1,1.7-2.4,1.9-3.8c0.2-1.5-0.3-3-1.4-4c-0.7-0.7-1.6-1.1-2.6-1.4
	c-1.4-0.5-3-0.6-4.4-0.2c-1.5,0.3-2.8,1.1-3.6,2.3"/>
<path class="st4" d="M283.1,156.8c1,5.1,5.9,9.4,11.4,9.8c1.6,0.2,3.2-0.1,4.6-0.9c1.5-1.1,2.5-2.7,3-4.5c0.7-2.1,1.2-4.4,1.3-6.6"
	/>
<ellipse class="st5" cx="254.5" cy="137.8" rx="7.4" ry="8.6"/>
<ellipse class="st5" cx="327.8" cy="135.9" rx="7.4" ry="8.6"/>
<path class="st0" d="M250.2,169.6c0,13.9-9.8,25.1-21.8,25.1c-7.8,0-14.4-4.8-18.1-11.1c-1-1.7-1.9-2.9-1.1-4.7s2.8-3.7,3.8-5.6
	c2-3.9,3.7-8,5.1-12.1c1.3-3.7,2.7-7.6,2.7-11.6c0-2.4-0.9-3,1.5-4c2-0.7,4.1-1.1,6.1-1C240.5,144.5,250.2,155.8,250.2,169.6z"/>
<g>
	<rect x="13.3" y="208.2" class="st6" width="570.5" height="148.7"/>
	<g class="st7">
		<path class="st8" d="M145.4,302.2c0,20.8-20.8,33.9-50.6,33.9H14.6v-3.9c9.3,0,16.9-6.9,16.9-15.4V232c0-8.5-7.6-15.4-16.9-15.4
			v-3.9h72.1c27.7,0,46.1,12.2,46.1,31.6c0,11.1-7.6,21.6-22.4,26.8C133.1,275.2,145.4,288.1,145.4,302.2z M65.3,269
			c21.3,0,33.9-8,33.9-23.8c0-16.7-16.4-21.4-33.9-21.4V269z M65.3,276.1v49.4c32.6,0,46.6-6.9,46.6-23.6
			C111.8,285.1,95.8,276.1,65.3,276.1z"/>
		<path class="st8" d="M239.6,289.8h-57.4c0,19.9,11,34.4,28.9,33.8c9.5-0.3,18.7-3.4,24.5-13l1.5,0.6
			c-6.2,16.3-21.6,26.5-38.1,26.5c-26.8,0-46.4-18.4-46.4-43.2c0-23.9,19.2-45,47.3-45C224.2,249.6,240.3,266.7,239.6,289.8z
			 M215.5,283.7c0-15.9-7.3-26.2-16.4-26.2c-9.1,0-16.4,10.3-16.4,26.2H215.5z"/>
		<path class="st8" d="M334.8,289.8h-57.4c0,19.9,11,34.4,28.9,33.8c9.5-0.3,18.7-3.4,24.5-13l1.5,0.6
			c-6.2,16.3-21.6,26.5-38.1,26.5c-26.8,0-46.4-18.4-46.4-43.2c0-23.9,19.2-45,47.3-45C319.4,249.6,335.4,266.7,334.8,289.8z
			 M310.6,283.7c0-15.9-7.3-26.2-16.4-26.2s-16.4,10.3-16.4,26.2H310.6z"/>
		<path class="st8" d="M435.2,249.6v3.9c-11.1,0-13.2,2.3-15.2,7.7l-24.8,75h-17.9l-32.4-75c-1.9-4.2-6.4-7.6-11-7.7v-3.9h45.7v3.9
			c-4.6,0.2-7.1,3.5-5.2,7.7l21.9,50.9l16.9-50.9c1.9-5.6,0.3-7.7-13.8-7.7v-3.9L435.2,249.6L435.2,249.6z"/>
		<path class="st8" d="M442.8,259.8l-1-1.4c11-4.3,17.4-12.6,18.1-20.4c-8.9,4.5-20.8-1.9-20.8-11.7c0-7.2,6.4-13.1,14.3-13.1
			c9.8,0,16.2,8,16.2,18.4C469.6,242,462,253.9,442.8,259.8z"/>
		<path class="st8" d="M555.4,310.8c0,18.4-20.8,27.9-40.7,28.2c-16.4,0.2-32.2-6-35.8-19c-2.2-7.9,3.4-16.2,12-15.3
			c7.6,0.9,11.1,7.6,7.4,14.5c-4,7.9,6.1,11.4,16.5,11.4c8.3,0,18.6-4.2,18.6-11.6c0-8.6-15-12.3-30.5-17
			c-15.5-4.6-23.3-13.7-23.3-25.8c0-21.4,20.6-27,37.3-27.1c16-0.2,31.2,4.8,34.1,15.9c2,7.7-3.5,16.2-12.2,15.1
			c-7.4-0.8-11.1-7.4-7.4-14.3c6.6-12.5-30.9-11.3-30.9,1.7c0,5.6,2.4,5.7,32.9,16C548.6,288.8,555.4,299.6,555.4,310.8z"/>
	</g>
</g>
<g>
	<rect x="184.6" y="334.7" class="st6" width="240" height="90.8"/>
	<g class="st7">
		<path class="st8" d="M243.4,383.5c0,12.8-9.4,25.3-28.4,25.3c-19.1,0-28.1-12.4-28.1-25.2c0-12.8,9.2-25.3,28.3-25.3
			S243.4,370.7,243.4,383.5z M226.5,383.3c0-10-2.5-20.6-11.4-20.6c-8.8,0-11.3,10.5-11.3,20.4c0,10,2.4,21.3,11.3,21.3
			C224,404.4,226.5,393.2,226.5,383.3z"/>
		<path class="st8" d="M299.9,358.3v2.2c-6.4,0-7.5,1.3-8.7,4.4l-14.2,43h-10.2L248.2,365c-1.1-2.4-3.7-4.3-6.3-4.4v-2.2h26.2v2.2
			c-2.6,0.1-4.1,2-3,4.4l12.6,29.1l9.7-29.1c1.1-3.2,0.2-4.4-7.9-4.4v-2.2h20.4V358.3z"/>
		<path class="st8" d="M347.7,381.4h-32.9c0,11.4,6.3,19.7,16.5,19.3c5.4-0.2,10.7-1.9,14-7.4l0.9,0.4c-3.6,9.4-12.4,15.2-21.8,15.2
			c-15.4,0-26.6-10.5-26.6-24.7c0-13.7,11-25.8,27.1-25.8C338.9,358.3,348.1,368.1,347.7,381.4z M333.9,377.9c0-9.1-4.2-15-9.4-15
			c-5.2,0-9.4,5.9-9.4,15H333.9z"/>
		<path class="st8" d="M404.4,368.3v32.9c0,2.5,2.1,4.4,4.8,4.4v2.2h-26.6v-2.2c2.7,0,4.8-1.9,4.8-4.4v-30.1c0-2.2-2.3-4.2-5.5-4.2
			c-4.7,0-8.6,5.2-9,5.7v28.7c0,2.5,2.1,4.4,4.8,4.4v2.2h-26.6v-2.2c2.7,0,4.8-1.9,4.8-4.4v-33.6c0-2-1.6-3.4-4.4-3.4l-0.4-2.1
			L373,359v9.2c0,0,7.9-9.8,19.8-9.8C402.8,358.3,404.4,365.8,404.4,368.3z"/>
	</g>
</g>
</svg>
