<svg xmlns="http://www.w3.org/2000/svg" viewBox="0 0 430.74 273.95"><defs><style>.cls-1{fill:#3f3f3f;}.cls-2{fill:#7b7b7b;}.cls-3{fill:#f7ded9;}.cls-4{fill:#fefefe;}.cls-5{fill:#fdfdfd;}.cls-6{fill:#fafafa;}.cls-7{fill:#010101;}.cls-8{fill:#030303;}.cls-9{fill:#0a0a0a;}</style></defs><g id="Capa_2" data-name="Capa 2"><g id="Capa_1-2" data-name="Capa 1"><path d="M148.87,228.93c-13.25,18.31-30.08,31.82-52,38.39-14,4.21-28.36,5.88-42.87,3.34-22.68-4-37.38-19.81-41.28-44-2.41-15-2.27-29.81,2.32-44.4.49-1.56.61-2.52-.72-3.89-24.62-25.53-16.61-61.24,16.73-74.48A104.12,104.12,0,0,0,56.42,89.26a51.91,51.91,0,0,0,12.44-14.1c10.44-17,25-29.74,42.51-38.92,9.36-4.9,19.68-4.4,29.8-2.81,4.29.68,6.87-.19,9.51-4C162.05,13,177.48,3,197.69,1c.79-.08,1.71.12,2-1h5c2.68,1.08,5.48.25,8.21.52,2,.15,4-.35,5.9.34,22.81.5,43.28,8.39,62.13,20.56,25.48,16.44,49.77,34.52,71.75,55.5,3.4,3.24,7.47,4.92,11.83,6,12.42,3.22,24.51,7.16,35.65,13.75,16.5,9.77,22.2,24.12,16.4,42.45-1.34,4.23-4.84,8.53-4.3,12.38.5,3.63,5.34,6.49,7.7,10.07,10.66,16.21,13.46,33.94,8.31,52.51a84,84,0,0,1-34.07,47.75c-21.72,15-47.21,11.59-67.47-1.6-1.58-1-2.75-1.92-.89-3.7,1.4-1.33,1.91-4,5-1.89a57.6,57.6,0,0,0,27.84,10.05c15.38,1.32,28.45-4.15,39.41-14.66,16.51-15.84,27.17-34.44,25.51-58.24-.84-12.15-5.64-22.76-13.59-32-1.64-1.9-2.38-2-4,0-4.12,5.18-9.14,9.16-15.85,10.6a18.74,18.74,0,0,1-7.92.17c-7.32-1.54-12.28-6.56-12.43-12.38-.18-6.81,4.11-12.2,11.67-14.23,7.3-2,14.57-1.71,21.36,1.87,2.65,1.4,3.75.76,4.69-1.78,1.63-4.36,3.49-8.64,4.08-13.3,1.53-12-3.05-21.05-13.37-27.3a106,106,0,0,0-30.75-12.61c-8.9-2.09-16.29-6.25-23.32-12.48C317.35,54.71,289.78,31.84,257,16.56c-19.67-9.17-40.6-11.1-61.92-8.36-17.5,2.25-30.25,12.38-39.82,26.58-3.09,4.6-6.82,6-11.75,5.6-3.65-.28-7.27-1-10.91-1.18a39.85,39.85,0,0,0-26.26,7.7C93,56.53,81.32,67.48,72.57,81.76,64.19,95.43,50.39,103,36,109.14c-10.64,4.56-20.11,10.23-25.55,21.06-5.34,10.64-4.7,34.19,8,42.54,2.65-4.61,5.34-9.19,9.35-12.83A26.24,26.24,0,0,1,40,153.41c7.15-1.58,13.56.81,16,6,2.92,6.13.47,15.92-4.83,19.94-7.88,6-16.82,5.62-25.77,4.08-2.9-.5-3.85.2-4.49,2.67-4.56,17.54-4.49,35,2.08,52,6.74,17.41,20.5,25.45,38.62,26.75,47.86,3.41,91-32.23,96.61-79.88a35.78,35.78,0,0,0-4.46-21.62c-1.4-2.59-2.42-3.4-5.48-1.4-11,7.18-23,6.46-35.16,3.92-2.29-.48-1.71-2-1.11-3.47.72-1.69.62-3.94,3.86-3a40.57,40.57,0,0,0,19.77.59c5-1,9.4-3.11,12.67-7.3,1.86-2.4,2.43-3.9-1.06-5.41a35.18,35.18,0,0,1-11.51-7.78c-4.22-4.37-5.24-9.13-2.81-13,2.53-4.06,7.67-5.34,13.39-3.34,8.69,3.05,13.07,9,13.11,18.41,0,2.58.84,3.13,3.12,3a33.66,33.66,0,0,0,20.77-8.58c12.1-10.64,16.62-24.84,19.27-40,.63-3.56-.06-8.57,4.81-9.38,5.19-.86,5.91,4.33,7.78,7.65,6,10.54,10.8,21.8,19.66,30.46,10.94,10.7,32.15,17.34,47.48,14.87.46-1.62-1-2.3-1.72-3.27a46.6,46.6,0,0,1-9.36-24.33c-.47-6,.95-11.34,6.07-15s10.44-2.5,15.6,0c11.37,5.57,16.05,18.28,11.27,30.54a31.82,31.82,0,0,1-7,11.4c-1.81,1.78-1.21,2.55.52,3.62,8.05,5,16.84,8.51,26.16,8.83,3.47.12,7.52-1,11.32-1.53,6-.79,9.14-6.6,11.42-12.15,3.46-8.39,3.49-17.24,3-26-.19-3.4.92-4.3,3.95-4.6,3.9-.39,2.93,2.46,2.94,4.26,0,5.65.31,11.29-.54,16.95-1.75,11.66-5.7,21.88-16.82,28,10.65,12.13,16.73,25.8,16.95,41.83.33,24.19-11.33,41.58-30.58,55-24,16.74-50.86,22.39-79.52,20.56-26.84-1.72-52.29-9.09-76.6-20.49-5.79-2.71-5.77-2.75-2.75-8.25,1.27-1,2.59-.48,3.91-.16,17.7,8.23,36,14.7,55.25,18.12,23.39,4.15,46.58,4.27,69.4-3.39,12.47-4.19,23.36-11.08,33.49-19.31,21.33-16.15,23.72-46.25,14.07-63.82a53.38,53.38,0,0,0-3.29-6.15c-3.74-5.81-7.47-10.68-15.83-10.65s-16.32-3-23.88-6.6a10.76,10.76,0,0,0-8.2-.87c-2.72.83-5.2.95-6.9-2-1.46-2.58-4.08-1.78-6.32-1.74-18,.32-34-5.37-48-16.63a25.76,25.76,0,0,1-3.93-3.81c-6.84-8.37-12.08-17.72-16.73-26.89-3.17,18-10,34.35-26.43,45.1a36.67,36.67,0,0,1-20.2,6.24c-5.64,0-6.07.88-3.28,5.6,3.15,5.34,5.77,10.87,6.18,17.21.87,18.95-4.94,35.95-15.1,51.69A8.85,8.85,0,0,1,148.87,228.93Z"/><path class="cls-1" d="M212.77.83C210.06.66,207.19,2,204.66,0h8c.29.15.4.32.34.52S212.86.83,212.77.83Z"/><path class="cls-2" d="M212.77.83,212.65,0h6l.12.86Z"/><path class="cls-3" d="M148.87,228.93c2.59-7.37,7.65-13.48,10.33-20.9a89.38,89.38,0,0,0,5.7-33c.35,0,.87.07.9.26.72,6.13,5.14,5.26,9.49,5.47,11.87.57,19.22,7.84,23.36,18.12,4.7,11.68,4.19,23.54-2.85,34.32-6,9.25-14.46,14.42-26.07,12.42l-3.06-.7c-3.89-3.55-9.06-5.39-12.42-9.72C152.59,233,151.84,230,148.87,228.93Z"/><path class="cls-4" d="M169.73,245.58c2.5-1.38,5.24-.27,7.83-.79,11.25-2.24,21.31-14.34,22.19-25.94.75-9.87-.27-19-6.66-27.1-5.85-7.45-13.33-11-22.56-9.65-4.37.65-5.16-.68-4.77-4.37a2.92,2.92,0,0,0-.86-2.74c-1.22-6.94-3.26-13.54-8-19a2.68,2.68,0,0,1-.51-3.51c.68-1.33,1.51-1.46,2.76-1.44,24.43.32,37.15-14.63,45.41-35.13a78.88,78.88,0,0,0,4.58-18.36c2.72,4.81,5.1,8.71,7.19,12.75,13.79,26.69,36.43,37.39,65.53,36.25,2.46-.09,3.31.84,3.9,2.68.76,2.36,1.86,3,4.36,1.88,3.82-1.74,7.46-1,11.35.88,8.56,4.22,17.68,6.76,27.37,6.4a5.28,5.28,0,0,1,4.43,1.7c4.32,4.64,8.28,9.51,10.57,15.52-.43,2.84-2.34,1.27-3.63,1.12-6.15-.72-12.27-1.29-18.13,1.49-7.71,3.65-12.6,9.85-15.11,17.75-3.27,10.31-2.44,20.38,3.26,29.81a27.47,27.47,0,0,0,16.09,12.66c1.3.39,3.18.17,3.29,2.33-20.08,18.12-44.13,25.78-70.69,26.22C227.37,267.54,197.88,259.26,169.73,245.58Z"/><path class="cls-3" d="M329.57,240.81c-11-2.32-18.67-8.73-23-19.06-6.43-15.28-1.6-34.75,12.07-43.24,7-4.34,14.44-4.2,22.1-2.94,1,.17,2,1.49,3.07.08C354.32,193.53,350.66,226,329.57,240.81Z"/><path class="cls-5" d="M299.54,117.61a28.84,28.84,0,0,1-7.58,16.9c-1.41,1.53-2.22,1.75-3.81,0a39.83,39.83,0,0,1-10.27-24.23c-.49-7.22,5-10.63,11.52-7.45A17.31,17.31,0,0,1,299.54,117.61Z"/><path class="cls-5" d="M35.6,177.7c-1.66-.12-2.66-.13-3.64-.27-2.26-.34-6-.15-6.46-1.23-1-2.49,1.72-4.64,3.13-6.79,2.81-4.29,6.58-7.6,11.52-9,3.42-1,7.4-1.9,9.77,2.17,1.87,3.22,0,9.23-3.29,11.53A19.91,19.91,0,0,1,35.6,177.7Z"/><path class="cls-5" d="M402.2,153.35C399,158.26,395,162,389.37,163.71c-5.08,1.53-11.89-1.22-12.73-4.92-1-4.21,3.41-8.22,9.83-8.84C392,149.42,397.37,149.86,402.2,153.35Z"/><path class="cls-6" d="M152.34,142.07a32.7,32.7,0,0,1-12-7.84c-1.14-1.19-2.61-2.5-1.3-4.3,1.19-1.64,3-1,4.57-.54C150.13,131.36,153,135.44,152.34,142.07Z"/><path class="cls-7" d="M304.1,170.9c0,6-4.15,11-9.19,11S285.68,177,285.64,171s4.14-11,9.19-11S304.07,164.86,304.1,170.9Z"/><path class="cls-7" d="M196.2,173.25c0-6.12,4.23-10.94,9.4-10.8s9.18,5.18,9,11.21-4.09,10.41-9.16,10.45S196.16,179.35,196.2,173.25Z"/><path class="cls-8" d="M255.07,212c-6.94-.06-14-4.81-16.26-11.19-.41-1.14-1.9-2.89.59-3.61,1.58-.47,3.2-.89,4.06,1.39a12.66,12.66,0,0,0,7.52,7.48c6,2.39,8.66.63,10.88-6,.66-2-1.29-7,3.71-5.64,4.7,1.29,1.32,5.07.84,7.35C264.84,209.13,261.21,212.09,255.07,212Z"/><path class="cls-8" d="M204.87,142.83c1.51.15,4-.27,6.4.76,1.49.66,4.46.73,3.74,2.69s-1.71,5.19-5.95,3.88a17.87,17.87,0,0,0-15.68,2.26c-3.39,2.31-3.84-1.06-5.17-2.39-2.17-2.17.52-2.73,1.62-3.46C194.07,143.74,198.85,142.63,204.87,142.83Z"/><path class="cls-9" d="M251.64,172.81a5.54,5.54,0,0,0-4.33,1.58c-1,.89-1.93.11-2.55-.6-.95-1.11.19-1.76.85-2.38,2.71-2.58,9.07-2.79,12.62-.37,3.32,2.27,4.12,5.51,3,9.2-1.15,3.92-6.66,7.84-10.24,7.56-1-.07-1.59-.33-1.6-1.37,0-.87.17-1.68,1.1-2a22.69,22.69,0,0,0,4.19-1.42c2.38-1.42,4.27-3.47,3.46-6.5S254.68,172.82,251.64,172.81Z"/></g></g></svg>