<svg xmlns="http://www.w3.org/2000/svg" viewBox="0 0 110 110"><defs><style>.cls-1{fill:#926cad;}.cls-2{fill:#fff;}.cls-3{fill:none;stroke:#fff;stroke-miterlimit:10;stroke-width:4px;}</style></defs><g id="Capa_2" data-name="Capa 2"><g id="Capa_1-2" data-name="Capa 1"><circle class="cls-1" cx="55" cy="55" r="55"/><path class="cls-2" d="M27.92,35H82.24L88,76.64S88,86.11,79.52,88H31.36S23.68,86.11,23,79.79,27.92,35,27.92,35Z"/><path class="cls-3" d="M69.62,47V33.38a36.45,36.45,0,0,0,0-5.53,9.16,9.16,0,0,0-1.3-2.76,9.71,9.71,0,0,0-3.21-3.23,15.85,15.85,0,0,0-12.75-2.42,19.93,19.93,0,0,0-3.88,1.4,27,27,0,0,0-3.36,1.79c-3.32,2.18-4.39,6.21-4.39,9.68,0,2.61,0,5.23,0,7.84,0,2.27,0,4.54,0,6.82"/></g></g></svg>